G75*
G70*
%OFA0B0*%
%FSLAX24Y24*%
%IPPOS*%
%LPD*%
%AMOC8*
5,1,8,0,0,1.08239X$1,22.5*
%
%ADD10C,0.0848*%
%ADD11OC8,0.0940*%
%ADD12R,0.0730X0.0730*%
%ADD13C,0.0680*%
%ADD14C,0.0100*%
%ADD15C,0.0060*%
%ADD16C,0.0050*%
D10*
X018100Y005108D02*
X018100Y005876D01*
X028100Y005876D02*
X028100Y005108D01*
X028100Y012333D02*
X028100Y013101D01*
X018100Y013101D02*
X018100Y012333D01*
X018100Y019558D02*
X018100Y020326D01*
X028100Y020326D02*
X028100Y019558D01*
X028100Y026783D02*
X028100Y027551D01*
X018100Y027551D02*
X018100Y026783D01*
X018100Y034008D02*
X018100Y034776D01*
X028100Y034776D02*
X028100Y034008D01*
X028100Y041233D02*
X028100Y042001D01*
X018100Y042001D02*
X018100Y041233D01*
D11*
X016100Y042538D03*
X015139Y041578D03*
X020100Y042538D03*
X021100Y041578D03*
X025139Y041578D03*
X026100Y042538D03*
X030100Y042538D03*
X031100Y041578D03*
X030100Y037656D03*
X029100Y037656D03*
X027100Y037656D03*
X026100Y037656D03*
X026100Y035313D03*
X025139Y034353D03*
X021100Y034353D03*
X020100Y035313D03*
X020100Y037656D03*
X019100Y037656D03*
X017100Y037656D03*
X016100Y037656D03*
X016100Y035313D03*
X015139Y034353D03*
X016100Y030431D03*
X017100Y030431D03*
X019100Y030431D03*
X020100Y030431D03*
X020100Y028088D03*
X021100Y027128D03*
X025139Y027128D03*
X026100Y028088D03*
X026100Y030431D03*
X027100Y030431D03*
X029100Y030431D03*
X030100Y030431D03*
X030100Y028088D03*
X031100Y027128D03*
X030100Y023206D03*
X029100Y023206D03*
X027100Y023206D03*
X026100Y023206D03*
X026100Y020863D03*
X025139Y019903D03*
X021100Y019903D03*
X020100Y020863D03*
X020100Y023206D03*
X019100Y023206D03*
X017100Y023206D03*
X016100Y023206D03*
X016100Y020863D03*
X015139Y019903D03*
X016100Y015981D03*
X017100Y015981D03*
X019100Y015981D03*
X020100Y015981D03*
X020100Y013638D03*
X021100Y012678D03*
X025139Y012678D03*
X026100Y013638D03*
X026100Y015981D03*
X027100Y015981D03*
X029100Y015981D03*
X030100Y015981D03*
X030100Y013638D03*
X031100Y012678D03*
X030100Y008756D03*
X029100Y008756D03*
X027100Y008756D03*
X026100Y008756D03*
X026100Y006413D03*
X025139Y005453D03*
X021100Y005453D03*
X020100Y006413D03*
X020100Y008756D03*
X019100Y008756D03*
X017100Y008756D03*
X016100Y008756D03*
X016100Y006413D03*
X015139Y005453D03*
X016100Y001531D03*
X017100Y001531D03*
X019100Y001531D03*
X020100Y001531D03*
X026100Y001531D03*
X027100Y001531D03*
X029100Y001531D03*
X030100Y001531D03*
X031100Y005453D03*
X030100Y006413D03*
X016100Y013638D03*
X015139Y012678D03*
X030100Y020863D03*
X031100Y019903D03*
X016100Y028088D03*
X015139Y027128D03*
X030100Y035313D03*
X031100Y034353D03*
D12*
X039850Y031841D03*
X039850Y030345D03*
X043551Y030345D03*
X043551Y031841D03*
X048850Y031841D03*
X048850Y030345D03*
X052551Y030345D03*
X052551Y031841D03*
X057850Y031841D03*
X057850Y030345D03*
X061551Y030345D03*
X061551Y031841D03*
X066850Y031841D03*
X066850Y030345D03*
X070551Y030345D03*
X070551Y031841D03*
X070551Y037570D03*
X070551Y039066D03*
X066850Y039066D03*
X066850Y037570D03*
X061551Y037570D03*
X061551Y039066D03*
X057850Y039066D03*
X057850Y037570D03*
X052551Y037570D03*
X052551Y039066D03*
X048850Y039066D03*
X048850Y037570D03*
X043551Y037570D03*
X043551Y039066D03*
X039850Y039066D03*
X039850Y037570D03*
X039850Y024616D03*
X039850Y023120D03*
X043551Y023120D03*
X043551Y024616D03*
X048850Y024616D03*
X048850Y023120D03*
X052551Y023120D03*
X052551Y024616D03*
X057850Y024616D03*
X057850Y023120D03*
X061551Y023120D03*
X061551Y024616D03*
X066850Y024616D03*
X066850Y023120D03*
X070551Y023120D03*
X070551Y024616D03*
X070551Y017391D03*
X070551Y015895D03*
X066850Y015895D03*
X066850Y017391D03*
X061551Y017391D03*
X061551Y015895D03*
X057850Y015895D03*
X057850Y017391D03*
X052551Y017391D03*
X052551Y015895D03*
X048850Y015895D03*
X048850Y017391D03*
X043551Y017391D03*
X043551Y015895D03*
X039850Y015895D03*
X039850Y017391D03*
X039850Y010166D03*
X039850Y008670D03*
X043551Y008670D03*
X043551Y010166D03*
X048850Y010166D03*
X048850Y008670D03*
X052551Y008670D03*
X052551Y010166D03*
X057850Y010166D03*
X057850Y008670D03*
X061551Y008670D03*
X061551Y010166D03*
X066850Y010166D03*
X066850Y008670D03*
X070551Y008670D03*
X070551Y010166D03*
X070551Y002941D03*
X070551Y001445D03*
X066850Y001445D03*
X066850Y002941D03*
X061551Y002941D03*
X061551Y001445D03*
X057850Y001445D03*
X057850Y002941D03*
X052551Y002941D03*
X052551Y001445D03*
X048850Y001445D03*
X048850Y002941D03*
X043551Y002941D03*
X043551Y001445D03*
X039850Y001445D03*
X039850Y002941D03*
X008051Y002941D03*
X008051Y001445D03*
X004350Y001445D03*
X004350Y002941D03*
X004350Y008670D03*
X004350Y010166D03*
X008051Y010166D03*
X008051Y008670D03*
X008051Y015895D03*
X008051Y017391D03*
X004350Y017391D03*
X004350Y015895D03*
X004350Y023120D03*
X004350Y024616D03*
X008051Y024616D03*
X008051Y023120D03*
X008051Y030345D03*
X008051Y031841D03*
X004350Y031841D03*
X004350Y030345D03*
X004350Y037570D03*
X004350Y039066D03*
X008051Y039066D03*
X008051Y037570D03*
D13*
X033100Y039150D02*
X033100Y039750D01*
X034100Y039850D02*
X034100Y039250D01*
X035100Y039150D02*
X035100Y039750D01*
X036100Y039850D02*
X036100Y039250D01*
X037100Y039150D02*
X037100Y039750D01*
X038100Y039850D02*
X038100Y039250D01*
X037100Y041150D02*
X037100Y041750D01*
X036100Y041850D02*
X036100Y041250D01*
X035100Y041150D02*
X035100Y041750D01*
X034100Y041850D02*
X034100Y041250D01*
X033100Y041150D02*
X033100Y041750D01*
X038100Y041850D02*
X038100Y041250D01*
X038100Y034625D02*
X038100Y034025D01*
X037100Y033925D02*
X037100Y034525D01*
X036100Y034625D02*
X036100Y034025D01*
X035100Y033925D02*
X035100Y034525D01*
X034100Y034625D02*
X034100Y034025D01*
X033100Y033925D02*
X033100Y034525D01*
X033100Y032525D02*
X033100Y031925D01*
X034100Y032025D02*
X034100Y032625D01*
X035100Y032525D02*
X035100Y031925D01*
X036100Y032025D02*
X036100Y032625D01*
X037100Y032525D02*
X037100Y031925D01*
X038100Y032025D02*
X038100Y032625D01*
X038100Y027400D02*
X038100Y026800D01*
X037100Y026700D02*
X037100Y027300D01*
X036100Y027400D02*
X036100Y026800D01*
X035100Y026700D02*
X035100Y027300D01*
X034100Y027400D02*
X034100Y026800D01*
X033100Y026700D02*
X033100Y027300D01*
X033100Y025300D02*
X033100Y024700D01*
X034100Y024800D02*
X034100Y025400D01*
X035100Y025300D02*
X035100Y024700D01*
X036100Y024800D02*
X036100Y025400D01*
X037100Y025300D02*
X037100Y024700D01*
X038100Y024800D02*
X038100Y025400D01*
X038100Y020175D02*
X038100Y019575D01*
X037100Y019475D02*
X037100Y020075D01*
X036100Y020175D02*
X036100Y019575D01*
X035100Y019475D02*
X035100Y020075D01*
X034100Y020175D02*
X034100Y019575D01*
X033100Y019475D02*
X033100Y020075D01*
X033100Y018075D02*
X033100Y017475D01*
X034100Y017575D02*
X034100Y018175D01*
X035100Y018075D02*
X035100Y017475D01*
X036100Y017575D02*
X036100Y018175D01*
X037100Y018075D02*
X037100Y017475D01*
X038100Y017575D02*
X038100Y018175D01*
X038100Y012950D02*
X038100Y012350D01*
X037100Y012250D02*
X037100Y012850D01*
X036100Y012950D02*
X036100Y012350D01*
X035100Y012250D02*
X035100Y012850D01*
X034100Y012950D02*
X034100Y012350D01*
X033100Y012250D02*
X033100Y012850D01*
X033100Y010850D02*
X033100Y010250D01*
X034100Y010350D02*
X034100Y010950D01*
X035100Y010850D02*
X035100Y010250D01*
X036100Y010350D02*
X036100Y010950D01*
X037100Y010850D02*
X037100Y010250D01*
X038100Y010350D02*
X038100Y010950D01*
X038100Y005725D02*
X038100Y005125D01*
X037100Y005025D02*
X037100Y005625D01*
X036100Y005725D02*
X036100Y005125D01*
X035100Y005025D02*
X035100Y005625D01*
X034100Y005725D02*
X034100Y005125D01*
X033100Y005025D02*
X033100Y005625D01*
X033100Y003625D02*
X033100Y003025D01*
X034100Y003125D02*
X034100Y003725D01*
X035100Y003625D02*
X035100Y003025D01*
X036100Y003125D02*
X036100Y003725D01*
X037100Y003625D02*
X037100Y003025D01*
X038100Y003125D02*
X038100Y003725D01*
D14*
X003871Y005375D02*
X003873Y005412D01*
X003879Y005449D01*
X003888Y005484D01*
X003902Y005519D01*
X003918Y005552D01*
X003939Y005583D01*
X003962Y005612D01*
X003988Y005638D01*
X004017Y005661D01*
X004048Y005682D01*
X004081Y005698D01*
X004116Y005712D01*
X004151Y005721D01*
X004188Y005727D01*
X004225Y005729D01*
X004262Y005727D01*
X004299Y005721D01*
X004334Y005712D01*
X004369Y005698D01*
X004402Y005682D01*
X004433Y005661D01*
X004462Y005638D01*
X004488Y005612D01*
X004511Y005583D01*
X004532Y005552D01*
X004548Y005519D01*
X004562Y005484D01*
X004571Y005449D01*
X004577Y005412D01*
X004579Y005375D01*
X004577Y005338D01*
X004571Y005301D01*
X004562Y005266D01*
X004548Y005231D01*
X004532Y005198D01*
X004511Y005167D01*
X004488Y005138D01*
X004462Y005112D01*
X004433Y005089D01*
X004402Y005068D01*
X004369Y005052D01*
X004334Y005038D01*
X004299Y005029D01*
X004262Y005023D01*
X004225Y005021D01*
X004188Y005023D01*
X004151Y005029D01*
X004116Y005038D01*
X004081Y005052D01*
X004048Y005068D01*
X004017Y005089D01*
X003988Y005112D01*
X003962Y005138D01*
X003939Y005167D01*
X003918Y005198D01*
X003902Y005231D01*
X003888Y005266D01*
X003879Y005301D01*
X003873Y005338D01*
X003871Y005375D01*
X003871Y012600D02*
X003873Y012637D01*
X003879Y012674D01*
X003888Y012709D01*
X003902Y012744D01*
X003918Y012777D01*
X003939Y012808D01*
X003962Y012837D01*
X003988Y012863D01*
X004017Y012886D01*
X004048Y012907D01*
X004081Y012923D01*
X004116Y012937D01*
X004151Y012946D01*
X004188Y012952D01*
X004225Y012954D01*
X004262Y012952D01*
X004299Y012946D01*
X004334Y012937D01*
X004369Y012923D01*
X004402Y012907D01*
X004433Y012886D01*
X004462Y012863D01*
X004488Y012837D01*
X004511Y012808D01*
X004532Y012777D01*
X004548Y012744D01*
X004562Y012709D01*
X004571Y012674D01*
X004577Y012637D01*
X004579Y012600D01*
X004577Y012563D01*
X004571Y012526D01*
X004562Y012491D01*
X004548Y012456D01*
X004532Y012423D01*
X004511Y012392D01*
X004488Y012363D01*
X004462Y012337D01*
X004433Y012314D01*
X004402Y012293D01*
X004369Y012277D01*
X004334Y012263D01*
X004299Y012254D01*
X004262Y012248D01*
X004225Y012246D01*
X004188Y012248D01*
X004151Y012254D01*
X004116Y012263D01*
X004081Y012277D01*
X004048Y012293D01*
X004017Y012314D01*
X003988Y012337D01*
X003962Y012363D01*
X003939Y012392D01*
X003918Y012423D01*
X003902Y012456D01*
X003888Y012491D01*
X003879Y012526D01*
X003873Y012563D01*
X003871Y012600D01*
X003871Y019825D02*
X003873Y019862D01*
X003879Y019899D01*
X003888Y019934D01*
X003902Y019969D01*
X003918Y020002D01*
X003939Y020033D01*
X003962Y020062D01*
X003988Y020088D01*
X004017Y020111D01*
X004048Y020132D01*
X004081Y020148D01*
X004116Y020162D01*
X004151Y020171D01*
X004188Y020177D01*
X004225Y020179D01*
X004262Y020177D01*
X004299Y020171D01*
X004334Y020162D01*
X004369Y020148D01*
X004402Y020132D01*
X004433Y020111D01*
X004462Y020088D01*
X004488Y020062D01*
X004511Y020033D01*
X004532Y020002D01*
X004548Y019969D01*
X004562Y019934D01*
X004571Y019899D01*
X004577Y019862D01*
X004579Y019825D01*
X004577Y019788D01*
X004571Y019751D01*
X004562Y019716D01*
X004548Y019681D01*
X004532Y019648D01*
X004511Y019617D01*
X004488Y019588D01*
X004462Y019562D01*
X004433Y019539D01*
X004402Y019518D01*
X004369Y019502D01*
X004334Y019488D01*
X004299Y019479D01*
X004262Y019473D01*
X004225Y019471D01*
X004188Y019473D01*
X004151Y019479D01*
X004116Y019488D01*
X004081Y019502D01*
X004048Y019518D01*
X004017Y019539D01*
X003988Y019562D01*
X003962Y019588D01*
X003939Y019617D01*
X003918Y019648D01*
X003902Y019681D01*
X003888Y019716D01*
X003879Y019751D01*
X003873Y019788D01*
X003871Y019825D01*
X003871Y027050D02*
X003873Y027087D01*
X003879Y027124D01*
X003888Y027159D01*
X003902Y027194D01*
X003918Y027227D01*
X003939Y027258D01*
X003962Y027287D01*
X003988Y027313D01*
X004017Y027336D01*
X004048Y027357D01*
X004081Y027373D01*
X004116Y027387D01*
X004151Y027396D01*
X004188Y027402D01*
X004225Y027404D01*
X004262Y027402D01*
X004299Y027396D01*
X004334Y027387D01*
X004369Y027373D01*
X004402Y027357D01*
X004433Y027336D01*
X004462Y027313D01*
X004488Y027287D01*
X004511Y027258D01*
X004532Y027227D01*
X004548Y027194D01*
X004562Y027159D01*
X004571Y027124D01*
X004577Y027087D01*
X004579Y027050D01*
X004577Y027013D01*
X004571Y026976D01*
X004562Y026941D01*
X004548Y026906D01*
X004532Y026873D01*
X004511Y026842D01*
X004488Y026813D01*
X004462Y026787D01*
X004433Y026764D01*
X004402Y026743D01*
X004369Y026727D01*
X004334Y026713D01*
X004299Y026704D01*
X004262Y026698D01*
X004225Y026696D01*
X004188Y026698D01*
X004151Y026704D01*
X004116Y026713D01*
X004081Y026727D01*
X004048Y026743D01*
X004017Y026764D01*
X003988Y026787D01*
X003962Y026813D01*
X003939Y026842D01*
X003918Y026873D01*
X003902Y026906D01*
X003888Y026941D01*
X003879Y026976D01*
X003873Y027013D01*
X003871Y027050D01*
X003871Y034275D02*
X003873Y034312D01*
X003879Y034349D01*
X003888Y034384D01*
X003902Y034419D01*
X003918Y034452D01*
X003939Y034483D01*
X003962Y034512D01*
X003988Y034538D01*
X004017Y034561D01*
X004048Y034582D01*
X004081Y034598D01*
X004116Y034612D01*
X004151Y034621D01*
X004188Y034627D01*
X004225Y034629D01*
X004262Y034627D01*
X004299Y034621D01*
X004334Y034612D01*
X004369Y034598D01*
X004402Y034582D01*
X004433Y034561D01*
X004462Y034538D01*
X004488Y034512D01*
X004511Y034483D01*
X004532Y034452D01*
X004548Y034419D01*
X004562Y034384D01*
X004571Y034349D01*
X004577Y034312D01*
X004579Y034275D01*
X004577Y034238D01*
X004571Y034201D01*
X004562Y034166D01*
X004548Y034131D01*
X004532Y034098D01*
X004511Y034067D01*
X004488Y034038D01*
X004462Y034012D01*
X004433Y033989D01*
X004402Y033968D01*
X004369Y033952D01*
X004334Y033938D01*
X004299Y033929D01*
X004262Y033923D01*
X004225Y033921D01*
X004188Y033923D01*
X004151Y033929D01*
X004116Y033938D01*
X004081Y033952D01*
X004048Y033968D01*
X004017Y033989D01*
X003988Y034012D01*
X003962Y034038D01*
X003939Y034067D01*
X003918Y034098D01*
X003902Y034131D01*
X003888Y034166D01*
X003879Y034201D01*
X003873Y034238D01*
X003871Y034275D01*
X003871Y041500D02*
X003873Y041537D01*
X003879Y041574D01*
X003888Y041609D01*
X003902Y041644D01*
X003918Y041677D01*
X003939Y041708D01*
X003962Y041737D01*
X003988Y041763D01*
X004017Y041786D01*
X004048Y041807D01*
X004081Y041823D01*
X004116Y041837D01*
X004151Y041846D01*
X004188Y041852D01*
X004225Y041854D01*
X004262Y041852D01*
X004299Y041846D01*
X004334Y041837D01*
X004369Y041823D01*
X004402Y041807D01*
X004433Y041786D01*
X004462Y041763D01*
X004488Y041737D01*
X004511Y041708D01*
X004532Y041677D01*
X004548Y041644D01*
X004562Y041609D01*
X004571Y041574D01*
X004577Y041537D01*
X004579Y041500D01*
X004577Y041463D01*
X004571Y041426D01*
X004562Y041391D01*
X004548Y041356D01*
X004532Y041323D01*
X004511Y041292D01*
X004488Y041263D01*
X004462Y041237D01*
X004433Y041214D01*
X004402Y041193D01*
X004369Y041177D01*
X004334Y041163D01*
X004299Y041154D01*
X004262Y041148D01*
X004225Y041146D01*
X004188Y041148D01*
X004151Y041154D01*
X004116Y041163D01*
X004081Y041177D01*
X004048Y041193D01*
X004017Y041214D01*
X003988Y041237D01*
X003962Y041263D01*
X003939Y041292D01*
X003918Y041323D01*
X003902Y041356D01*
X003888Y041391D01*
X003879Y041426D01*
X003873Y041463D01*
X003871Y041500D01*
D15*
X004130Y041399D02*
X004187Y041343D01*
X004300Y041343D01*
X004357Y041399D01*
X004130Y041399D02*
X004130Y041626D01*
X004187Y041683D01*
X004300Y041683D01*
X004357Y041626D01*
X004942Y041626D02*
X004999Y041683D01*
X005113Y041683D01*
X005169Y041626D01*
X005169Y041569D01*
X004942Y041343D01*
X005169Y041343D01*
X005311Y041399D02*
X005538Y041626D01*
X005538Y041399D01*
X005481Y041343D01*
X005368Y041343D01*
X005311Y041399D01*
X005311Y041626D01*
X005368Y041683D01*
X005481Y041683D01*
X005538Y041626D01*
X005679Y041569D02*
X005793Y041683D01*
X005793Y041343D01*
X005906Y041343D02*
X005679Y041343D01*
X006047Y041399D02*
X006104Y041343D01*
X006218Y041343D01*
X006274Y041399D01*
X006274Y041456D01*
X006218Y041513D01*
X006161Y041513D01*
X006218Y041513D02*
X006274Y041569D01*
X006274Y041626D01*
X006218Y041683D01*
X006104Y041683D01*
X006047Y041626D01*
X006092Y042155D02*
X006092Y042495D01*
X006262Y042495D01*
X006319Y042439D01*
X006319Y042325D01*
X006262Y042268D01*
X006092Y042268D01*
X006206Y042268D02*
X006319Y042155D01*
X005951Y042155D02*
X005724Y042155D01*
X005724Y042495D01*
X005951Y042495D01*
X005837Y042325D02*
X005724Y042325D01*
X005582Y042495D02*
X005355Y042495D01*
X005469Y042495D02*
X005469Y042155D01*
X005101Y042155D02*
X005101Y042495D01*
X005214Y042495D02*
X004987Y042495D01*
X004855Y042495D02*
X004742Y042495D01*
X004798Y042495D02*
X004798Y042155D01*
X004742Y042155D02*
X004855Y042155D01*
X004600Y042155D02*
X004487Y042268D01*
X004543Y042268D02*
X004373Y042268D01*
X004373Y042155D02*
X004373Y042495D01*
X004543Y042495D01*
X004600Y042439D01*
X004600Y042325D01*
X004543Y042268D01*
X004232Y042212D02*
X004175Y042155D01*
X004062Y042155D01*
X004005Y042212D01*
X004005Y042439D01*
X004062Y042495D01*
X004175Y042495D01*
X004232Y042439D01*
X006829Y042439D02*
X006829Y042382D01*
X007056Y042155D01*
X007056Y042268D02*
X006942Y042155D01*
X006885Y042155D01*
X006829Y042212D01*
X006829Y042268D01*
X006942Y042382D01*
X006942Y042439D01*
X006885Y042495D01*
X006829Y042439D01*
X007565Y042439D02*
X007565Y042212D01*
X007622Y042155D01*
X007736Y042155D01*
X007792Y042212D01*
X007792Y042325D01*
X007679Y042325D01*
X007792Y042439D02*
X007736Y042495D01*
X007622Y042495D01*
X007565Y042439D01*
X007934Y042495D02*
X007934Y042212D01*
X007990Y042155D01*
X008104Y042155D01*
X008161Y042212D01*
X008161Y042495D01*
X008302Y042495D02*
X008415Y042495D01*
X008359Y042495D02*
X008359Y042155D01*
X008415Y042155D02*
X008302Y042155D01*
X008661Y042155D02*
X008661Y042495D01*
X008548Y042495D02*
X008774Y042495D01*
X008916Y042382D02*
X009029Y042495D01*
X009143Y042382D01*
X009143Y042155D01*
X009284Y042155D02*
X009284Y042495D01*
X009454Y042495D01*
X009511Y042439D01*
X009511Y042325D01*
X009454Y042268D01*
X009284Y042268D01*
X009398Y042268D02*
X009511Y042155D01*
X009652Y042155D02*
X009766Y042155D01*
X009709Y042155D02*
X009709Y042495D01*
X009652Y042495D02*
X009766Y042495D01*
X009143Y042325D02*
X008916Y042325D01*
X008916Y042382D02*
X008916Y042155D01*
X009029Y035270D02*
X008916Y035157D01*
X008916Y034930D01*
X008916Y035100D02*
X009143Y035100D01*
X009143Y035157D02*
X009143Y034930D01*
X009284Y034930D02*
X009284Y035270D01*
X009454Y035270D01*
X009511Y035214D01*
X009511Y035100D01*
X009454Y035043D01*
X009284Y035043D01*
X009398Y035043D02*
X009511Y034930D01*
X009652Y034930D02*
X009766Y034930D01*
X009709Y034930D02*
X009709Y035270D01*
X009652Y035270D02*
X009766Y035270D01*
X009143Y035157D02*
X009029Y035270D01*
X008774Y035270D02*
X008548Y035270D01*
X008661Y035270D02*
X008661Y034930D01*
X008415Y034930D02*
X008302Y034930D01*
X008359Y034930D02*
X008359Y035270D01*
X008415Y035270D02*
X008302Y035270D01*
X008161Y035270D02*
X008161Y034987D01*
X008104Y034930D01*
X007990Y034930D01*
X007934Y034987D01*
X007934Y035270D01*
X007792Y035214D02*
X007736Y035270D01*
X007622Y035270D01*
X007565Y035214D01*
X007565Y034987D01*
X007622Y034930D01*
X007736Y034930D01*
X007792Y034987D01*
X007792Y035100D01*
X007679Y035100D01*
X007056Y035043D02*
X006942Y034930D01*
X006885Y034930D01*
X006829Y034987D01*
X006829Y035043D01*
X006942Y035157D01*
X006942Y035214D01*
X006885Y035270D01*
X006829Y035214D01*
X006829Y035157D01*
X007056Y034930D01*
X006319Y034930D02*
X006206Y035043D01*
X006262Y035043D02*
X006092Y035043D01*
X006092Y034930D02*
X006092Y035270D01*
X006262Y035270D01*
X006319Y035214D01*
X006319Y035100D01*
X006262Y035043D01*
X005951Y034930D02*
X005724Y034930D01*
X005724Y035270D01*
X005951Y035270D01*
X005837Y035100D02*
X005724Y035100D01*
X005582Y035270D02*
X005355Y035270D01*
X005469Y035270D02*
X005469Y034930D01*
X005101Y034930D02*
X005101Y035270D01*
X005214Y035270D02*
X004987Y035270D01*
X004855Y035270D02*
X004742Y035270D01*
X004798Y035270D02*
X004798Y034930D01*
X004742Y034930D02*
X004855Y034930D01*
X004600Y034930D02*
X004487Y035043D01*
X004543Y035043D02*
X004373Y035043D01*
X004373Y034930D02*
X004373Y035270D01*
X004543Y035270D01*
X004600Y035214D01*
X004600Y035100D01*
X004543Y035043D01*
X004232Y034987D02*
X004175Y034930D01*
X004062Y034930D01*
X004005Y034987D01*
X004005Y035214D01*
X004062Y035270D01*
X004175Y035270D01*
X004232Y035214D01*
X004187Y034458D02*
X004130Y034401D01*
X004130Y034174D01*
X004187Y034118D01*
X004300Y034118D01*
X004357Y034174D01*
X004357Y034401D02*
X004300Y034458D01*
X004187Y034458D01*
X004942Y034401D02*
X004999Y034458D01*
X005113Y034458D01*
X005169Y034401D01*
X005169Y034344D01*
X004942Y034118D01*
X005169Y034118D01*
X005311Y034174D02*
X005538Y034401D01*
X005538Y034174D01*
X005481Y034118D01*
X005368Y034118D01*
X005311Y034174D01*
X005311Y034401D01*
X005368Y034458D01*
X005481Y034458D01*
X005538Y034401D01*
X005679Y034344D02*
X005793Y034458D01*
X005793Y034118D01*
X005906Y034118D02*
X005679Y034118D01*
X006047Y034174D02*
X006104Y034118D01*
X006218Y034118D01*
X006274Y034174D01*
X006274Y034231D01*
X006218Y034288D01*
X006161Y034288D01*
X006218Y034288D02*
X006274Y034344D01*
X006274Y034401D01*
X006218Y034458D01*
X006104Y034458D01*
X006047Y034401D01*
X006092Y028045D02*
X006262Y028045D01*
X006319Y027989D01*
X006319Y027875D01*
X006262Y027818D01*
X006092Y027818D01*
X006092Y027705D02*
X006092Y028045D01*
X005951Y028045D02*
X005724Y028045D01*
X005724Y027705D01*
X005951Y027705D01*
X005837Y027875D02*
X005724Y027875D01*
X005582Y028045D02*
X005355Y028045D01*
X005469Y028045D02*
X005469Y027705D01*
X005101Y027705D02*
X005101Y028045D01*
X005214Y028045D02*
X004987Y028045D01*
X004855Y028045D02*
X004742Y028045D01*
X004798Y028045D02*
X004798Y027705D01*
X004742Y027705D02*
X004855Y027705D01*
X004600Y027705D02*
X004487Y027818D01*
X004543Y027818D02*
X004373Y027818D01*
X004373Y027705D02*
X004373Y028045D01*
X004543Y028045D01*
X004600Y027989D01*
X004600Y027875D01*
X004543Y027818D01*
X004232Y027762D02*
X004175Y027705D01*
X004062Y027705D01*
X004005Y027762D01*
X004005Y027989D01*
X004062Y028045D01*
X004175Y028045D01*
X004232Y027989D01*
X004187Y027233D02*
X004130Y027176D01*
X004130Y026949D01*
X004187Y026893D01*
X004300Y026893D01*
X004357Y026949D01*
X004357Y027176D02*
X004300Y027233D01*
X004187Y027233D01*
X004942Y027176D02*
X004999Y027233D01*
X005113Y027233D01*
X005169Y027176D01*
X005169Y027119D01*
X004942Y026893D01*
X005169Y026893D01*
X005311Y026949D02*
X005538Y027176D01*
X005538Y026949D01*
X005481Y026893D01*
X005368Y026893D01*
X005311Y026949D01*
X005311Y027176D01*
X005368Y027233D01*
X005481Y027233D01*
X005538Y027176D01*
X005679Y027119D02*
X005793Y027233D01*
X005793Y026893D01*
X005906Y026893D02*
X005679Y026893D01*
X006047Y026949D02*
X006104Y026893D01*
X006218Y026893D01*
X006274Y026949D01*
X006274Y027006D01*
X006218Y027063D01*
X006161Y027063D01*
X006218Y027063D02*
X006274Y027119D01*
X006274Y027176D01*
X006218Y027233D01*
X006104Y027233D01*
X006047Y027176D01*
X006319Y027705D02*
X006206Y027818D01*
X006829Y027818D02*
X006942Y027932D01*
X006942Y027989D01*
X006885Y028045D01*
X006829Y027989D01*
X006829Y027932D01*
X007056Y027705D01*
X007056Y027818D02*
X006942Y027705D01*
X006885Y027705D01*
X006829Y027762D01*
X006829Y027818D01*
X007565Y027762D02*
X007622Y027705D01*
X007736Y027705D01*
X007792Y027762D01*
X007792Y027875D01*
X007679Y027875D01*
X007792Y027989D02*
X007736Y028045D01*
X007622Y028045D01*
X007565Y027989D01*
X007565Y027762D01*
X007934Y027762D02*
X007990Y027705D01*
X008104Y027705D01*
X008161Y027762D01*
X008161Y028045D01*
X008302Y028045D02*
X008415Y028045D01*
X008359Y028045D02*
X008359Y027705D01*
X008415Y027705D02*
X008302Y027705D01*
X008661Y027705D02*
X008661Y028045D01*
X008548Y028045D02*
X008774Y028045D01*
X008916Y027932D02*
X009029Y028045D01*
X009143Y027932D01*
X009143Y027705D01*
X009284Y027705D02*
X009284Y028045D01*
X009454Y028045D01*
X009511Y027989D01*
X009511Y027875D01*
X009454Y027818D01*
X009284Y027818D01*
X009398Y027818D02*
X009511Y027705D01*
X009652Y027705D02*
X009766Y027705D01*
X009709Y027705D02*
X009709Y028045D01*
X009652Y028045D02*
X009766Y028045D01*
X009143Y027875D02*
X008916Y027875D01*
X008916Y027932D02*
X008916Y027705D01*
X007934Y027762D02*
X007934Y028045D01*
X007934Y020820D02*
X007934Y020537D01*
X007990Y020480D01*
X008104Y020480D01*
X008161Y020537D01*
X008161Y020820D01*
X008302Y020820D02*
X008415Y020820D01*
X008359Y020820D02*
X008359Y020480D01*
X008415Y020480D02*
X008302Y020480D01*
X008661Y020480D02*
X008661Y020820D01*
X008548Y020820D02*
X008774Y020820D01*
X008916Y020707D02*
X009029Y020820D01*
X009143Y020707D01*
X009143Y020480D01*
X009284Y020480D02*
X009284Y020820D01*
X009454Y020820D01*
X009511Y020764D01*
X009511Y020650D01*
X009454Y020593D01*
X009284Y020593D01*
X009398Y020593D02*
X009511Y020480D01*
X009652Y020480D02*
X009766Y020480D01*
X009709Y020480D02*
X009709Y020820D01*
X009652Y020820D02*
X009766Y020820D01*
X009143Y020650D02*
X008916Y020650D01*
X008916Y020707D02*
X008916Y020480D01*
X007792Y020537D02*
X007792Y020650D01*
X007679Y020650D01*
X007792Y020537D02*
X007736Y020480D01*
X007622Y020480D01*
X007565Y020537D01*
X007565Y020764D01*
X007622Y020820D01*
X007736Y020820D01*
X007792Y020764D01*
X007056Y020593D02*
X006942Y020480D01*
X006885Y020480D01*
X006829Y020537D01*
X006829Y020593D01*
X006942Y020707D01*
X006942Y020764D01*
X006885Y020820D01*
X006829Y020764D01*
X006829Y020707D01*
X007056Y020480D01*
X006319Y020480D02*
X006206Y020593D01*
X006262Y020593D02*
X006092Y020593D01*
X006092Y020480D02*
X006092Y020820D01*
X006262Y020820D01*
X006319Y020764D01*
X006319Y020650D01*
X006262Y020593D01*
X005951Y020480D02*
X005724Y020480D01*
X005724Y020820D01*
X005951Y020820D01*
X005837Y020650D02*
X005724Y020650D01*
X005582Y020820D02*
X005355Y020820D01*
X005469Y020820D02*
X005469Y020480D01*
X005101Y020480D02*
X005101Y020820D01*
X005214Y020820D02*
X004987Y020820D01*
X004855Y020820D02*
X004742Y020820D01*
X004798Y020820D02*
X004798Y020480D01*
X004742Y020480D02*
X004855Y020480D01*
X004600Y020480D02*
X004487Y020593D01*
X004543Y020593D02*
X004373Y020593D01*
X004373Y020480D02*
X004373Y020820D01*
X004543Y020820D01*
X004600Y020764D01*
X004600Y020650D01*
X004543Y020593D01*
X004232Y020537D02*
X004175Y020480D01*
X004062Y020480D01*
X004005Y020537D01*
X004005Y020764D01*
X004062Y020820D01*
X004175Y020820D01*
X004232Y020764D01*
X004187Y020008D02*
X004130Y019951D01*
X004130Y019724D01*
X004187Y019668D01*
X004300Y019668D01*
X004357Y019724D01*
X004357Y019951D02*
X004300Y020008D01*
X004187Y020008D01*
X004942Y019951D02*
X004999Y020008D01*
X005113Y020008D01*
X005169Y019951D01*
X005169Y019894D01*
X004942Y019668D01*
X005169Y019668D01*
X005311Y019724D02*
X005538Y019951D01*
X005538Y019724D01*
X005481Y019668D01*
X005368Y019668D01*
X005311Y019724D01*
X005311Y019951D01*
X005368Y020008D01*
X005481Y020008D01*
X005538Y019951D01*
X005679Y019894D02*
X005793Y020008D01*
X005793Y019668D01*
X005906Y019668D02*
X005679Y019668D01*
X006047Y019724D02*
X006104Y019668D01*
X006218Y019668D01*
X006274Y019724D01*
X006274Y019781D01*
X006218Y019838D01*
X006161Y019838D01*
X006218Y019838D02*
X006274Y019894D01*
X006274Y019951D01*
X006218Y020008D01*
X006104Y020008D01*
X006047Y019951D01*
X006092Y013595D02*
X006262Y013595D01*
X006319Y013539D01*
X006319Y013425D01*
X006262Y013368D01*
X006092Y013368D01*
X006092Y013255D02*
X006092Y013595D01*
X005951Y013595D02*
X005724Y013595D01*
X005724Y013255D01*
X005951Y013255D01*
X005837Y013425D02*
X005724Y013425D01*
X005582Y013595D02*
X005355Y013595D01*
X005469Y013595D02*
X005469Y013255D01*
X005101Y013255D02*
X005101Y013595D01*
X005214Y013595D02*
X004987Y013595D01*
X004855Y013595D02*
X004742Y013595D01*
X004798Y013595D02*
X004798Y013255D01*
X004742Y013255D02*
X004855Y013255D01*
X004600Y013255D02*
X004487Y013368D01*
X004543Y013368D02*
X004373Y013368D01*
X004373Y013255D02*
X004373Y013595D01*
X004543Y013595D01*
X004600Y013539D01*
X004600Y013425D01*
X004543Y013368D01*
X004232Y013312D02*
X004175Y013255D01*
X004062Y013255D01*
X004005Y013312D01*
X004005Y013539D01*
X004062Y013595D01*
X004175Y013595D01*
X004232Y013539D01*
X004187Y012783D02*
X004130Y012726D01*
X004130Y012499D01*
X004187Y012443D01*
X004300Y012443D01*
X004357Y012499D01*
X004357Y012726D02*
X004300Y012783D01*
X004187Y012783D01*
X004942Y012726D02*
X004999Y012783D01*
X005113Y012783D01*
X005169Y012726D01*
X005169Y012669D01*
X004942Y012443D01*
X005169Y012443D01*
X005311Y012499D02*
X005538Y012726D01*
X005538Y012499D01*
X005481Y012443D01*
X005368Y012443D01*
X005311Y012499D01*
X005311Y012726D01*
X005368Y012783D01*
X005481Y012783D01*
X005538Y012726D01*
X005679Y012669D02*
X005793Y012783D01*
X005793Y012443D01*
X005906Y012443D02*
X005679Y012443D01*
X006047Y012499D02*
X006104Y012443D01*
X006218Y012443D01*
X006274Y012499D01*
X006274Y012556D01*
X006218Y012613D01*
X006161Y012613D01*
X006218Y012613D02*
X006274Y012669D01*
X006274Y012726D01*
X006218Y012783D01*
X006104Y012783D01*
X006047Y012726D01*
X006319Y013255D02*
X006206Y013368D01*
X006829Y013368D02*
X006942Y013482D01*
X006942Y013539D01*
X006885Y013595D01*
X006829Y013539D01*
X006829Y013482D01*
X007056Y013255D01*
X007056Y013368D02*
X006942Y013255D01*
X006885Y013255D01*
X006829Y013312D01*
X006829Y013368D01*
X007565Y013312D02*
X007622Y013255D01*
X007736Y013255D01*
X007792Y013312D01*
X007792Y013425D01*
X007679Y013425D01*
X007792Y013539D02*
X007736Y013595D01*
X007622Y013595D01*
X007565Y013539D01*
X007565Y013312D01*
X007934Y013312D02*
X007990Y013255D01*
X008104Y013255D01*
X008161Y013312D01*
X008161Y013595D01*
X008302Y013595D02*
X008415Y013595D01*
X008359Y013595D02*
X008359Y013255D01*
X008415Y013255D02*
X008302Y013255D01*
X008661Y013255D02*
X008661Y013595D01*
X008548Y013595D02*
X008774Y013595D01*
X008916Y013482D02*
X009029Y013595D01*
X009143Y013482D01*
X009143Y013255D01*
X009284Y013255D02*
X009284Y013595D01*
X009454Y013595D01*
X009511Y013539D01*
X009511Y013425D01*
X009454Y013368D01*
X009284Y013368D01*
X009398Y013368D02*
X009511Y013255D01*
X009652Y013255D02*
X009766Y013255D01*
X009709Y013255D02*
X009709Y013595D01*
X009652Y013595D02*
X009766Y013595D01*
X009143Y013425D02*
X008916Y013425D01*
X008916Y013482D02*
X008916Y013255D01*
X007934Y013312D02*
X007934Y013595D01*
X007934Y006370D02*
X007934Y006087D01*
X007990Y006030D01*
X008104Y006030D01*
X008161Y006087D01*
X008161Y006370D01*
X008302Y006370D02*
X008415Y006370D01*
X008359Y006370D02*
X008359Y006030D01*
X008415Y006030D02*
X008302Y006030D01*
X008661Y006030D02*
X008661Y006370D01*
X008548Y006370D02*
X008774Y006370D01*
X008916Y006257D02*
X009029Y006370D01*
X009143Y006257D01*
X009143Y006030D01*
X009284Y006030D02*
X009284Y006370D01*
X009454Y006370D01*
X009511Y006314D01*
X009511Y006200D01*
X009454Y006143D01*
X009284Y006143D01*
X009398Y006143D02*
X009511Y006030D01*
X009652Y006030D02*
X009766Y006030D01*
X009709Y006030D02*
X009709Y006370D01*
X009652Y006370D02*
X009766Y006370D01*
X009143Y006200D02*
X008916Y006200D01*
X008916Y006257D02*
X008916Y006030D01*
X007792Y006087D02*
X007792Y006200D01*
X007679Y006200D01*
X007792Y006087D02*
X007736Y006030D01*
X007622Y006030D01*
X007565Y006087D01*
X007565Y006314D01*
X007622Y006370D01*
X007736Y006370D01*
X007792Y006314D01*
X007056Y006143D02*
X006942Y006030D01*
X006885Y006030D01*
X006829Y006087D01*
X006829Y006143D01*
X006942Y006257D01*
X006942Y006314D01*
X006885Y006370D01*
X006829Y006314D01*
X006829Y006257D01*
X007056Y006030D01*
X006319Y006030D02*
X006206Y006143D01*
X006262Y006143D02*
X006092Y006143D01*
X006092Y006030D02*
X006092Y006370D01*
X006262Y006370D01*
X006319Y006314D01*
X006319Y006200D01*
X006262Y006143D01*
X005951Y006030D02*
X005724Y006030D01*
X005724Y006370D01*
X005951Y006370D01*
X005837Y006200D02*
X005724Y006200D01*
X005582Y006370D02*
X005355Y006370D01*
X005469Y006370D02*
X005469Y006030D01*
X005101Y006030D02*
X005101Y006370D01*
X005214Y006370D02*
X004987Y006370D01*
X004855Y006370D02*
X004742Y006370D01*
X004798Y006370D02*
X004798Y006030D01*
X004742Y006030D02*
X004855Y006030D01*
X004600Y006030D02*
X004487Y006143D01*
X004543Y006143D02*
X004373Y006143D01*
X004373Y006030D02*
X004373Y006370D01*
X004543Y006370D01*
X004600Y006314D01*
X004600Y006200D01*
X004543Y006143D01*
X004232Y006087D02*
X004175Y006030D01*
X004062Y006030D01*
X004005Y006087D01*
X004005Y006314D01*
X004062Y006370D01*
X004175Y006370D01*
X004232Y006314D01*
X004187Y005558D02*
X004130Y005501D01*
X004130Y005274D01*
X004187Y005218D01*
X004300Y005218D01*
X004357Y005274D01*
X004357Y005501D02*
X004300Y005558D01*
X004187Y005558D01*
X004942Y005501D02*
X004999Y005558D01*
X005113Y005558D01*
X005169Y005501D01*
X005169Y005444D01*
X004942Y005218D01*
X005169Y005218D01*
X005311Y005274D02*
X005538Y005501D01*
X005538Y005274D01*
X005481Y005218D01*
X005368Y005218D01*
X005311Y005274D01*
X005311Y005501D01*
X005368Y005558D01*
X005481Y005558D01*
X005538Y005501D01*
X005679Y005444D02*
X005793Y005558D01*
X005793Y005218D01*
X005906Y005218D02*
X005679Y005218D01*
X006047Y005274D02*
X006104Y005218D01*
X006218Y005218D01*
X006274Y005274D01*
X006274Y005331D01*
X006218Y005388D01*
X006161Y005388D01*
X006218Y005388D02*
X006274Y005444D01*
X006274Y005501D01*
X006218Y005558D01*
X006104Y005558D01*
X006047Y005501D01*
D16*
X001347Y001198D02*
X001298Y001247D01*
X001259Y001303D01*
X001230Y001365D01*
X001212Y001432D01*
X001206Y001500D01*
X001212Y001568D01*
X001230Y001635D01*
X001259Y001697D01*
X001298Y001753D01*
X001347Y001802D01*
X001403Y001841D01*
X001465Y001870D01*
X001532Y001888D01*
X001600Y001894D01*
X001668Y001888D01*
X001735Y001870D01*
X001797Y001841D01*
X001853Y001802D01*
X001902Y001753D01*
X001941Y001697D01*
X001970Y001635D01*
X001988Y001568D01*
X001994Y001500D01*
X001988Y001432D01*
X001970Y001365D01*
X001941Y001303D01*
X001902Y001247D01*
X001853Y001198D01*
X001797Y001159D01*
X001735Y001130D01*
X001668Y001112D01*
X001600Y001106D01*
X001532Y001112D01*
X001465Y001130D01*
X001403Y001159D01*
X001347Y001198D01*
X001375Y001179D02*
X001825Y001179D01*
X001882Y001228D02*
X001318Y001228D01*
X001278Y001276D02*
X001922Y001276D01*
X001951Y001325D02*
X001249Y001325D01*
X001228Y001373D02*
X001972Y001373D01*
X001985Y001422D02*
X001215Y001422D01*
X001209Y001470D02*
X001991Y001470D01*
X001992Y001519D02*
X001208Y001519D01*
X001212Y001567D02*
X001988Y001567D01*
X001975Y001616D02*
X001225Y001616D01*
X001244Y001664D02*
X001956Y001664D01*
X001930Y001713D02*
X001270Y001713D01*
X001306Y001761D02*
X001894Y001761D01*
X001842Y001810D02*
X001358Y001810D01*
X001440Y001858D02*
X001760Y001858D01*
X001736Y001131D02*
X001464Y001131D01*
X010855Y004115D02*
X010884Y004053D01*
X010923Y003997D01*
X010972Y003948D01*
X011028Y003909D01*
X011090Y003880D01*
X011157Y003862D01*
X011225Y003856D01*
X011293Y003862D01*
X011360Y003880D01*
X011422Y003909D01*
X011478Y003948D01*
X011527Y003997D01*
X011566Y004053D01*
X011595Y004115D01*
X011613Y004182D01*
X011619Y004250D01*
X011613Y004318D01*
X011595Y004385D01*
X011566Y004447D01*
X011527Y004503D01*
X011478Y004552D01*
X011422Y004591D01*
X011360Y004620D01*
X011293Y004638D01*
X011225Y004644D01*
X011157Y004638D01*
X011090Y004620D01*
X011028Y004591D01*
X010972Y004552D01*
X010923Y004503D01*
X010884Y004447D01*
X010855Y004385D01*
X010837Y004318D01*
X010831Y004250D01*
X010837Y004182D01*
X010855Y004115D01*
X010849Y004138D02*
X011601Y004138D01*
X011613Y004186D02*
X010837Y004186D01*
X010833Y004235D02*
X011617Y004235D01*
X011616Y004283D02*
X010834Y004283D01*
X010841Y004332D02*
X011609Y004332D01*
X011596Y004380D02*
X010854Y004380D01*
X010875Y004429D02*
X011575Y004429D01*
X011545Y004477D02*
X010905Y004477D01*
X010946Y004526D02*
X011504Y004526D01*
X011446Y004574D02*
X011004Y004574D01*
X011100Y004623D02*
X011350Y004623D01*
X011583Y004089D02*
X010867Y004089D01*
X010893Y004041D02*
X011557Y004041D01*
X011522Y003992D02*
X010928Y003992D01*
X010979Y003944D02*
X011471Y003944D01*
X011392Y003895D02*
X011058Y003895D01*
X011225Y011081D02*
X011157Y011087D01*
X011090Y011105D01*
X011028Y011134D01*
X010972Y011173D01*
X010923Y011222D01*
X010884Y011278D01*
X010855Y011340D01*
X010837Y011407D01*
X010831Y011475D01*
X010837Y011543D01*
X010855Y011610D01*
X010884Y011672D01*
X010923Y011728D01*
X010972Y011777D01*
X011028Y011816D01*
X011090Y011845D01*
X011157Y011863D01*
X011225Y011869D01*
X011293Y011863D01*
X011360Y011845D01*
X011422Y011816D01*
X011478Y011777D01*
X011527Y011728D01*
X011566Y011672D01*
X011595Y011610D01*
X011613Y011543D01*
X011619Y011475D01*
X011613Y011407D01*
X011595Y011340D01*
X011566Y011278D01*
X011527Y011222D01*
X011478Y011173D01*
X011422Y011134D01*
X011360Y011105D01*
X011293Y011087D01*
X011225Y011081D01*
X011055Y011122D02*
X011395Y011122D01*
X011473Y011170D02*
X010977Y011170D01*
X010927Y011219D02*
X011523Y011219D01*
X011558Y011267D02*
X010892Y011267D01*
X010867Y011316D02*
X011583Y011316D01*
X011601Y011364D02*
X010849Y011364D01*
X010837Y011413D02*
X011613Y011413D01*
X011617Y011461D02*
X010833Y011461D01*
X010834Y011510D02*
X011616Y011510D01*
X011609Y011558D02*
X010841Y011558D01*
X010854Y011607D02*
X011596Y011607D01*
X011574Y011655D02*
X010876Y011655D01*
X010906Y011704D02*
X011544Y011704D01*
X011503Y011752D02*
X010947Y011752D01*
X011006Y011801D02*
X011444Y011801D01*
X011344Y011849D02*
X011106Y011849D01*
X011225Y018306D02*
X011157Y018312D01*
X011090Y018330D01*
X011028Y018359D01*
X010972Y018398D01*
X010923Y018447D01*
X010884Y018503D01*
X010855Y018565D01*
X010837Y018632D01*
X010831Y018700D01*
X010837Y018768D01*
X010855Y018835D01*
X010884Y018897D01*
X010923Y018953D01*
X010972Y019002D01*
X011028Y019041D01*
X011090Y019070D01*
X011157Y019088D01*
X011225Y019094D01*
X011293Y019088D01*
X011360Y019070D01*
X011422Y019041D01*
X011478Y019002D01*
X011527Y018953D01*
X011566Y018897D01*
X011595Y018835D01*
X011613Y018768D01*
X011619Y018700D01*
X011613Y018632D01*
X011595Y018565D01*
X011566Y018503D01*
X011527Y018447D01*
X011478Y018398D01*
X011422Y018359D01*
X011360Y018330D01*
X011293Y018312D01*
X011225Y018306D01*
X011052Y018348D02*
X011398Y018348D01*
X011475Y018397D02*
X010975Y018397D01*
X010925Y018445D02*
X011525Y018445D01*
X011559Y018494D02*
X010891Y018494D01*
X010866Y018542D02*
X011584Y018542D01*
X011602Y018591D02*
X010848Y018591D01*
X010837Y018639D02*
X011613Y018639D01*
X011618Y018688D02*
X010832Y018688D01*
X010834Y018736D02*
X011616Y018736D01*
X011608Y018785D02*
X010842Y018785D01*
X010855Y018833D02*
X011595Y018833D01*
X011573Y018882D02*
X010877Y018882D01*
X010907Y018930D02*
X011543Y018930D01*
X011501Y018979D02*
X010949Y018979D01*
X011008Y019027D02*
X011442Y019027D01*
X011339Y019076D02*
X011111Y019076D01*
X011225Y025531D02*
X011157Y025537D01*
X011090Y025555D01*
X011028Y025584D01*
X010972Y025623D01*
X011478Y025623D01*
X011527Y025672D01*
X011566Y025728D01*
X011595Y025790D01*
X011613Y025857D01*
X011619Y025925D01*
X011613Y025993D01*
X011595Y026060D01*
X011566Y026122D01*
X011527Y026178D01*
X011478Y026227D01*
X011422Y026266D01*
X011360Y026295D01*
X011293Y026313D01*
X011225Y026319D01*
X011157Y026313D01*
X011090Y026295D01*
X011028Y026266D01*
X010972Y026227D01*
X010923Y026178D01*
X010884Y026122D01*
X010855Y026060D01*
X010837Y025993D01*
X010831Y025925D01*
X010837Y025857D01*
X010855Y025790D01*
X010884Y025728D01*
X010923Y025672D01*
X010972Y025623D01*
X010924Y025672D02*
X011526Y025672D01*
X011560Y025720D02*
X010890Y025720D01*
X010865Y025769D02*
X011585Y025769D01*
X011602Y025817D02*
X010848Y025817D01*
X010836Y025866D02*
X011614Y025866D01*
X011618Y025914D02*
X010832Y025914D01*
X010835Y025963D02*
X011615Y025963D01*
X011608Y026011D02*
X010842Y026011D01*
X010855Y026060D02*
X011595Y026060D01*
X011572Y026108D02*
X010878Y026108D01*
X010908Y026157D02*
X011542Y026157D01*
X011500Y026205D02*
X010950Y026205D01*
X011011Y026254D02*
X011439Y026254D01*
X011333Y026302D02*
X011117Y026302D01*
X011048Y025575D02*
X011402Y025575D01*
X011422Y025584D02*
X011478Y025623D01*
X011422Y025584D02*
X011360Y025555D01*
X011293Y025537D01*
X011225Y025531D01*
X011225Y032756D02*
X011157Y032762D01*
X011090Y032780D01*
X011028Y032809D01*
X010972Y032848D01*
X010923Y032897D01*
X010884Y032953D01*
X010855Y033015D01*
X010837Y033082D01*
X010831Y033150D01*
X010837Y033218D01*
X010855Y033285D01*
X010884Y033347D01*
X010923Y033403D01*
X010972Y033452D01*
X011028Y033491D01*
X011090Y033520D01*
X011157Y033538D01*
X011225Y033544D01*
X011293Y033538D01*
X011360Y033520D01*
X011422Y033491D01*
X011478Y033452D01*
X011527Y033403D01*
X011566Y033347D01*
X011595Y033285D01*
X011613Y033218D01*
X011619Y033150D01*
X011613Y033082D01*
X011595Y033015D01*
X011566Y032953D01*
X011527Y032897D01*
X011478Y032848D01*
X011422Y032809D01*
X011360Y032780D01*
X011293Y032762D01*
X011225Y032756D01*
X011045Y032801D02*
X011405Y032801D01*
X011479Y032850D02*
X010971Y032850D01*
X010923Y032898D02*
X011527Y032898D01*
X011561Y032947D02*
X010889Y032947D01*
X010864Y032995D02*
X011586Y032995D01*
X011603Y033044D02*
X010847Y033044D01*
X010836Y033092D02*
X011614Y033092D01*
X011618Y033141D02*
X010832Y033141D01*
X010835Y033189D02*
X011615Y033189D01*
X011608Y033238D02*
X010842Y033238D01*
X010856Y033286D02*
X011594Y033286D01*
X011572Y033335D02*
X010878Y033335D01*
X010909Y033383D02*
X011541Y033383D01*
X011498Y033432D02*
X010952Y033432D01*
X011013Y033480D02*
X011437Y033480D01*
X011327Y033529D02*
X011123Y033529D01*
X011225Y039981D02*
X011157Y039987D01*
X011090Y040005D01*
X011028Y040034D01*
X010972Y040073D01*
X010923Y040122D01*
X010884Y040178D01*
X010855Y040240D01*
X010837Y040307D01*
X010831Y040375D01*
X010837Y040443D01*
X010855Y040510D01*
X010884Y040572D01*
X010923Y040628D01*
X010972Y040677D01*
X011028Y040716D01*
X011090Y040745D01*
X011157Y040763D01*
X011225Y040769D01*
X011293Y040763D01*
X011360Y040745D01*
X011422Y040716D01*
X011478Y040677D01*
X011527Y040628D01*
X011566Y040572D01*
X011595Y040510D01*
X011613Y040443D01*
X011619Y040375D01*
X011613Y040307D01*
X011595Y040240D01*
X011566Y040178D01*
X011527Y040122D01*
X011478Y040073D01*
X011422Y040034D01*
X011360Y040005D01*
X011293Y039987D01*
X011225Y039981D01*
X011042Y040028D02*
X011408Y040028D01*
X011481Y040076D02*
X010969Y040076D01*
X010921Y040125D02*
X011529Y040125D01*
X011562Y040173D02*
X010888Y040173D01*
X010864Y040222D02*
X011586Y040222D01*
X011603Y040270D02*
X010847Y040270D01*
X010836Y040319D02*
X011614Y040319D01*
X011618Y040367D02*
X010832Y040367D01*
X010835Y040416D02*
X011615Y040416D01*
X011607Y040464D02*
X010843Y040464D01*
X010856Y040513D02*
X011594Y040513D01*
X011571Y040561D02*
X010879Y040561D01*
X010911Y040610D02*
X011539Y040610D01*
X011496Y040658D02*
X010954Y040658D01*
X011015Y040707D02*
X011435Y040707D01*
X011321Y040755D02*
X011129Y040755D01*
X001988Y042432D02*
X001994Y042500D01*
X001988Y042568D01*
X001970Y042635D01*
X001941Y042697D01*
X001902Y042753D01*
X001853Y042802D01*
X001797Y042841D01*
X001735Y042870D01*
X001668Y042888D01*
X001600Y042894D01*
X001532Y042888D01*
X001465Y042870D01*
X001403Y042841D01*
X001347Y042802D01*
X001298Y042753D01*
X001259Y042697D01*
X001230Y042635D01*
X001212Y042568D01*
X001206Y042500D01*
X001212Y042432D01*
X001230Y042365D01*
X001259Y042303D01*
X001298Y042247D01*
X001347Y042198D01*
X001403Y042159D01*
X001465Y042130D01*
X001532Y042112D01*
X001600Y042106D01*
X001668Y042112D01*
X001735Y042130D01*
X001797Y042159D01*
X001853Y042198D01*
X001902Y042247D01*
X001941Y042303D01*
X001970Y042365D01*
X001988Y042432D01*
X001990Y042453D02*
X001210Y042453D01*
X001206Y042501D02*
X001994Y042501D01*
X001989Y042550D02*
X001211Y042550D01*
X001220Y042598D02*
X001980Y042598D01*
X001964Y042647D02*
X001236Y042647D01*
X001258Y042695D02*
X001942Y042695D01*
X001908Y042744D02*
X001292Y042744D01*
X001338Y042792D02*
X001862Y042792D01*
X001797Y042841D02*
X001403Y042841D01*
X001549Y042889D02*
X001651Y042889D01*
X001980Y042404D02*
X001220Y042404D01*
X001235Y042356D02*
X001965Y042356D01*
X001943Y042307D02*
X001257Y042307D01*
X001290Y042259D02*
X001910Y042259D01*
X001865Y042210D02*
X001335Y042210D01*
X001399Y042162D02*
X001801Y042162D01*
X001672Y042113D02*
X001528Y042113D01*
X060706Y041750D02*
X060712Y041818D01*
X060730Y041885D01*
X060759Y041947D01*
X060798Y042003D01*
X060847Y042052D01*
X060903Y042091D01*
X060965Y042120D01*
X061032Y042138D01*
X061100Y042144D01*
X061168Y042138D01*
X061235Y042120D01*
X061297Y042091D01*
X061353Y042052D01*
X061402Y042003D01*
X061441Y041947D01*
X061470Y041885D01*
X061488Y041818D01*
X061494Y041750D01*
X061488Y041682D01*
X061470Y041615D01*
X061441Y041553D01*
X061402Y041497D01*
X061353Y041448D01*
X061297Y041409D01*
X061235Y041380D01*
X061168Y041362D01*
X061100Y041356D01*
X061032Y041362D01*
X060965Y041380D01*
X060903Y041409D01*
X060847Y041448D01*
X060798Y041497D01*
X060759Y041553D01*
X060730Y041615D01*
X060712Y041682D01*
X060706Y041750D01*
X060708Y041774D02*
X061492Y041774D01*
X061487Y041822D02*
X060713Y041822D01*
X060726Y041871D02*
X061474Y041871D01*
X061454Y041919D02*
X060746Y041919D01*
X060774Y041968D02*
X061426Y041968D01*
X061388Y042016D02*
X060812Y042016D01*
X060866Y042065D02*
X061334Y042065D01*
X061249Y042113D02*
X060951Y042113D01*
X060708Y041725D02*
X061492Y041725D01*
X061486Y041677D02*
X060714Y041677D01*
X060727Y041628D02*
X061473Y041628D01*
X061453Y041580D02*
X060747Y041580D01*
X060774Y041531D02*
X061426Y041531D01*
X061387Y041483D02*
X060813Y041483D01*
X060867Y041434D02*
X061333Y041434D01*
X061247Y041386D02*
X060953Y041386D01*
X061100Y034919D02*
X061032Y034913D01*
X060965Y034895D01*
X060903Y034866D01*
X060847Y034827D01*
X060798Y034778D01*
X060759Y034722D01*
X060730Y034660D01*
X060712Y034593D01*
X060706Y034525D01*
X060712Y034457D01*
X060730Y034390D01*
X060759Y034328D01*
X060798Y034272D01*
X060847Y034223D01*
X060903Y034184D01*
X060965Y034155D01*
X061032Y034137D01*
X061100Y034131D01*
X061168Y034137D01*
X061235Y034155D01*
X061297Y034184D01*
X061353Y034223D01*
X061402Y034272D01*
X061441Y034328D01*
X061470Y034390D01*
X061488Y034457D01*
X061494Y034525D01*
X061488Y034593D01*
X061470Y034660D01*
X061441Y034722D01*
X061402Y034778D01*
X061353Y034827D01*
X061297Y034866D01*
X061235Y034895D01*
X061168Y034913D01*
X061100Y034919D01*
X060948Y034887D02*
X061252Y034887D01*
X061337Y034838D02*
X060863Y034838D01*
X060810Y034790D02*
X061390Y034790D01*
X061427Y034741D02*
X060773Y034741D01*
X060745Y034693D02*
X061455Y034693D01*
X061474Y034644D02*
X060726Y034644D01*
X060713Y034596D02*
X061487Y034596D01*
X061492Y034547D02*
X060708Y034547D01*
X060709Y034499D02*
X061491Y034499D01*
X061486Y034450D02*
X060714Y034450D01*
X060727Y034402D02*
X061473Y034402D01*
X061453Y034353D02*
X060747Y034353D01*
X060775Y034305D02*
X061425Y034305D01*
X061386Y034256D02*
X060814Y034256D01*
X060869Y034208D02*
X061331Y034208D01*
X061244Y034159D02*
X060956Y034159D01*
X061100Y027694D02*
X061032Y027688D01*
X060965Y027670D01*
X060903Y027641D01*
X060847Y027602D01*
X060798Y027553D01*
X060759Y027497D01*
X060730Y027435D01*
X060712Y027368D01*
X060706Y027300D01*
X060712Y027232D01*
X060730Y027165D01*
X060759Y027103D01*
X060798Y027047D01*
X060847Y026998D01*
X060903Y026959D01*
X060965Y026930D01*
X061032Y026912D01*
X061100Y026906D01*
X061168Y026912D01*
X061235Y026930D01*
X061297Y026959D01*
X061353Y026998D01*
X061402Y027047D01*
X061441Y027103D01*
X061470Y027165D01*
X061488Y027232D01*
X061494Y027300D01*
X061488Y027368D01*
X061470Y027435D01*
X061441Y027497D01*
X061402Y027553D01*
X061353Y027602D01*
X061297Y027641D01*
X061235Y027670D01*
X061168Y027688D01*
X061100Y027694D01*
X060944Y027660D02*
X061256Y027660D01*
X061339Y027612D02*
X060861Y027612D01*
X060808Y027563D02*
X061392Y027563D01*
X061429Y027515D02*
X060771Y027515D01*
X060745Y027466D02*
X061455Y027466D01*
X061475Y027418D02*
X060725Y027418D01*
X060712Y027369D02*
X061488Y027369D01*
X061492Y027321D02*
X060708Y027321D01*
X060709Y027272D02*
X061491Y027272D01*
X061486Y027224D02*
X060714Y027224D01*
X060727Y027175D02*
X061473Y027175D01*
X061452Y027127D02*
X060748Y027127D01*
X060777Y027078D02*
X061423Y027078D01*
X061384Y027030D02*
X060816Y027030D01*
X060872Y026981D02*
X061328Y026981D01*
X061240Y026933D02*
X060960Y026933D01*
X061100Y020469D02*
X061032Y020463D01*
X060965Y020445D01*
X060903Y020416D01*
X060847Y020377D01*
X060798Y020328D01*
X060759Y020272D01*
X060730Y020210D01*
X060712Y020143D01*
X061488Y020143D01*
X061470Y020210D01*
X061441Y020272D01*
X061402Y020328D01*
X061353Y020377D01*
X061297Y020416D01*
X061235Y020445D01*
X061168Y020463D01*
X061100Y020469D01*
X060941Y020434D02*
X061259Y020434D01*
X061341Y020385D02*
X060859Y020385D01*
X060807Y020337D02*
X061393Y020337D01*
X061430Y020288D02*
X060770Y020288D01*
X060744Y020240D02*
X061456Y020240D01*
X061475Y020191D02*
X060725Y020191D01*
X060712Y020143D02*
X060706Y020075D01*
X060712Y020007D01*
X060730Y019940D01*
X060759Y019878D01*
X060798Y019822D01*
X060847Y019773D01*
X060903Y019734D01*
X060965Y019705D01*
X061032Y019687D01*
X061100Y019681D01*
X061168Y019687D01*
X061235Y019705D01*
X061297Y019734D01*
X061353Y019773D01*
X061402Y019822D01*
X061441Y019878D01*
X061470Y019940D01*
X061488Y020007D01*
X061494Y020075D01*
X061488Y020143D01*
X061492Y020094D02*
X060708Y020094D01*
X060709Y020046D02*
X061491Y020046D01*
X061485Y019997D02*
X060715Y019997D01*
X060728Y019949D02*
X061472Y019949D01*
X061451Y019900D02*
X060749Y019900D01*
X060778Y019852D02*
X061422Y019852D01*
X061383Y019803D02*
X060817Y019803D01*
X060874Y019755D02*
X061326Y019755D01*
X061237Y019706D02*
X060963Y019706D01*
X061100Y013244D02*
X061032Y013238D01*
X060965Y013220D01*
X060903Y013191D01*
X060847Y013152D01*
X060798Y013103D01*
X060759Y013047D01*
X060730Y012985D01*
X060712Y012918D01*
X060706Y012850D01*
X060712Y012782D01*
X060730Y012715D01*
X060759Y012653D01*
X060798Y012597D01*
X060847Y012548D01*
X060903Y012509D01*
X060965Y012480D01*
X061032Y012462D01*
X061100Y012456D01*
X061168Y012462D01*
X061235Y012480D01*
X061297Y012509D01*
X061353Y012548D01*
X061402Y012597D01*
X061441Y012653D01*
X061470Y012715D01*
X061488Y012782D01*
X061494Y012850D01*
X061488Y012918D01*
X061470Y012985D01*
X061441Y013047D01*
X061402Y013103D01*
X061353Y013152D01*
X061297Y013191D01*
X061235Y013220D01*
X061168Y013238D01*
X061100Y013244D01*
X060938Y013207D02*
X061262Y013207D01*
X061343Y013159D02*
X060857Y013159D01*
X060805Y013110D02*
X061395Y013110D01*
X061431Y013062D02*
X060769Y013062D01*
X060743Y013013D02*
X061457Y013013D01*
X061475Y012965D02*
X060725Y012965D01*
X060712Y012916D02*
X061488Y012916D01*
X061492Y012868D02*
X060708Y012868D01*
X060709Y012819D02*
X061491Y012819D01*
X061485Y012771D02*
X060715Y012771D01*
X060728Y012722D02*
X061472Y012722D01*
X061450Y012674D02*
X060750Y012674D01*
X060779Y012625D02*
X061421Y012625D01*
X061381Y012577D02*
X060819Y012577D01*
X060876Y012528D02*
X061324Y012528D01*
X061233Y012480D02*
X060967Y012480D01*
X061100Y006019D02*
X061032Y006013D01*
X060965Y005995D01*
X060903Y005966D01*
X060847Y005927D01*
X060798Y005878D01*
X060759Y005822D01*
X060730Y005760D01*
X060712Y005693D01*
X060706Y005625D01*
X060712Y005557D01*
X060730Y005490D01*
X060759Y005428D01*
X060798Y005372D01*
X060847Y005323D01*
X060903Y005284D01*
X060965Y005255D01*
X061032Y005237D01*
X061100Y005231D01*
X061168Y005237D01*
X061235Y005255D01*
X061297Y005284D01*
X061353Y005323D01*
X061402Y005372D01*
X061441Y005428D01*
X061470Y005490D01*
X061488Y005557D01*
X061494Y005625D01*
X061488Y005693D01*
X061470Y005760D01*
X061441Y005822D01*
X061402Y005878D01*
X061353Y005927D01*
X061297Y005966D01*
X061235Y005995D01*
X061168Y006013D01*
X061100Y006019D01*
X060934Y005981D02*
X061266Y005981D01*
X061345Y005932D02*
X060855Y005932D01*
X060804Y005884D02*
X061396Y005884D01*
X061432Y005835D02*
X060768Y005835D01*
X060743Y005787D02*
X061457Y005787D01*
X061476Y005738D02*
X060724Y005738D01*
X060712Y005690D02*
X061488Y005690D01*
X061492Y005641D02*
X060708Y005641D01*
X060709Y005593D02*
X061491Y005593D01*
X061484Y005544D02*
X060716Y005544D01*
X060729Y005496D02*
X061471Y005496D01*
X061450Y005447D02*
X060750Y005447D01*
X060780Y005399D02*
X061420Y005399D01*
X061380Y005350D02*
X060820Y005350D01*
X060878Y005302D02*
X061322Y005302D01*
X061227Y005253D02*
X060973Y005253D01*
X073230Y001635D02*
X073212Y001568D01*
X073206Y001500D01*
X073212Y001432D01*
X073230Y001365D01*
X073259Y001303D01*
X073298Y001247D01*
X073347Y001198D01*
X073403Y001159D01*
X073465Y001130D01*
X073532Y001112D01*
X073600Y001106D01*
X073668Y001112D01*
X073735Y001130D01*
X073797Y001159D01*
X073853Y001198D01*
X073902Y001247D01*
X073941Y001303D01*
X073970Y001365D01*
X073988Y001432D01*
X073994Y001500D01*
X073988Y001568D01*
X073970Y001635D01*
X073941Y001697D01*
X073902Y001753D01*
X073853Y001802D01*
X073797Y001841D01*
X073735Y001870D01*
X073668Y001888D01*
X073600Y001894D01*
X073532Y001888D01*
X073465Y001870D01*
X073403Y001841D01*
X073347Y001802D01*
X073298Y001753D01*
X073259Y001697D01*
X073230Y001635D01*
X073225Y001616D02*
X073975Y001616D01*
X073988Y001567D02*
X073212Y001567D01*
X073208Y001519D02*
X073992Y001519D01*
X073991Y001470D02*
X073209Y001470D01*
X073215Y001422D02*
X073985Y001422D01*
X073972Y001373D02*
X073228Y001373D01*
X073249Y001325D02*
X073951Y001325D01*
X073922Y001276D02*
X073278Y001276D01*
X073318Y001228D02*
X073882Y001228D01*
X073825Y001179D02*
X073375Y001179D01*
X073464Y001131D02*
X073736Y001131D01*
X073956Y001664D02*
X073244Y001664D01*
X073270Y001713D02*
X073930Y001713D01*
X073894Y001761D02*
X073306Y001761D01*
X073358Y001810D02*
X073842Y001810D01*
X073760Y001858D02*
X073440Y001858D01*
X073600Y042106D02*
X073668Y042112D01*
X073735Y042130D01*
X073797Y042159D01*
X073853Y042198D01*
X073902Y042247D01*
X073941Y042303D01*
X073970Y042365D01*
X073988Y042432D01*
X073994Y042500D01*
X073988Y042568D01*
X073970Y042635D01*
X073941Y042697D01*
X073902Y042753D01*
X073853Y042802D01*
X073797Y042841D01*
X073735Y042870D01*
X073668Y042888D01*
X073600Y042894D01*
X073532Y042888D01*
X073465Y042870D01*
X073403Y042841D01*
X073347Y042802D01*
X073298Y042753D01*
X073259Y042697D01*
X073230Y042635D01*
X073212Y042568D01*
X073206Y042500D01*
X073212Y042432D01*
X073230Y042365D01*
X073259Y042303D01*
X073298Y042247D01*
X073347Y042198D01*
X073403Y042159D01*
X073465Y042130D01*
X073532Y042112D01*
X073600Y042106D01*
X073528Y042113D02*
X073672Y042113D01*
X073801Y042162D02*
X073399Y042162D01*
X073335Y042210D02*
X073865Y042210D01*
X073910Y042259D02*
X073290Y042259D01*
X073257Y042307D02*
X073943Y042307D01*
X073965Y042356D02*
X073235Y042356D01*
X073220Y042404D02*
X073980Y042404D01*
X073990Y042453D02*
X073210Y042453D01*
X073206Y042501D02*
X073994Y042501D01*
X073989Y042550D02*
X073211Y042550D01*
X073220Y042598D02*
X073980Y042598D01*
X073964Y042647D02*
X073236Y042647D01*
X073258Y042695D02*
X073942Y042695D01*
X073908Y042744D02*
X073292Y042744D01*
X073338Y042792D02*
X073862Y042792D01*
X073797Y042841D02*
X073403Y042841D01*
X073549Y042889D02*
X073651Y042889D01*
M02*
