%
M48
M72
T01C0.0400
T02C0.0433
T03C0.0512
T04C0.0520
%
T01
X33100Y3325
X34100Y3425
X35100Y3325
X36100Y3425
X37100Y3325
X38100Y3425
X38100Y5425
X37100Y5325
X36100Y5425
X35100Y5325
X34100Y5425
X33100Y5325
X33100Y10550
X34100Y10650
X35100Y10550
X36100Y10650
X37100Y10550
X38100Y10650
X38100Y12650
X37100Y12550
X36100Y12650
X35100Y12550
X34100Y12650
X33100Y12550
X33100Y17775
X34100Y17875
X35100Y17775
X36100Y17875
X37100Y17775
X38100Y17875
X38100Y19875
X37100Y19775
X36100Y19875
X35100Y19775
X34100Y19875
X33100Y19775
X33100Y25000
X34100Y25100
X35100Y25000
X36100Y25100
X37100Y25000
X38100Y25100
X38100Y27100
X37100Y27000
X36100Y27100
X35100Y27000
X34100Y27100
X33100Y27000
X33100Y32225
X34100Y32325
X35100Y32225
X36100Y32325
X37100Y32225
X38100Y32325
X38100Y34325
X37100Y34225
X36100Y34325
X35100Y34225
X34100Y34325
X33100Y34225
X33100Y39450
X34100Y39550
X35100Y39450
X36100Y39550
X37100Y39450
X38100Y39550
X38100Y41550
X37100Y41450
X36100Y41550
X35100Y41450
X34100Y41550
X33100Y41450
T02
X4350Y1445
X4350Y2941
X8051Y2941
X8051Y1445
X8051Y8670
X8051Y10166
X4350Y10166
X4350Y8670
X4350Y15895
X4350Y17391
X8051Y17391
X8051Y15895
X8051Y23120
X8051Y24616
X4350Y24616
X4350Y23120
X4350Y30345
X4350Y31841
X8051Y31841
X8051Y30345
X8051Y37570
X8051Y39066
X4350Y39066
X4350Y37570
X39850Y37570
X39850Y39066
X43551Y39066
X43551Y37570
X48850Y37570
X48850Y39066
X52551Y39066
X52551Y37570
X57850Y37570
X57850Y39066
X61551Y39066
X61551Y37570
X66850Y37570
X66850Y39066
X70551Y39066
X70551Y37570
X70551Y31841
X70551Y30345
X66850Y30345
X66850Y31841
X61551Y31841
X61551Y30345
X57850Y30345
X57850Y31841
X52551Y31841
X52551Y30345
X48850Y30345
X48850Y31841
X43551Y31841
X43551Y30345
X39850Y30345
X39850Y31841
X39850Y24616
X39850Y23120
X43551Y23120
X43551Y24616
X48850Y24616
X48850Y23120
X52551Y23120
X52551Y24616
X57850Y24616
X57850Y23120
X61551Y23120
X61551Y24616
X66850Y24616
X66850Y23120
X70551Y23120
X70551Y24616
X70551Y17391
X70551Y15895
X66850Y15895
X66850Y17391
X61551Y17391
X61551Y15895
X57850Y15895
X57850Y17391
X52551Y17391
X52551Y15895
X48850Y15895
X48850Y17391
X43551Y17391
X43551Y15895
X39850Y15895
X39850Y17391
X39850Y10166
X39850Y8670
X43551Y8670
X43551Y10166
X48850Y10166
X48850Y8670
X52551Y8670
X52551Y10166
X57850Y10166
X57850Y8670
X61551Y8670
X61551Y10166
X66850Y10166
X66850Y8670
X70551Y8670
X70551Y10166
X70551Y2941
X70551Y1445
X66850Y1445
X66850Y2941
X61551Y2941
X61551Y1445
X57850Y1445
X57850Y2941
X52551Y2941
X52551Y1445
X48850Y1445
X48850Y2941
X43551Y2941
X43551Y1445
X39850Y1445
X39850Y2941
T03
X31100Y5453
X30100Y6413
X28100Y5492
X26100Y6413
X25139Y5453
X21100Y5453
X20100Y6413
X18100Y5492
X16100Y6413
X15139Y5453
X15139Y12678
X16100Y13638
X18100Y12717
X20100Y13638
X21100Y12678
X25139Y12678
X26100Y13638
X28100Y12717
X30100Y13638
X31100Y12678
X31100Y19903
X30100Y20863
X28100Y19942
X26100Y20863
X25139Y19903
X21100Y19903
X20100Y20863
X18100Y19942
X16100Y20863
X15139Y19903
X15139Y27128
X16100Y28088
X18100Y27167
X20100Y28088
X21100Y27128
X25139Y27128
X26100Y28088
X28100Y27167
X30100Y28088
X31100Y27128
X31100Y34353
X30100Y35313
X28100Y34392
X26100Y35313
X25139Y34353
X21100Y34353
X20100Y35313
X18100Y34392
X16100Y35313
X15139Y34353
X15139Y41578
X16100Y42538
X18100Y41617
X20100Y42538
X21100Y41578
X25139Y41578
X26100Y42538
X28100Y41617
X30100Y42538
X31100Y41578
T04
X30100Y37656
X29100Y37656
X27100Y37656
X26100Y37656
X20100Y37656
X19100Y37656
X17100Y37656
X16100Y37656
X16100Y30431
X17100Y30431
X19100Y30431
X20100Y30431
X26100Y30431
X27100Y30431
X29100Y30431
X30100Y30431
X30100Y23206
X29100Y23206
X27100Y23206
X26100Y23206
X20100Y23206
X19100Y23206
X17100Y23206
X16100Y23206
X16100Y15981
X17100Y15981
X19100Y15981
X20100Y15981
X26100Y15981
X27100Y15981
X29100Y15981
X30100Y15981
X30100Y8756
X29100Y8756
X27100Y8756
X26100Y8756
X20100Y8756
X19100Y8756
X17100Y8756
X16100Y8756
X16100Y1531
X17100Y1531
X19100Y1531
X20100Y1531
X26100Y1531
X27100Y1531
X29100Y1531
X30100Y1531
M30
