G75*
G70*
%OFA0B0*%
%FSLAX24Y24*%
%IPPOS*%
%LPD*%
%AMOC8*
5,1,8,0,0,1.08239X$1,22.5*
%
%ADD10C,0.0848*%
%ADD11OC8,0.0940*%
%ADD12R,0.0730X0.0730*%
%ADD13C,0.0680*%
%ADD14C,0.0100*%
%ADD15C,0.0060*%
D10*
X018100Y005108D02*
X018100Y005876D01*
X028100Y005876D02*
X028100Y005108D01*
X028100Y012333D02*
X028100Y013101D01*
X018100Y013101D02*
X018100Y012333D01*
X018100Y019558D02*
X018100Y020326D01*
X028100Y020326D02*
X028100Y019558D01*
X028100Y026783D02*
X028100Y027551D01*
X018100Y027551D02*
X018100Y026783D01*
X018100Y034008D02*
X018100Y034776D01*
X028100Y034776D02*
X028100Y034008D01*
X028100Y041233D02*
X028100Y042001D01*
X018100Y042001D02*
X018100Y041233D01*
D11*
X016100Y042538D03*
X015139Y041578D03*
X020100Y042538D03*
X021100Y041578D03*
X025139Y041578D03*
X026100Y042538D03*
X030100Y042538D03*
X031100Y041578D03*
X030100Y037656D03*
X029100Y037656D03*
X027100Y037656D03*
X026100Y037656D03*
X026100Y035313D03*
X025139Y034353D03*
X021100Y034353D03*
X020100Y035313D03*
X020100Y037656D03*
X019100Y037656D03*
X017100Y037656D03*
X016100Y037656D03*
X016100Y035313D03*
X015139Y034353D03*
X016100Y030431D03*
X017100Y030431D03*
X019100Y030431D03*
X020100Y030431D03*
X020100Y028088D03*
X021100Y027128D03*
X025139Y027128D03*
X026100Y028088D03*
X026100Y030431D03*
X027100Y030431D03*
X029100Y030431D03*
X030100Y030431D03*
X030100Y028088D03*
X031100Y027128D03*
X030100Y023206D03*
X029100Y023206D03*
X027100Y023206D03*
X026100Y023206D03*
X026100Y020863D03*
X025139Y019903D03*
X021100Y019903D03*
X020100Y020863D03*
X020100Y023206D03*
X019100Y023206D03*
X017100Y023206D03*
X016100Y023206D03*
X016100Y020863D03*
X015139Y019903D03*
X016100Y015981D03*
X017100Y015981D03*
X019100Y015981D03*
X020100Y015981D03*
X020100Y013638D03*
X021100Y012678D03*
X025139Y012678D03*
X026100Y013638D03*
X026100Y015981D03*
X027100Y015981D03*
X029100Y015981D03*
X030100Y015981D03*
X030100Y013638D03*
X031100Y012678D03*
X030100Y008756D03*
X029100Y008756D03*
X027100Y008756D03*
X026100Y008756D03*
X026100Y006413D03*
X025139Y005453D03*
X021100Y005453D03*
X020100Y006413D03*
X020100Y008756D03*
X019100Y008756D03*
X017100Y008756D03*
X016100Y008756D03*
X016100Y006413D03*
X015139Y005453D03*
X016100Y001531D03*
X017100Y001531D03*
X019100Y001531D03*
X020100Y001531D03*
X026100Y001531D03*
X027100Y001531D03*
X029100Y001531D03*
X030100Y001531D03*
X031100Y005453D03*
X030100Y006413D03*
X016100Y013638D03*
X015139Y012678D03*
X030100Y020863D03*
X031100Y019903D03*
X016100Y028088D03*
X015139Y027128D03*
X030100Y035313D03*
X031100Y034353D03*
D12*
X004350Y001445D03*
X004350Y002941D03*
X008051Y002941D03*
X008051Y001445D03*
X008051Y008670D03*
X008051Y010166D03*
X004350Y010166D03*
X004350Y008670D03*
X004350Y015895D03*
X004350Y017391D03*
X008051Y017391D03*
X008051Y015895D03*
X008051Y023120D03*
X008051Y024616D03*
X004350Y024616D03*
X004350Y023120D03*
X004350Y030345D03*
X004350Y031841D03*
X008051Y031841D03*
X008051Y030345D03*
X008051Y037570D03*
X008051Y039066D03*
X004350Y039066D03*
X004350Y037570D03*
X039850Y037570D03*
X039850Y039066D03*
X043551Y039066D03*
X043551Y037570D03*
X048850Y037570D03*
X048850Y039066D03*
X052551Y039066D03*
X052551Y037570D03*
X057850Y037570D03*
X057850Y039066D03*
X061551Y039066D03*
X061551Y037570D03*
X066850Y037570D03*
X066850Y039066D03*
X070551Y039066D03*
X070551Y037570D03*
X070551Y031841D03*
X070551Y030345D03*
X066850Y030345D03*
X066850Y031841D03*
X061551Y031841D03*
X061551Y030345D03*
X057850Y030345D03*
X057850Y031841D03*
X052551Y031841D03*
X052551Y030345D03*
X048850Y030345D03*
X048850Y031841D03*
X043551Y031841D03*
X043551Y030345D03*
X039850Y030345D03*
X039850Y031841D03*
X039850Y024616D03*
X039850Y023120D03*
X043551Y023120D03*
X043551Y024616D03*
X048850Y024616D03*
X048850Y023120D03*
X052551Y023120D03*
X052551Y024616D03*
X057850Y024616D03*
X057850Y023120D03*
X061551Y023120D03*
X061551Y024616D03*
X066850Y024616D03*
X066850Y023120D03*
X070551Y023120D03*
X070551Y024616D03*
X070551Y017391D03*
X070551Y015895D03*
X066850Y015895D03*
X066850Y017391D03*
X061551Y017391D03*
X061551Y015895D03*
X057850Y015895D03*
X057850Y017391D03*
X052551Y017391D03*
X052551Y015895D03*
X048850Y015895D03*
X048850Y017391D03*
X043551Y017391D03*
X043551Y015895D03*
X039850Y015895D03*
X039850Y017391D03*
X039850Y010166D03*
X039850Y008670D03*
X043551Y008670D03*
X043551Y010166D03*
X048850Y010166D03*
X048850Y008670D03*
X052551Y008670D03*
X052551Y010166D03*
X057850Y010166D03*
X057850Y008670D03*
X061551Y008670D03*
X061551Y010166D03*
X066850Y010166D03*
X066850Y008670D03*
X070551Y008670D03*
X070551Y010166D03*
X070551Y002941D03*
X070551Y001445D03*
X066850Y001445D03*
X066850Y002941D03*
X061551Y002941D03*
X061551Y001445D03*
X057850Y001445D03*
X057850Y002941D03*
X052551Y002941D03*
X052551Y001445D03*
X048850Y001445D03*
X048850Y002941D03*
X043551Y002941D03*
X043551Y001445D03*
X039850Y001445D03*
X039850Y002941D03*
D13*
X038100Y003125D02*
X038100Y003725D01*
X037100Y003625D02*
X037100Y003025D01*
X036100Y003125D02*
X036100Y003725D01*
X035100Y003625D02*
X035100Y003025D01*
X034100Y003125D02*
X034100Y003725D01*
X033100Y003625D02*
X033100Y003025D01*
X033100Y005025D02*
X033100Y005625D01*
X034100Y005725D02*
X034100Y005125D01*
X035100Y005025D02*
X035100Y005625D01*
X036100Y005725D02*
X036100Y005125D01*
X037100Y005025D02*
X037100Y005625D01*
X038100Y005725D02*
X038100Y005125D01*
X037100Y010250D02*
X037100Y010850D01*
X036100Y010950D02*
X036100Y010350D01*
X035100Y010250D02*
X035100Y010850D01*
X034100Y010950D02*
X034100Y010350D01*
X033100Y010250D02*
X033100Y010850D01*
X033100Y012250D02*
X033100Y012850D01*
X034100Y012950D02*
X034100Y012350D01*
X035100Y012250D02*
X035100Y012850D01*
X036100Y012950D02*
X036100Y012350D01*
X037100Y012250D02*
X037100Y012850D01*
X038100Y012950D02*
X038100Y012350D01*
X038100Y010950D02*
X038100Y010350D01*
X037100Y017475D02*
X037100Y018075D01*
X036100Y018175D02*
X036100Y017575D01*
X035100Y017475D02*
X035100Y018075D01*
X034100Y018175D02*
X034100Y017575D01*
X033100Y017475D02*
X033100Y018075D01*
X033100Y019475D02*
X033100Y020075D01*
X034100Y020175D02*
X034100Y019575D01*
X035100Y019475D02*
X035100Y020075D01*
X036100Y020175D02*
X036100Y019575D01*
X037100Y019475D02*
X037100Y020075D01*
X038100Y020175D02*
X038100Y019575D01*
X038100Y018175D02*
X038100Y017575D01*
X037100Y024700D02*
X037100Y025300D01*
X036100Y025400D02*
X036100Y024800D01*
X035100Y024700D02*
X035100Y025300D01*
X034100Y025400D02*
X034100Y024800D01*
X033100Y024700D02*
X033100Y025300D01*
X033100Y026700D02*
X033100Y027300D01*
X034100Y027400D02*
X034100Y026800D01*
X035100Y026700D02*
X035100Y027300D01*
X036100Y027400D02*
X036100Y026800D01*
X037100Y026700D02*
X037100Y027300D01*
X038100Y027400D02*
X038100Y026800D01*
X038100Y025400D02*
X038100Y024800D01*
X037100Y031925D02*
X037100Y032525D01*
X036100Y032625D02*
X036100Y032025D01*
X035100Y031925D02*
X035100Y032525D01*
X034100Y032625D02*
X034100Y032025D01*
X033100Y031925D02*
X033100Y032525D01*
X033100Y033925D02*
X033100Y034525D01*
X034100Y034625D02*
X034100Y034025D01*
X035100Y033925D02*
X035100Y034525D01*
X036100Y034625D02*
X036100Y034025D01*
X037100Y033925D02*
X037100Y034525D01*
X038100Y034625D02*
X038100Y034025D01*
X038100Y032625D02*
X038100Y032025D01*
X037100Y039150D02*
X037100Y039750D01*
X036100Y039850D02*
X036100Y039250D01*
X035100Y039150D02*
X035100Y039750D01*
X034100Y039850D02*
X034100Y039250D01*
X033100Y039150D02*
X033100Y039750D01*
X033100Y041150D02*
X033100Y041750D01*
X034100Y041850D02*
X034100Y041250D01*
X035100Y041150D02*
X035100Y041750D01*
X036100Y041850D02*
X036100Y041250D01*
X037100Y041150D02*
X037100Y041750D01*
X038100Y041850D02*
X038100Y041250D01*
X038100Y039850D02*
X038100Y039250D01*
D14*
X070371Y042000D02*
X070373Y042037D01*
X070379Y042074D01*
X070388Y042109D01*
X070402Y042144D01*
X070418Y042177D01*
X070439Y042208D01*
X070462Y042237D01*
X070488Y042263D01*
X070517Y042286D01*
X070548Y042307D01*
X070581Y042323D01*
X070616Y042337D01*
X070651Y042346D01*
X070688Y042352D01*
X070725Y042354D01*
X070762Y042352D01*
X070799Y042346D01*
X070834Y042337D01*
X070869Y042323D01*
X070902Y042307D01*
X070933Y042286D01*
X070962Y042263D01*
X070988Y042237D01*
X071011Y042208D01*
X071032Y042177D01*
X071048Y042144D01*
X071062Y042109D01*
X071071Y042074D01*
X071077Y042037D01*
X071079Y042000D01*
X071077Y041963D01*
X071071Y041926D01*
X071062Y041891D01*
X071048Y041856D01*
X071032Y041823D01*
X071011Y041792D01*
X070988Y041763D01*
X070962Y041737D01*
X070933Y041714D01*
X070902Y041693D01*
X070869Y041677D01*
X070834Y041663D01*
X070799Y041654D01*
X070762Y041648D01*
X070725Y041646D01*
X070688Y041648D01*
X070651Y041654D01*
X070616Y041663D01*
X070581Y041677D01*
X070548Y041693D01*
X070517Y041714D01*
X070488Y041737D01*
X070462Y041763D01*
X070439Y041792D01*
X070418Y041823D01*
X070402Y041856D01*
X070388Y041891D01*
X070379Y041926D01*
X070373Y041963D01*
X070371Y042000D01*
X070371Y034775D02*
X070373Y034812D01*
X070379Y034849D01*
X070388Y034884D01*
X070402Y034919D01*
X070418Y034952D01*
X070439Y034983D01*
X070462Y035012D01*
X070488Y035038D01*
X070517Y035061D01*
X070548Y035082D01*
X070581Y035098D01*
X070616Y035112D01*
X070651Y035121D01*
X070688Y035127D01*
X070725Y035129D01*
X070762Y035127D01*
X070799Y035121D01*
X070834Y035112D01*
X070869Y035098D01*
X070902Y035082D01*
X070933Y035061D01*
X070962Y035038D01*
X070988Y035012D01*
X071011Y034983D01*
X071032Y034952D01*
X071048Y034919D01*
X071062Y034884D01*
X071071Y034849D01*
X071077Y034812D01*
X071079Y034775D01*
X071077Y034738D01*
X071071Y034701D01*
X071062Y034666D01*
X071048Y034631D01*
X071032Y034598D01*
X071011Y034567D01*
X070988Y034538D01*
X070962Y034512D01*
X070933Y034489D01*
X070902Y034468D01*
X070869Y034452D01*
X070834Y034438D01*
X070799Y034429D01*
X070762Y034423D01*
X070725Y034421D01*
X070688Y034423D01*
X070651Y034429D01*
X070616Y034438D01*
X070581Y034452D01*
X070548Y034468D01*
X070517Y034489D01*
X070488Y034512D01*
X070462Y034538D01*
X070439Y034567D01*
X070418Y034598D01*
X070402Y034631D01*
X070388Y034666D01*
X070379Y034701D01*
X070373Y034738D01*
X070371Y034775D01*
X070371Y027550D02*
X070373Y027587D01*
X070379Y027624D01*
X070388Y027659D01*
X070402Y027694D01*
X070418Y027727D01*
X070439Y027758D01*
X070462Y027787D01*
X070488Y027813D01*
X070517Y027836D01*
X070548Y027857D01*
X070581Y027873D01*
X070616Y027887D01*
X070651Y027896D01*
X070688Y027902D01*
X070725Y027904D01*
X070762Y027902D01*
X070799Y027896D01*
X070834Y027887D01*
X070869Y027873D01*
X070902Y027857D01*
X070933Y027836D01*
X070962Y027813D01*
X070988Y027787D01*
X071011Y027758D01*
X071032Y027727D01*
X071048Y027694D01*
X071062Y027659D01*
X071071Y027624D01*
X071077Y027587D01*
X071079Y027550D01*
X071077Y027513D01*
X071071Y027476D01*
X071062Y027441D01*
X071048Y027406D01*
X071032Y027373D01*
X071011Y027342D01*
X070988Y027313D01*
X070962Y027287D01*
X070933Y027264D01*
X070902Y027243D01*
X070869Y027227D01*
X070834Y027213D01*
X070799Y027204D01*
X070762Y027198D01*
X070725Y027196D01*
X070688Y027198D01*
X070651Y027204D01*
X070616Y027213D01*
X070581Y027227D01*
X070548Y027243D01*
X070517Y027264D01*
X070488Y027287D01*
X070462Y027313D01*
X070439Y027342D01*
X070418Y027373D01*
X070402Y027406D01*
X070388Y027441D01*
X070379Y027476D01*
X070373Y027513D01*
X070371Y027550D01*
X070371Y020325D02*
X070373Y020362D01*
X070379Y020399D01*
X070388Y020434D01*
X070402Y020469D01*
X070418Y020502D01*
X070439Y020533D01*
X070462Y020562D01*
X070488Y020588D01*
X070517Y020611D01*
X070548Y020632D01*
X070581Y020648D01*
X070616Y020662D01*
X070651Y020671D01*
X070688Y020677D01*
X070725Y020679D01*
X070762Y020677D01*
X070799Y020671D01*
X070834Y020662D01*
X070869Y020648D01*
X070902Y020632D01*
X070933Y020611D01*
X070962Y020588D01*
X070988Y020562D01*
X071011Y020533D01*
X071032Y020502D01*
X071048Y020469D01*
X071062Y020434D01*
X071071Y020399D01*
X071077Y020362D01*
X071079Y020325D01*
X071077Y020288D01*
X071071Y020251D01*
X071062Y020216D01*
X071048Y020181D01*
X071032Y020148D01*
X071011Y020117D01*
X070988Y020088D01*
X070962Y020062D01*
X070933Y020039D01*
X070902Y020018D01*
X070869Y020002D01*
X070834Y019988D01*
X070799Y019979D01*
X070762Y019973D01*
X070725Y019971D01*
X070688Y019973D01*
X070651Y019979D01*
X070616Y019988D01*
X070581Y020002D01*
X070548Y020018D01*
X070517Y020039D01*
X070488Y020062D01*
X070462Y020088D01*
X070439Y020117D01*
X070418Y020148D01*
X070402Y020181D01*
X070388Y020216D01*
X070379Y020251D01*
X070373Y020288D01*
X070371Y020325D01*
X070371Y013100D02*
X070373Y013137D01*
X070379Y013174D01*
X070388Y013209D01*
X070402Y013244D01*
X070418Y013277D01*
X070439Y013308D01*
X070462Y013337D01*
X070488Y013363D01*
X070517Y013386D01*
X070548Y013407D01*
X070581Y013423D01*
X070616Y013437D01*
X070651Y013446D01*
X070688Y013452D01*
X070725Y013454D01*
X070762Y013452D01*
X070799Y013446D01*
X070834Y013437D01*
X070869Y013423D01*
X070902Y013407D01*
X070933Y013386D01*
X070962Y013363D01*
X070988Y013337D01*
X071011Y013308D01*
X071032Y013277D01*
X071048Y013244D01*
X071062Y013209D01*
X071071Y013174D01*
X071077Y013137D01*
X071079Y013100D01*
X071077Y013063D01*
X071071Y013026D01*
X071062Y012991D01*
X071048Y012956D01*
X071032Y012923D01*
X071011Y012892D01*
X070988Y012863D01*
X070962Y012837D01*
X070933Y012814D01*
X070902Y012793D01*
X070869Y012777D01*
X070834Y012763D01*
X070799Y012754D01*
X070762Y012748D01*
X070725Y012746D01*
X070688Y012748D01*
X070651Y012754D01*
X070616Y012763D01*
X070581Y012777D01*
X070548Y012793D01*
X070517Y012814D01*
X070488Y012837D01*
X070462Y012863D01*
X070439Y012892D01*
X070418Y012923D01*
X070402Y012956D01*
X070388Y012991D01*
X070379Y013026D01*
X070373Y013063D01*
X070371Y013100D01*
X070371Y005875D02*
X070373Y005912D01*
X070379Y005949D01*
X070388Y005984D01*
X070402Y006019D01*
X070418Y006052D01*
X070439Y006083D01*
X070462Y006112D01*
X070488Y006138D01*
X070517Y006161D01*
X070548Y006182D01*
X070581Y006198D01*
X070616Y006212D01*
X070651Y006221D01*
X070688Y006227D01*
X070725Y006229D01*
X070762Y006227D01*
X070799Y006221D01*
X070834Y006212D01*
X070869Y006198D01*
X070902Y006182D01*
X070933Y006161D01*
X070962Y006138D01*
X070988Y006112D01*
X071011Y006083D01*
X071032Y006052D01*
X071048Y006019D01*
X071062Y005984D01*
X071071Y005949D01*
X071077Y005912D01*
X071079Y005875D01*
X071077Y005838D01*
X071071Y005801D01*
X071062Y005766D01*
X071048Y005731D01*
X071032Y005698D01*
X071011Y005667D01*
X070988Y005638D01*
X070962Y005612D01*
X070933Y005589D01*
X070902Y005568D01*
X070869Y005552D01*
X070834Y005538D01*
X070799Y005529D01*
X070762Y005523D01*
X070725Y005521D01*
X070688Y005523D01*
X070651Y005529D01*
X070616Y005538D01*
X070581Y005552D01*
X070548Y005568D01*
X070517Y005589D01*
X070488Y005612D01*
X070462Y005638D01*
X070439Y005667D01*
X070418Y005698D01*
X070402Y005731D01*
X070388Y005766D01*
X070379Y005801D01*
X070373Y005838D01*
X070371Y005875D01*
D15*
X070593Y005774D02*
X070650Y005718D01*
X070763Y005718D01*
X070820Y005774D01*
X070820Y006001D01*
X070763Y006058D01*
X070650Y006058D01*
X070593Y006001D01*
X070577Y006530D02*
X070577Y006870D01*
X070407Y006870D01*
X070350Y006814D01*
X070350Y006700D01*
X070407Y006643D01*
X070577Y006643D01*
X070463Y006643D02*
X070350Y006530D01*
X070208Y006530D02*
X070095Y006530D01*
X070152Y006530D02*
X070152Y006870D01*
X070208Y006870D02*
X070095Y006870D01*
X069963Y006870D02*
X069736Y006870D01*
X069849Y006870D02*
X069849Y006530D01*
X069481Y006530D02*
X069481Y006870D01*
X069368Y006870D02*
X069595Y006870D01*
X069226Y006870D02*
X069226Y006530D01*
X068999Y006530D01*
X068858Y006530D02*
X068858Y006870D01*
X068688Y006870D01*
X068631Y006814D01*
X068631Y006700D01*
X068688Y006643D01*
X068858Y006643D01*
X068744Y006643D02*
X068631Y006530D01*
X068732Y006058D02*
X068676Y006001D01*
X068676Y005944D01*
X068732Y005888D01*
X068676Y005831D01*
X068676Y005774D01*
X068732Y005718D01*
X068846Y005718D01*
X068903Y005774D01*
X069044Y005718D02*
X069271Y005718D01*
X069157Y005718D02*
X069157Y006058D01*
X069271Y005944D01*
X069412Y006001D02*
X069639Y005774D01*
X069582Y005718D01*
X069469Y005718D01*
X069412Y005774D01*
X069412Y006001D01*
X069469Y006058D01*
X069582Y006058D01*
X069639Y006001D01*
X069639Y005774D01*
X069781Y005718D02*
X070008Y005718D01*
X069781Y005944D01*
X069781Y006001D01*
X069837Y006058D01*
X069951Y006058D01*
X070008Y006001D01*
X070718Y006587D02*
X070775Y006530D01*
X070888Y006530D01*
X070945Y006587D01*
X070945Y006814D01*
X070888Y006870D01*
X070775Y006870D01*
X070718Y006814D01*
X069226Y006870D02*
X068999Y006870D01*
X069113Y006700D02*
X069226Y006700D01*
X068121Y006643D02*
X068008Y006757D01*
X068008Y006814D01*
X068065Y006870D01*
X068121Y006814D01*
X068121Y006757D01*
X067894Y006530D01*
X067894Y006643D02*
X068008Y006530D01*
X068065Y006530D01*
X068121Y006587D01*
X068121Y006643D01*
X067385Y006587D02*
X067328Y006530D01*
X067214Y006530D01*
X067158Y006587D01*
X067158Y006700D01*
X067271Y006700D01*
X067158Y006814D02*
X067214Y006870D01*
X067328Y006870D01*
X067385Y006814D01*
X067385Y006587D01*
X067016Y006587D02*
X066960Y006530D01*
X066846Y006530D01*
X066789Y006587D01*
X066789Y006870D01*
X066648Y006870D02*
X066535Y006870D01*
X066591Y006870D02*
X066591Y006530D01*
X066535Y006530D02*
X066648Y006530D01*
X066289Y006530D02*
X066289Y006870D01*
X066402Y006870D02*
X066176Y006870D01*
X066034Y006757D02*
X065921Y006870D01*
X065807Y006757D01*
X065807Y006530D01*
X065666Y006530D02*
X065666Y006870D01*
X065496Y006870D01*
X065439Y006814D01*
X065439Y006700D01*
X065496Y006643D01*
X065666Y006643D01*
X065552Y006643D02*
X065439Y006530D01*
X065298Y006530D02*
X065184Y006530D01*
X065241Y006530D02*
X065241Y006870D01*
X065298Y006870D02*
X065184Y006870D01*
X065807Y006700D02*
X066034Y006700D01*
X066034Y006757D02*
X066034Y006530D01*
X067016Y006587D02*
X067016Y006870D01*
X068732Y006058D02*
X068846Y006058D01*
X068903Y006001D01*
X068789Y005888D02*
X068732Y005888D01*
X068732Y012943D02*
X068846Y012943D01*
X068903Y012999D01*
X069044Y012943D02*
X069271Y012943D01*
X069157Y012943D02*
X069157Y013283D01*
X069271Y013169D01*
X069412Y013226D02*
X069639Y012999D01*
X069582Y012943D01*
X069469Y012943D01*
X069412Y012999D01*
X069412Y013226D01*
X069469Y013283D01*
X069582Y013283D01*
X069639Y013226D01*
X069639Y012999D01*
X069781Y012943D02*
X070008Y012943D01*
X069781Y013169D01*
X069781Y013226D01*
X069837Y013283D01*
X069951Y013283D01*
X070008Y013226D01*
X070095Y013755D02*
X070208Y013755D01*
X070152Y013755D02*
X070152Y014095D01*
X070208Y014095D02*
X070095Y014095D01*
X069963Y014095D02*
X069736Y014095D01*
X069849Y014095D02*
X069849Y013755D01*
X069481Y013755D02*
X069481Y014095D01*
X069368Y014095D02*
X069595Y014095D01*
X069226Y014095D02*
X069226Y013755D01*
X068999Y013755D01*
X068858Y013755D02*
X068858Y014095D01*
X068688Y014095D01*
X068631Y014039D01*
X068631Y013925D01*
X068688Y013868D01*
X068858Y013868D01*
X068744Y013868D02*
X068631Y013755D01*
X068732Y013283D02*
X068676Y013226D01*
X068676Y013169D01*
X068732Y013113D01*
X068676Y013056D01*
X068676Y012999D01*
X068732Y012943D01*
X068732Y013113D02*
X068789Y013113D01*
X068903Y013226D02*
X068846Y013283D01*
X068732Y013283D01*
X069113Y013925D02*
X069226Y013925D01*
X069226Y014095D02*
X068999Y014095D01*
X068121Y014039D02*
X068121Y013982D01*
X067894Y013755D01*
X067894Y013868D02*
X068008Y013755D01*
X068065Y013755D01*
X068121Y013812D01*
X068121Y013868D01*
X068008Y013982D01*
X068008Y014039D01*
X068065Y014095D01*
X068121Y014039D01*
X067385Y014039D02*
X067385Y013812D01*
X067328Y013755D01*
X067214Y013755D01*
X067158Y013812D01*
X067158Y013925D01*
X067271Y013925D01*
X067158Y014039D02*
X067214Y014095D01*
X067328Y014095D01*
X067385Y014039D01*
X067016Y014095D02*
X067016Y013812D01*
X066960Y013755D01*
X066846Y013755D01*
X066789Y013812D01*
X066789Y014095D01*
X066648Y014095D02*
X066535Y014095D01*
X066591Y014095D02*
X066591Y013755D01*
X066535Y013755D02*
X066648Y013755D01*
X066289Y013755D02*
X066289Y014095D01*
X066402Y014095D02*
X066176Y014095D01*
X066034Y013982D02*
X065921Y014095D01*
X065807Y013982D01*
X065807Y013755D01*
X065666Y013755D02*
X065666Y014095D01*
X065496Y014095D01*
X065439Y014039D01*
X065439Y013925D01*
X065496Y013868D01*
X065666Y013868D01*
X065552Y013868D02*
X065439Y013755D01*
X065298Y013755D02*
X065184Y013755D01*
X065241Y013755D02*
X065241Y014095D01*
X065298Y014095D02*
X065184Y014095D01*
X065807Y013925D02*
X066034Y013925D01*
X066034Y013982D02*
X066034Y013755D01*
X070350Y013755D02*
X070463Y013868D01*
X070407Y013868D02*
X070577Y013868D01*
X070577Y013755D02*
X070577Y014095D01*
X070407Y014095D01*
X070350Y014039D01*
X070350Y013925D01*
X070407Y013868D01*
X070718Y013812D02*
X070775Y013755D01*
X070888Y013755D01*
X070945Y013812D01*
X070945Y014039D01*
X070888Y014095D01*
X070775Y014095D01*
X070718Y014039D01*
X070763Y013283D02*
X070820Y013226D01*
X070820Y012999D01*
X070763Y012943D01*
X070650Y012943D01*
X070593Y012999D01*
X070593Y013226D02*
X070650Y013283D01*
X070763Y013283D01*
X070763Y020168D02*
X070650Y020168D01*
X070593Y020224D01*
X070763Y020168D02*
X070820Y020224D01*
X070820Y020451D01*
X070763Y020508D01*
X070650Y020508D01*
X070593Y020451D01*
X070577Y020980D02*
X070577Y021320D01*
X070407Y021320D01*
X070350Y021264D01*
X070350Y021150D01*
X070407Y021093D01*
X070577Y021093D01*
X070463Y021093D02*
X070350Y020980D01*
X070208Y020980D02*
X070095Y020980D01*
X070152Y020980D02*
X070152Y021320D01*
X070208Y021320D02*
X070095Y021320D01*
X069963Y021320D02*
X069736Y021320D01*
X069849Y021320D02*
X069849Y020980D01*
X069481Y020980D02*
X069481Y021320D01*
X069368Y021320D02*
X069595Y021320D01*
X069226Y021320D02*
X069226Y020980D01*
X068999Y020980D01*
X068858Y020980D02*
X068858Y021320D01*
X068688Y021320D01*
X068631Y021264D01*
X068631Y021150D01*
X068688Y021093D01*
X068858Y021093D01*
X068744Y021093D02*
X068631Y020980D01*
X068732Y020508D02*
X068676Y020451D01*
X068676Y020394D01*
X068732Y020338D01*
X068676Y020281D01*
X068676Y020224D01*
X068732Y020168D01*
X068846Y020168D01*
X068903Y020224D01*
X069044Y020168D02*
X069271Y020168D01*
X069157Y020168D02*
X069157Y020508D01*
X069271Y020394D01*
X069412Y020451D02*
X069639Y020224D01*
X069582Y020168D01*
X069469Y020168D01*
X069412Y020224D01*
X069412Y020451D01*
X069469Y020508D01*
X069582Y020508D01*
X069639Y020451D01*
X069639Y020224D01*
X069781Y020168D02*
X070008Y020168D01*
X069781Y020394D01*
X069781Y020451D01*
X069837Y020508D01*
X069951Y020508D01*
X070008Y020451D01*
X070718Y021037D02*
X070775Y020980D01*
X070888Y020980D01*
X070945Y021037D01*
X070945Y021264D01*
X070888Y021320D01*
X070775Y021320D01*
X070718Y021264D01*
X069226Y021320D02*
X068999Y021320D01*
X069113Y021150D02*
X069226Y021150D01*
X068121Y021093D02*
X068121Y021037D01*
X068065Y020980D01*
X068008Y020980D01*
X067894Y021093D01*
X067894Y020980D02*
X068121Y021207D01*
X068121Y021264D01*
X068065Y021320D01*
X068008Y021264D01*
X068008Y021207D01*
X068121Y021093D01*
X067385Y021037D02*
X067328Y020980D01*
X067214Y020980D01*
X067158Y021037D01*
X067158Y021150D01*
X067271Y021150D01*
X067158Y021264D02*
X067214Y021320D01*
X067328Y021320D01*
X067385Y021264D01*
X067385Y021037D01*
X067016Y021037D02*
X067016Y021320D01*
X066789Y021320D02*
X066789Y021037D01*
X066846Y020980D01*
X066960Y020980D01*
X067016Y021037D01*
X066648Y020980D02*
X066535Y020980D01*
X066591Y020980D02*
X066591Y021320D01*
X066535Y021320D02*
X066648Y021320D01*
X066402Y021320D02*
X066176Y021320D01*
X066289Y021320D02*
X066289Y020980D01*
X066034Y020980D02*
X066034Y021207D01*
X065921Y021320D01*
X065807Y021207D01*
X065807Y020980D01*
X065666Y020980D02*
X065666Y021320D01*
X065496Y021320D01*
X065439Y021264D01*
X065439Y021150D01*
X065496Y021093D01*
X065666Y021093D01*
X065552Y021093D02*
X065439Y020980D01*
X065298Y020980D02*
X065184Y020980D01*
X065241Y020980D02*
X065241Y021320D01*
X065298Y021320D02*
X065184Y021320D01*
X065807Y021150D02*
X066034Y021150D01*
X068732Y020508D02*
X068846Y020508D01*
X068903Y020451D01*
X068789Y020338D02*
X068732Y020338D01*
X068732Y027393D02*
X068846Y027393D01*
X068903Y027449D01*
X069044Y027393D02*
X069271Y027393D01*
X069157Y027393D02*
X069157Y027733D01*
X069271Y027619D01*
X069412Y027676D02*
X069639Y027449D01*
X069582Y027393D01*
X069469Y027393D01*
X069412Y027449D01*
X069412Y027676D01*
X069469Y027733D01*
X069582Y027733D01*
X069639Y027676D01*
X069639Y027449D01*
X069781Y027393D02*
X070008Y027393D01*
X069781Y027619D01*
X069781Y027676D01*
X069837Y027733D01*
X069951Y027733D01*
X070008Y027676D01*
X070095Y028205D02*
X070208Y028205D01*
X070152Y028205D02*
X070152Y028545D01*
X070208Y028545D02*
X070095Y028545D01*
X069963Y028545D02*
X069736Y028545D01*
X069849Y028545D02*
X069849Y028205D01*
X069481Y028205D02*
X069481Y028545D01*
X069368Y028545D02*
X069595Y028545D01*
X069226Y028545D02*
X069226Y028205D01*
X068999Y028205D01*
X068858Y028205D02*
X068858Y028545D01*
X068688Y028545D01*
X068631Y028489D01*
X068631Y028375D01*
X068688Y028318D01*
X068858Y028318D01*
X068744Y028318D02*
X068631Y028205D01*
X068732Y027733D02*
X068676Y027676D01*
X068676Y027619D01*
X068732Y027563D01*
X068676Y027506D01*
X068676Y027449D01*
X068732Y027393D01*
X068732Y027563D02*
X068789Y027563D01*
X068903Y027676D02*
X068846Y027733D01*
X068732Y027733D01*
X069113Y028375D02*
X069226Y028375D01*
X069226Y028545D02*
X068999Y028545D01*
X068121Y028489D02*
X068121Y028432D01*
X067894Y028205D01*
X067894Y028318D02*
X068008Y028205D01*
X068065Y028205D01*
X068121Y028262D01*
X068121Y028318D01*
X068008Y028432D01*
X068008Y028489D01*
X068065Y028545D01*
X068121Y028489D01*
X067385Y028489D02*
X067328Y028545D01*
X067214Y028545D01*
X067158Y028489D01*
X067158Y028375D02*
X067271Y028375D01*
X067158Y028375D02*
X067158Y028262D01*
X067214Y028205D01*
X067328Y028205D01*
X067385Y028262D01*
X067385Y028489D01*
X067016Y028545D02*
X067016Y028262D01*
X066960Y028205D01*
X066846Y028205D01*
X066789Y028262D01*
X066789Y028545D01*
X066648Y028545D02*
X066535Y028545D01*
X066591Y028545D02*
X066591Y028205D01*
X066535Y028205D02*
X066648Y028205D01*
X066289Y028205D02*
X066289Y028545D01*
X066402Y028545D02*
X066176Y028545D01*
X066034Y028432D02*
X065921Y028545D01*
X065807Y028432D01*
X065807Y028205D01*
X065666Y028205D02*
X065666Y028545D01*
X065496Y028545D01*
X065439Y028489D01*
X065439Y028375D01*
X065496Y028318D01*
X065666Y028318D01*
X065552Y028318D02*
X065439Y028205D01*
X065298Y028205D02*
X065184Y028205D01*
X065241Y028205D02*
X065241Y028545D01*
X065298Y028545D02*
X065184Y028545D01*
X065807Y028375D02*
X066034Y028375D01*
X066034Y028432D02*
X066034Y028205D01*
X070350Y028205D02*
X070463Y028318D01*
X070407Y028318D02*
X070577Y028318D01*
X070577Y028205D02*
X070577Y028545D01*
X070407Y028545D01*
X070350Y028489D01*
X070350Y028375D01*
X070407Y028318D01*
X070718Y028262D02*
X070775Y028205D01*
X070888Y028205D01*
X070945Y028262D01*
X070945Y028489D01*
X070888Y028545D01*
X070775Y028545D01*
X070718Y028489D01*
X070763Y027733D02*
X070820Y027676D01*
X070820Y027449D01*
X070763Y027393D01*
X070650Y027393D01*
X070593Y027449D01*
X070593Y027676D02*
X070650Y027733D01*
X070763Y027733D01*
X070763Y034618D02*
X070650Y034618D01*
X070593Y034674D01*
X070763Y034618D02*
X070820Y034674D01*
X070820Y034901D01*
X070763Y034958D01*
X070650Y034958D01*
X070593Y034901D01*
X070577Y035430D02*
X070577Y035770D01*
X070407Y035770D01*
X070350Y035714D01*
X070350Y035600D01*
X070407Y035543D01*
X070577Y035543D01*
X070463Y035543D02*
X070350Y035430D01*
X070208Y035430D02*
X070095Y035430D01*
X070152Y035430D02*
X070152Y035770D01*
X070208Y035770D02*
X070095Y035770D01*
X069963Y035770D02*
X069736Y035770D01*
X069849Y035770D02*
X069849Y035430D01*
X069481Y035430D02*
X069481Y035770D01*
X069368Y035770D02*
X069595Y035770D01*
X069226Y035770D02*
X069226Y035430D01*
X068999Y035430D01*
X068858Y035430D02*
X068858Y035770D01*
X068688Y035770D01*
X068631Y035714D01*
X068631Y035600D01*
X068688Y035543D01*
X068858Y035543D01*
X068744Y035543D02*
X068631Y035430D01*
X068732Y034958D02*
X068676Y034901D01*
X068676Y034844D01*
X068732Y034788D01*
X068676Y034731D01*
X068676Y034674D01*
X068732Y034618D01*
X068846Y034618D01*
X068903Y034674D01*
X069044Y034618D02*
X069271Y034618D01*
X069157Y034618D02*
X069157Y034958D01*
X069271Y034844D01*
X069412Y034901D02*
X069639Y034674D01*
X069582Y034618D01*
X069469Y034618D01*
X069412Y034674D01*
X069412Y034901D01*
X069469Y034958D01*
X069582Y034958D01*
X069639Y034901D01*
X069639Y034674D01*
X069781Y034618D02*
X070008Y034618D01*
X069781Y034844D01*
X069781Y034901D01*
X069837Y034958D01*
X069951Y034958D01*
X070008Y034901D01*
X070718Y035487D02*
X070775Y035430D01*
X070888Y035430D01*
X070945Y035487D01*
X070945Y035714D01*
X070888Y035770D01*
X070775Y035770D01*
X070718Y035714D01*
X069226Y035770D02*
X068999Y035770D01*
X069113Y035600D02*
X069226Y035600D01*
X068121Y035543D02*
X068121Y035487D01*
X068065Y035430D01*
X068008Y035430D01*
X067894Y035543D01*
X067894Y035430D02*
X068121Y035657D01*
X068121Y035714D01*
X068065Y035770D01*
X068008Y035714D01*
X068008Y035657D01*
X068121Y035543D01*
X067385Y035487D02*
X067328Y035430D01*
X067214Y035430D01*
X067158Y035487D01*
X067158Y035600D01*
X067271Y035600D01*
X067158Y035714D02*
X067214Y035770D01*
X067328Y035770D01*
X067385Y035714D01*
X067385Y035487D01*
X067016Y035487D02*
X067016Y035770D01*
X066789Y035770D02*
X066789Y035487D01*
X066846Y035430D01*
X066960Y035430D01*
X067016Y035487D01*
X066648Y035430D02*
X066535Y035430D01*
X066591Y035430D02*
X066591Y035770D01*
X066535Y035770D02*
X066648Y035770D01*
X066402Y035770D02*
X066176Y035770D01*
X066289Y035770D02*
X066289Y035430D01*
X066034Y035430D02*
X066034Y035657D01*
X065921Y035770D01*
X065807Y035657D01*
X065807Y035430D01*
X065666Y035430D02*
X065666Y035770D01*
X065496Y035770D01*
X065439Y035714D01*
X065439Y035600D01*
X065496Y035543D01*
X065666Y035543D01*
X065552Y035543D02*
X065439Y035430D01*
X065298Y035430D02*
X065184Y035430D01*
X065241Y035430D02*
X065241Y035770D01*
X065298Y035770D02*
X065184Y035770D01*
X065807Y035600D02*
X066034Y035600D01*
X068732Y034958D02*
X068846Y034958D01*
X068903Y034901D01*
X068789Y034788D02*
X068732Y034788D01*
X068732Y041843D02*
X068846Y041843D01*
X068903Y041899D01*
X069044Y041843D02*
X069271Y041843D01*
X069157Y041843D02*
X069157Y042183D01*
X069271Y042069D01*
X069412Y042126D02*
X069639Y041899D01*
X069582Y041843D01*
X069469Y041843D01*
X069412Y041899D01*
X069412Y042126D01*
X069469Y042183D01*
X069582Y042183D01*
X069639Y042126D01*
X069639Y041899D01*
X069781Y041843D02*
X070008Y041843D01*
X069781Y042069D01*
X069781Y042126D01*
X069837Y042183D01*
X069951Y042183D01*
X070008Y042126D01*
X070095Y042655D02*
X070208Y042655D01*
X070152Y042655D02*
X070152Y042995D01*
X070208Y042995D02*
X070095Y042995D01*
X069963Y042995D02*
X069736Y042995D01*
X069849Y042995D02*
X069849Y042655D01*
X069481Y042655D02*
X069481Y042995D01*
X069368Y042995D02*
X069595Y042995D01*
X069226Y042995D02*
X069226Y042655D01*
X068999Y042655D01*
X068858Y042655D02*
X068858Y042995D01*
X068688Y042995D01*
X068631Y042939D01*
X068631Y042825D01*
X068688Y042768D01*
X068858Y042768D01*
X068744Y042768D02*
X068631Y042655D01*
X068732Y042183D02*
X068676Y042126D01*
X068676Y042069D01*
X068732Y042013D01*
X068676Y041956D01*
X068676Y041899D01*
X068732Y041843D01*
X068732Y042013D02*
X068789Y042013D01*
X068903Y042126D02*
X068846Y042183D01*
X068732Y042183D01*
X069113Y042825D02*
X069226Y042825D01*
X069226Y042995D02*
X068999Y042995D01*
X068121Y042939D02*
X068121Y042882D01*
X067894Y042655D01*
X067894Y042768D02*
X068008Y042655D01*
X068065Y042655D01*
X068121Y042712D01*
X068121Y042768D01*
X068008Y042882D01*
X068008Y042939D01*
X068065Y042995D01*
X068121Y042939D01*
X067385Y042939D02*
X067328Y042995D01*
X067214Y042995D01*
X067158Y042939D01*
X067158Y042825D02*
X067271Y042825D01*
X067158Y042825D02*
X067158Y042712D01*
X067214Y042655D01*
X067328Y042655D01*
X067385Y042712D01*
X067385Y042939D01*
X067016Y042995D02*
X067016Y042712D01*
X066960Y042655D01*
X066846Y042655D01*
X066789Y042712D01*
X066789Y042995D01*
X066648Y042995D02*
X066535Y042995D01*
X066591Y042995D02*
X066591Y042655D01*
X066535Y042655D02*
X066648Y042655D01*
X066289Y042655D02*
X066289Y042995D01*
X066402Y042995D02*
X066176Y042995D01*
X066034Y042882D02*
X065921Y042995D01*
X065807Y042882D01*
X065807Y042655D01*
X065666Y042655D02*
X065666Y042995D01*
X065496Y042995D01*
X065439Y042939D01*
X065439Y042825D01*
X065496Y042768D01*
X065666Y042768D01*
X065552Y042768D02*
X065439Y042655D01*
X065298Y042655D02*
X065184Y042655D01*
X065241Y042655D02*
X065241Y042995D01*
X065298Y042995D02*
X065184Y042995D01*
X065807Y042825D02*
X066034Y042825D01*
X066034Y042882D02*
X066034Y042655D01*
X070350Y042655D02*
X070463Y042768D01*
X070407Y042768D02*
X070577Y042768D01*
X070577Y042655D02*
X070577Y042995D01*
X070407Y042995D01*
X070350Y042939D01*
X070350Y042825D01*
X070407Y042768D01*
X070718Y042712D02*
X070775Y042655D01*
X070888Y042655D01*
X070945Y042712D01*
X070945Y042939D01*
X070888Y042995D01*
X070775Y042995D01*
X070718Y042939D01*
X070763Y042183D02*
X070820Y042126D01*
X070820Y041899D01*
X070763Y041843D01*
X070650Y041843D01*
X070593Y041899D01*
X070593Y042126D02*
X070650Y042183D01*
X070763Y042183D01*
M02*
