G75*
G70*
%OFA0B0*%
%FSLAX24Y24*%
%IPPOS*%
%LPD*%
%AMOC8*
5,1,8,0,0,1.08239X$1,22.5*
%
%ADD10C,0.0000*%
%ADD11C,0.0040*%
D10*
X000100Y000500D02*
X000100Y043750D01*
X002500Y043750D01*
X002500Y000500D01*
X000100Y000500D01*
X002600Y000500D02*
X002600Y007625D01*
X071850Y007625D01*
X071850Y000500D01*
X002600Y000500D01*
X002600Y007725D02*
X002600Y014850D01*
X071850Y014850D01*
X071850Y007725D01*
X002600Y007725D01*
X002600Y014950D02*
X002600Y022075D01*
X071850Y022075D01*
X071850Y014950D01*
X002600Y014950D01*
X002600Y022175D02*
X002600Y029300D01*
X071850Y029300D01*
X071850Y022175D01*
X002600Y022175D01*
X002600Y029400D02*
X002600Y036525D01*
X071850Y036525D01*
X071850Y029400D01*
X002600Y029400D01*
X002600Y036625D02*
X002600Y043750D01*
X071850Y043750D01*
X071850Y036625D01*
X002600Y036625D01*
X071950Y043750D02*
X071950Y000500D01*
X074450Y000500D01*
X074450Y043750D01*
X071950Y043750D01*
D11*
X036263Y038654D02*
X036263Y038577D01*
X036186Y038500D01*
X036033Y038500D01*
X035956Y038423D01*
X035956Y038347D01*
X036033Y038270D01*
X036186Y038270D01*
X036263Y038347D01*
X036263Y038654D02*
X036186Y038730D01*
X036033Y038730D01*
X035956Y038654D01*
X035803Y038654D02*
X035803Y038347D01*
X035726Y038270D01*
X035573Y038270D01*
X035496Y038347D01*
X035496Y038654D01*
X035573Y038730D01*
X035726Y038730D01*
X035803Y038654D01*
X035342Y038654D02*
X035342Y038347D01*
X035266Y038270D01*
X035112Y038270D01*
X035035Y038347D01*
X034882Y038423D02*
X034575Y038730D01*
X034422Y038730D02*
X034422Y038270D01*
X034115Y038270D01*
X034268Y038500D02*
X034422Y038500D01*
X034422Y038730D02*
X034115Y038730D01*
X033961Y038730D02*
X033654Y038730D01*
X033808Y038730D02*
X033808Y038270D01*
X033501Y038193D02*
X033194Y038193D01*
X033040Y038270D02*
X032733Y038270D01*
X032887Y038270D02*
X032887Y038730D01*
X033040Y038577D01*
X034575Y038270D02*
X034805Y038500D01*
X034882Y038730D02*
X034882Y038270D01*
X035035Y038654D02*
X035112Y038730D01*
X035266Y038730D01*
X035342Y038654D01*
X035266Y031505D02*
X035342Y031429D01*
X035342Y031122D01*
X035266Y031045D01*
X035112Y031045D01*
X035035Y031122D01*
X034882Y031198D02*
X034575Y031505D01*
X034422Y031505D02*
X034422Y031045D01*
X034115Y031045D01*
X034268Y031275D02*
X034422Y031275D01*
X034422Y031505D02*
X034115Y031505D01*
X033961Y031505D02*
X033654Y031505D01*
X033808Y031505D02*
X033808Y031045D01*
X033501Y030968D02*
X033194Y030968D01*
X033040Y031045D02*
X032733Y031045D01*
X032887Y031045D02*
X032887Y031505D01*
X033040Y031352D01*
X034575Y031045D02*
X034805Y031275D01*
X034882Y031505D02*
X034882Y031045D01*
X035035Y031429D02*
X035112Y031505D01*
X035266Y031505D01*
X035496Y031429D02*
X035573Y031505D01*
X035726Y031505D01*
X035803Y031429D01*
X035803Y031122D01*
X035726Y031045D01*
X035573Y031045D01*
X035496Y031122D01*
X035496Y031429D01*
X035956Y031429D02*
X036033Y031505D01*
X036186Y031505D01*
X036263Y031429D01*
X036263Y031352D01*
X036186Y031275D01*
X036033Y031275D01*
X035956Y031198D01*
X035956Y031122D01*
X036033Y031045D01*
X036186Y031045D01*
X036263Y031122D01*
X036186Y024280D02*
X036263Y024204D01*
X036263Y024127D01*
X036186Y024050D01*
X036033Y024050D01*
X035956Y023973D01*
X035956Y023897D01*
X036033Y023820D01*
X036186Y023820D01*
X036263Y023897D01*
X036186Y024280D02*
X036033Y024280D01*
X035956Y024204D01*
X035803Y024204D02*
X035803Y023897D01*
X035726Y023820D01*
X035573Y023820D01*
X035496Y023897D01*
X035496Y024204D01*
X035573Y024280D01*
X035726Y024280D01*
X035803Y024204D01*
X035342Y024204D02*
X035342Y023897D01*
X035266Y023820D01*
X035112Y023820D01*
X035035Y023897D01*
X034882Y023973D02*
X034575Y024280D01*
X034422Y024280D02*
X034422Y023820D01*
X034115Y023820D01*
X034268Y024050D02*
X034422Y024050D01*
X034422Y024280D02*
X034115Y024280D01*
X033961Y024280D02*
X033654Y024280D01*
X033808Y024280D02*
X033808Y023820D01*
X033501Y023743D02*
X033194Y023743D01*
X033040Y023820D02*
X032733Y023820D01*
X032887Y023820D02*
X032887Y024280D01*
X033040Y024127D01*
X034575Y023820D02*
X034805Y024050D01*
X034882Y024280D02*
X034882Y023820D01*
X035035Y024204D02*
X035112Y024280D01*
X035266Y024280D01*
X035342Y024204D01*
X035266Y017055D02*
X035342Y016979D01*
X035342Y016672D01*
X035266Y016595D01*
X035112Y016595D01*
X035035Y016672D01*
X034882Y016748D02*
X034575Y017055D01*
X034422Y017055D02*
X034422Y016595D01*
X034115Y016595D01*
X034268Y016825D02*
X034422Y016825D01*
X034422Y017055D02*
X034115Y017055D01*
X033961Y017055D02*
X033654Y017055D01*
X033808Y017055D02*
X033808Y016595D01*
X033501Y016518D02*
X033194Y016518D01*
X033040Y016595D02*
X032733Y016595D01*
X032887Y016595D02*
X032887Y017055D01*
X033040Y016902D01*
X034575Y016595D02*
X034805Y016825D01*
X034882Y017055D02*
X034882Y016595D01*
X035035Y016979D02*
X035112Y017055D01*
X035266Y017055D01*
X035496Y016979D02*
X035573Y017055D01*
X035726Y017055D01*
X035803Y016979D01*
X035803Y016672D01*
X035726Y016595D01*
X035573Y016595D01*
X035496Y016672D01*
X035496Y016979D01*
X035956Y016979D02*
X036033Y017055D01*
X036186Y017055D01*
X036263Y016979D01*
X036263Y016902D01*
X036186Y016825D01*
X036033Y016825D01*
X035956Y016748D01*
X035956Y016672D01*
X036033Y016595D01*
X036186Y016595D01*
X036263Y016672D01*
X036186Y009830D02*
X036263Y009754D01*
X036263Y009677D01*
X036186Y009600D01*
X036033Y009600D01*
X035956Y009523D01*
X035956Y009447D01*
X036033Y009370D01*
X036186Y009370D01*
X036263Y009447D01*
X036186Y009830D02*
X036033Y009830D01*
X035956Y009754D01*
X035803Y009754D02*
X035803Y009447D01*
X035726Y009370D01*
X035573Y009370D01*
X035496Y009447D01*
X035496Y009754D01*
X035573Y009830D01*
X035726Y009830D01*
X035803Y009754D01*
X035342Y009754D02*
X035342Y009447D01*
X035266Y009370D01*
X035112Y009370D01*
X035035Y009447D01*
X034882Y009523D02*
X034575Y009830D01*
X034422Y009830D02*
X034422Y009370D01*
X034115Y009370D01*
X034268Y009600D02*
X034422Y009600D01*
X034422Y009830D02*
X034115Y009830D01*
X033961Y009830D02*
X033654Y009830D01*
X033808Y009830D02*
X033808Y009370D01*
X033501Y009293D02*
X033194Y009293D01*
X033040Y009370D02*
X032733Y009370D01*
X032887Y009370D02*
X032887Y009830D01*
X033040Y009677D01*
X034575Y009370D02*
X034805Y009600D01*
X034882Y009830D02*
X034882Y009370D01*
X035035Y009754D02*
X035112Y009830D01*
X035266Y009830D01*
X035342Y009754D01*
X035266Y002605D02*
X035342Y002529D01*
X035342Y002222D01*
X035266Y002145D01*
X035112Y002145D01*
X035035Y002222D01*
X034882Y002298D02*
X034575Y002605D01*
X034422Y002605D02*
X034422Y002145D01*
X034115Y002145D01*
X034268Y002375D02*
X034422Y002375D01*
X034422Y002605D02*
X034115Y002605D01*
X033961Y002605D02*
X033654Y002605D01*
X033808Y002605D02*
X033808Y002145D01*
X033501Y002068D02*
X033194Y002068D01*
X033040Y002145D02*
X032733Y002145D01*
X032887Y002145D02*
X032887Y002605D01*
X033040Y002452D01*
X034575Y002145D02*
X034805Y002375D01*
X034882Y002605D02*
X034882Y002145D01*
X035035Y002529D02*
X035112Y002605D01*
X035266Y002605D01*
X035496Y002529D02*
X035573Y002605D01*
X035726Y002605D01*
X035803Y002529D01*
X035803Y002222D01*
X035726Y002145D01*
X035573Y002145D01*
X035496Y002222D01*
X035496Y002529D01*
X035956Y002529D02*
X036033Y002605D01*
X036186Y002605D01*
X036263Y002529D01*
X036263Y002452D01*
X036186Y002375D01*
X036033Y002375D01*
X035956Y002298D01*
X035956Y002222D01*
X036033Y002145D01*
X036186Y002145D01*
X036263Y002222D01*
M02*
