G75*
G70*
%OFA0B0*%
%FSLAX24Y24*%
%IPPOS*%
%LPD*%
%AMOC8*
5,1,8,0,0,1.08239X$1,22.5*
%
%ADD10C,0.1340*%
%ADD11C,0.1080*%
%ADD12R,0.0867X0.0631*%
%ADD13R,0.0867X0.0474*%
%ADD14C,0.0070*%
%ADD15C,0.3500*%
%ADD16OC8,0.0820*%
%ADD17C,0.0674*%
%ADD18C,0.1261*%
%ADD19R,0.0680X0.2580*%
%ADD20R,0.6791X0.2500*%
%ADD21C,0.0476*%
D10*
X009600Y002105D03*
X009600Y034405D03*
X009600Y066705D03*
X039600Y066705D03*
X039600Y034405D03*
X039600Y002105D03*
X069600Y002105D03*
X069600Y034405D03*
X069600Y066705D03*
D11*
X004415Y003603D03*
X009540Y008853D03*
X018853Y014978D03*
X027790Y008853D03*
X033540Y003603D03*
X042603Y014978D03*
X041103Y022665D03*
X046228Y027915D03*
X051603Y035903D03*
X057540Y041153D03*
X063603Y035903D03*
X066603Y047278D03*
X074853Y047278D03*
X074853Y035903D03*
X074853Y014978D03*
X066603Y014978D03*
X057540Y008853D03*
X051603Y003603D03*
X063603Y003603D03*
X074853Y003603D03*
X042603Y047278D03*
X041103Y054965D03*
X046228Y060215D03*
X051603Y068203D03*
X057540Y073453D03*
X063603Y068203D03*
X066603Y079578D03*
X074853Y079578D03*
X074853Y068203D03*
X046228Y092515D03*
X041103Y087265D03*
X042603Y079578D03*
X033540Y068203D03*
X027790Y073453D03*
X018853Y079578D03*
X009540Y073453D03*
X004415Y068203D03*
X018853Y047278D03*
X027790Y041153D03*
X033540Y035903D03*
X009540Y041153D03*
X004415Y035903D03*
D12*
X005361Y043881D03*
X005361Y045299D03*
X007094Y045299D03*
X007094Y043881D03*
X007094Y012999D03*
X007094Y011581D03*
X005361Y011581D03*
X005361Y012999D03*
X047749Y024611D03*
X047749Y026029D03*
X049481Y026029D03*
X049481Y024611D03*
X072361Y024706D03*
X072361Y026124D03*
X074094Y026124D03*
X074094Y024706D03*
X074094Y057006D03*
X074094Y058424D03*
X072361Y058424D03*
X072361Y057006D03*
X049481Y056911D03*
X049481Y058329D03*
X047749Y058329D03*
X047749Y056911D03*
X047749Y089211D03*
X047749Y090629D03*
X049481Y090629D03*
X049481Y089211D03*
X072361Y089306D03*
X072361Y090724D03*
X074094Y090724D03*
X074094Y089306D03*
X007094Y077599D03*
X007094Y076181D03*
X005361Y076181D03*
X005361Y077599D03*
D13*
X005361Y076890D03*
X007094Y076890D03*
X007094Y044590D03*
X005361Y044590D03*
X005361Y012290D03*
X007094Y012290D03*
X047749Y025320D03*
X049481Y025320D03*
X072361Y025415D03*
X074094Y025415D03*
X074094Y057715D03*
X072361Y057715D03*
X049481Y057620D03*
X047749Y057620D03*
X047749Y089920D03*
X049481Y089920D03*
X072361Y090015D03*
X074094Y090015D03*
D14*
X068723Y078248D02*
X068723Y078038D01*
X068513Y078038D01*
X068513Y078248D01*
X068723Y078248D01*
X068723Y078107D02*
X068513Y078107D01*
X068513Y078176D02*
X068723Y078176D01*
X068723Y078245D02*
X068513Y078245D01*
X070574Y075624D02*
X070574Y075414D01*
X070364Y075414D01*
X070364Y075624D01*
X070574Y075624D01*
X070574Y075483D02*
X070364Y075483D01*
X070364Y075552D02*
X070574Y075552D01*
X070574Y075621D02*
X070364Y075621D01*
X071631Y072366D02*
X071631Y072156D01*
X071631Y072366D02*
X071841Y072366D01*
X071841Y072156D01*
X071631Y072156D01*
X071631Y072225D02*
X071841Y072225D01*
X071841Y072294D02*
X071631Y072294D01*
X071631Y072363D02*
X071841Y072363D01*
X073482Y069742D02*
X073482Y069532D01*
X073482Y069742D02*
X073692Y069742D01*
X073692Y069532D01*
X073482Y069532D01*
X073482Y069601D02*
X073692Y069601D01*
X073692Y069670D02*
X073482Y069670D01*
X073482Y069739D02*
X073692Y069739D01*
X067482Y069742D02*
X067482Y069532D01*
X067482Y069742D02*
X067692Y069742D01*
X067692Y069532D01*
X067482Y069532D01*
X067482Y069601D02*
X067692Y069601D01*
X067692Y069670D02*
X067482Y069670D01*
X067482Y069739D02*
X067692Y069739D01*
X065631Y072156D02*
X065631Y072366D01*
X065841Y072366D01*
X065841Y072156D01*
X065631Y072156D01*
X065631Y072225D02*
X065841Y072225D01*
X065841Y072294D02*
X065631Y072294D01*
X065631Y072363D02*
X065841Y072363D01*
X064574Y075414D02*
X064574Y075624D01*
X064574Y075414D02*
X064364Y075414D01*
X064364Y075624D01*
X064574Y075624D01*
X064574Y075483D02*
X064364Y075483D01*
X064364Y075552D02*
X064574Y075552D01*
X064574Y075621D02*
X064364Y075621D01*
X062723Y078038D02*
X062723Y078248D01*
X062723Y078038D02*
X062513Y078038D01*
X062513Y078248D01*
X062723Y078248D01*
X062723Y078107D02*
X062513Y078107D01*
X062513Y078176D02*
X062723Y078176D01*
X062723Y078245D02*
X062513Y078245D01*
X059631Y072366D02*
X059631Y072156D01*
X059631Y072366D02*
X059841Y072366D01*
X059841Y072156D01*
X059631Y072156D01*
X059631Y072225D02*
X059841Y072225D01*
X059841Y072294D02*
X059631Y072294D01*
X059631Y072363D02*
X059841Y072363D01*
X061482Y069742D02*
X061482Y069532D01*
X061482Y069742D02*
X061692Y069742D01*
X061692Y069532D01*
X061482Y069532D01*
X061482Y069601D02*
X061692Y069601D01*
X061692Y069670D02*
X061482Y069670D01*
X061482Y069739D02*
X061692Y069739D01*
X055482Y069742D02*
X055482Y069532D01*
X055482Y069742D02*
X055692Y069742D01*
X055692Y069532D01*
X055482Y069532D01*
X055482Y069601D02*
X055692Y069601D01*
X055692Y069670D02*
X055482Y069670D01*
X055482Y069739D02*
X055692Y069739D01*
X053631Y072156D02*
X053631Y072366D01*
X053841Y072366D01*
X053841Y072156D01*
X053631Y072156D01*
X053631Y072225D02*
X053841Y072225D01*
X053841Y072294D02*
X053631Y072294D01*
X053631Y072363D02*
X053841Y072363D01*
X052574Y075414D02*
X052574Y075624D01*
X052574Y075414D02*
X052364Y075414D01*
X052364Y075624D01*
X052574Y075624D01*
X052574Y075483D02*
X052364Y075483D01*
X052364Y075552D02*
X052574Y075552D01*
X052574Y075621D02*
X052364Y075621D01*
X050723Y078038D02*
X050723Y078248D01*
X050723Y078038D02*
X050513Y078038D01*
X050513Y078248D01*
X050723Y078248D01*
X050723Y078107D02*
X050513Y078107D01*
X050513Y078176D02*
X050723Y078176D01*
X050723Y078245D02*
X050513Y078245D01*
X046574Y075624D02*
X046574Y075414D01*
X046364Y075414D01*
X046364Y075624D01*
X046574Y075624D01*
X046574Y075483D02*
X046364Y075483D01*
X046364Y075552D02*
X046574Y075552D01*
X046574Y075621D02*
X046364Y075621D01*
X044723Y078038D02*
X044723Y078248D01*
X044723Y078038D02*
X044513Y078038D01*
X044513Y078248D01*
X044723Y078248D01*
X044723Y078107D02*
X044513Y078107D01*
X044513Y078176D02*
X044723Y078176D01*
X044723Y078245D02*
X044513Y078245D01*
X040574Y075624D02*
X040574Y075414D01*
X040364Y075414D01*
X040364Y075624D01*
X040574Y075624D01*
X040574Y075483D02*
X040364Y075483D01*
X040364Y075552D02*
X040574Y075552D01*
X040574Y075621D02*
X040364Y075621D01*
X038723Y078038D02*
X038723Y078248D01*
X038723Y078038D02*
X038513Y078038D01*
X038513Y078248D01*
X038723Y078248D01*
X038723Y078107D02*
X038513Y078107D01*
X038513Y078176D02*
X038723Y078176D01*
X038723Y078245D02*
X038513Y078245D01*
X035786Y072248D02*
X035786Y072038D01*
X035576Y072038D01*
X035576Y072248D01*
X035786Y072248D01*
X035786Y072107D02*
X035576Y072107D01*
X035576Y072176D02*
X035786Y072176D01*
X035786Y072245D02*
X035576Y072245D01*
X037636Y069624D02*
X037636Y069414D01*
X037426Y069414D01*
X037426Y069624D01*
X037636Y069624D01*
X037636Y069483D02*
X037426Y069483D01*
X037426Y069552D02*
X037636Y069552D01*
X037636Y069621D02*
X037426Y069621D01*
X041631Y072156D02*
X041631Y072366D01*
X041841Y072366D01*
X041841Y072156D01*
X041631Y072156D01*
X041631Y072225D02*
X041841Y072225D01*
X041841Y072294D02*
X041631Y072294D01*
X041631Y072363D02*
X041841Y072363D01*
X043482Y069742D02*
X043482Y069532D01*
X043482Y069742D02*
X043692Y069742D01*
X043692Y069532D01*
X043482Y069532D01*
X043482Y069601D02*
X043692Y069601D01*
X043692Y069670D02*
X043482Y069670D01*
X043482Y069739D02*
X043692Y069739D01*
X047631Y072156D02*
X047631Y072366D01*
X047841Y072366D01*
X047841Y072156D01*
X047631Y072156D01*
X047631Y072225D02*
X047841Y072225D01*
X047841Y072294D02*
X047631Y072294D01*
X047631Y072363D02*
X047841Y072363D01*
X049482Y069742D02*
X049482Y069532D01*
X049482Y069742D02*
X049692Y069742D01*
X049692Y069532D01*
X049482Y069532D01*
X049482Y069601D02*
X049692Y069601D01*
X049692Y069670D02*
X049482Y069670D01*
X049482Y069739D02*
X049692Y069739D01*
X044774Y058649D02*
X044564Y058649D01*
X044774Y058649D02*
X044774Y058439D01*
X044564Y058439D01*
X044564Y058649D01*
X044564Y058508D02*
X044774Y058508D01*
X044774Y058577D02*
X044564Y058577D01*
X044564Y058646D02*
X044774Y058646D01*
X042150Y056798D02*
X041940Y056798D01*
X042150Y056798D02*
X042150Y056588D01*
X041940Y056588D01*
X041940Y056798D01*
X041940Y056657D02*
X042150Y056657D01*
X042150Y056726D02*
X041940Y056726D01*
X041940Y056795D02*
X042150Y056795D01*
X044723Y045948D02*
X044723Y045738D01*
X044513Y045738D01*
X044513Y045948D01*
X044723Y045948D01*
X044723Y045807D02*
X044513Y045807D01*
X044513Y045876D02*
X044723Y045876D01*
X044723Y045945D02*
X044513Y045945D01*
X046574Y043324D02*
X046574Y043114D01*
X046364Y043114D01*
X046364Y043324D01*
X046574Y043324D01*
X046574Y043183D02*
X046364Y043183D01*
X046364Y043252D02*
X046574Y043252D01*
X046574Y043321D02*
X046364Y043321D01*
X047631Y040066D02*
X047631Y039856D01*
X047631Y040066D02*
X047841Y040066D01*
X047841Y039856D01*
X047631Y039856D01*
X047631Y039925D02*
X047841Y039925D01*
X047841Y039994D02*
X047631Y039994D01*
X047631Y040063D02*
X047841Y040063D01*
X049482Y037442D02*
X049482Y037232D01*
X049482Y037442D02*
X049692Y037442D01*
X049692Y037232D01*
X049482Y037232D01*
X049482Y037301D02*
X049692Y037301D01*
X049692Y037370D02*
X049482Y037370D01*
X049482Y037439D02*
X049692Y037439D01*
X053631Y039856D02*
X053631Y040066D01*
X053841Y040066D01*
X053841Y039856D01*
X053631Y039856D01*
X053631Y039925D02*
X053841Y039925D01*
X053841Y039994D02*
X053631Y039994D01*
X053631Y040063D02*
X053841Y040063D01*
X055482Y037442D02*
X055482Y037232D01*
X055482Y037442D02*
X055692Y037442D01*
X055692Y037232D01*
X055482Y037232D01*
X055482Y037301D02*
X055692Y037301D01*
X055692Y037370D02*
X055482Y037370D01*
X055482Y037439D02*
X055692Y037439D01*
X059631Y039856D02*
X059631Y040066D01*
X059841Y040066D01*
X059841Y039856D01*
X059631Y039856D01*
X059631Y039925D02*
X059841Y039925D01*
X059841Y039994D02*
X059631Y039994D01*
X059631Y040063D02*
X059841Y040063D01*
X061482Y037442D02*
X061482Y037232D01*
X061482Y037442D02*
X061692Y037442D01*
X061692Y037232D01*
X061482Y037232D01*
X061482Y037301D02*
X061692Y037301D01*
X061692Y037370D02*
X061482Y037370D01*
X061482Y037439D02*
X061692Y037439D01*
X065631Y039856D02*
X065631Y040066D01*
X065841Y040066D01*
X065841Y039856D01*
X065631Y039856D01*
X065631Y039925D02*
X065841Y039925D01*
X065841Y039994D02*
X065631Y039994D01*
X065631Y040063D02*
X065841Y040063D01*
X067482Y037442D02*
X067482Y037232D01*
X067482Y037442D02*
X067692Y037442D01*
X067692Y037232D01*
X067482Y037232D01*
X067482Y037301D02*
X067692Y037301D01*
X067692Y037370D02*
X067482Y037370D01*
X067482Y037439D02*
X067692Y037439D01*
X071631Y039856D02*
X071631Y040066D01*
X071841Y040066D01*
X071841Y039856D01*
X071631Y039856D01*
X071631Y039925D02*
X071841Y039925D01*
X071841Y039994D02*
X071631Y039994D01*
X071631Y040063D02*
X071841Y040063D01*
X073482Y037442D02*
X073482Y037232D01*
X073482Y037442D02*
X073692Y037442D01*
X073692Y037232D01*
X073482Y037232D01*
X073482Y037301D02*
X073692Y037301D01*
X073692Y037370D02*
X073482Y037370D01*
X073482Y037439D02*
X073692Y037439D01*
X070574Y043114D02*
X070574Y043324D01*
X070574Y043114D02*
X070364Y043114D01*
X070364Y043324D01*
X070574Y043324D01*
X070574Y043183D02*
X070364Y043183D01*
X070364Y043252D02*
X070574Y043252D01*
X070574Y043321D02*
X070364Y043321D01*
X068723Y045738D02*
X068723Y045948D01*
X068723Y045738D02*
X068513Y045738D01*
X068513Y045948D01*
X068723Y045948D01*
X068723Y045807D02*
X068513Y045807D01*
X068513Y045876D02*
X068723Y045876D01*
X068723Y045945D02*
X068513Y045945D01*
X064574Y043324D02*
X064574Y043114D01*
X064364Y043114D01*
X064364Y043324D01*
X064574Y043324D01*
X064574Y043183D02*
X064364Y043183D01*
X064364Y043252D02*
X064574Y043252D01*
X064574Y043321D02*
X064364Y043321D01*
X062723Y045738D02*
X062723Y045948D01*
X062723Y045738D02*
X062513Y045738D01*
X062513Y045948D01*
X062723Y045948D01*
X062723Y045807D02*
X062513Y045807D01*
X062513Y045876D02*
X062723Y045876D01*
X062723Y045945D02*
X062513Y045945D01*
X052574Y043324D02*
X052574Y043114D01*
X052364Y043114D01*
X052364Y043324D01*
X052574Y043324D01*
X052574Y043183D02*
X052364Y043183D01*
X052364Y043252D02*
X052574Y043252D01*
X052574Y043321D02*
X052364Y043321D01*
X050723Y045738D02*
X050723Y045948D01*
X050723Y045738D02*
X050513Y045738D01*
X050513Y045948D01*
X050723Y045948D01*
X050723Y045807D02*
X050513Y045807D01*
X050513Y045876D02*
X050723Y045876D01*
X050723Y045945D02*
X050513Y045945D01*
X043482Y037442D02*
X043482Y037232D01*
X043482Y037442D02*
X043692Y037442D01*
X043692Y037232D01*
X043482Y037232D01*
X043482Y037301D02*
X043692Y037301D01*
X043692Y037370D02*
X043482Y037370D01*
X043482Y037439D02*
X043692Y037439D01*
X041631Y039856D02*
X041631Y040066D01*
X041841Y040066D01*
X041841Y039856D01*
X041631Y039856D01*
X041631Y039925D02*
X041841Y039925D01*
X041841Y039994D02*
X041631Y039994D01*
X041631Y040063D02*
X041841Y040063D01*
X040574Y043114D02*
X040574Y043324D01*
X040574Y043114D02*
X040364Y043114D01*
X040364Y043324D01*
X040574Y043324D01*
X040574Y043183D02*
X040364Y043183D01*
X040364Y043252D02*
X040574Y043252D01*
X040574Y043321D02*
X040364Y043321D01*
X038723Y045738D02*
X038723Y045948D01*
X038723Y045738D02*
X038513Y045738D01*
X038513Y045948D01*
X038723Y045948D01*
X038723Y045807D02*
X038513Y045807D01*
X038513Y045876D02*
X038723Y045876D01*
X038723Y045945D02*
X038513Y045945D01*
X035786Y039948D02*
X035786Y039738D01*
X035576Y039738D01*
X035576Y039948D01*
X035786Y039948D01*
X035786Y039807D02*
X035576Y039807D01*
X035576Y039876D02*
X035786Y039876D01*
X035786Y039945D02*
X035576Y039945D01*
X037636Y037324D02*
X037636Y037114D01*
X037426Y037114D01*
X037426Y037324D01*
X037636Y037324D01*
X037636Y037183D02*
X037426Y037183D01*
X037426Y037252D02*
X037636Y037252D01*
X037636Y037321D02*
X037426Y037321D01*
X031574Y037324D02*
X031574Y037114D01*
X031364Y037114D01*
X031364Y037324D01*
X031574Y037324D01*
X031574Y037183D02*
X031364Y037183D01*
X031364Y037252D02*
X031574Y037252D01*
X031574Y037321D02*
X031364Y037321D01*
X029723Y039738D02*
X029723Y039948D01*
X029723Y039738D02*
X029513Y039738D01*
X029513Y039948D01*
X029723Y039948D01*
X029723Y039807D02*
X029513Y039807D01*
X029513Y039876D02*
X029723Y039876D01*
X029723Y039945D02*
X029513Y039945D01*
X028574Y043114D02*
X028574Y043324D01*
X028574Y043114D02*
X028364Y043114D01*
X028364Y043324D01*
X028574Y043324D01*
X028574Y043183D02*
X028364Y043183D01*
X028364Y043252D02*
X028574Y043252D01*
X028574Y043321D02*
X028364Y043321D01*
X026723Y045738D02*
X026723Y045948D01*
X026723Y045738D02*
X026513Y045738D01*
X026513Y045948D01*
X026723Y045948D01*
X026723Y045807D02*
X026513Y045807D01*
X026513Y045876D02*
X026723Y045876D01*
X026723Y045945D02*
X026513Y045945D01*
X022574Y043324D02*
X022574Y043114D01*
X022364Y043114D01*
X022364Y043324D01*
X022574Y043324D01*
X022574Y043183D02*
X022364Y043183D01*
X022364Y043252D02*
X022574Y043252D01*
X022574Y043321D02*
X022364Y043321D01*
X020723Y045738D02*
X020723Y045948D01*
X020723Y045738D02*
X020513Y045738D01*
X020513Y045948D01*
X020723Y045948D01*
X020723Y045807D02*
X020513Y045807D01*
X020513Y045876D02*
X020723Y045876D01*
X020723Y045945D02*
X020513Y045945D01*
X023723Y039948D02*
X023723Y039738D01*
X023513Y039738D01*
X023513Y039948D01*
X023723Y039948D01*
X023723Y039807D02*
X023513Y039807D01*
X023513Y039876D02*
X023723Y039876D01*
X023723Y039945D02*
X023513Y039945D01*
X025574Y037324D02*
X025574Y037114D01*
X025364Y037114D01*
X025364Y037324D01*
X025574Y037324D01*
X025574Y037183D02*
X025364Y037183D01*
X025364Y037252D02*
X025574Y037252D01*
X025574Y037321D02*
X025364Y037321D01*
X013574Y037324D02*
X013574Y037114D01*
X013364Y037114D01*
X013364Y037324D01*
X013574Y037324D01*
X013574Y037183D02*
X013364Y037183D01*
X013364Y037252D02*
X013574Y037252D01*
X013574Y037321D02*
X013364Y037321D01*
X011723Y039738D02*
X011723Y039948D01*
X011723Y039738D02*
X011513Y039738D01*
X011513Y039948D01*
X011723Y039948D01*
X011723Y039807D02*
X011513Y039807D01*
X011513Y039876D02*
X011723Y039876D01*
X011723Y039945D02*
X011513Y039945D01*
X007574Y037324D02*
X007574Y037114D01*
X007364Y037114D01*
X007364Y037324D01*
X007574Y037324D01*
X007574Y037183D02*
X007364Y037183D01*
X007364Y037252D02*
X007574Y037252D01*
X007574Y037321D02*
X007364Y037321D01*
X005723Y039738D02*
X005723Y039948D01*
X005723Y039738D02*
X005513Y039738D01*
X005513Y039948D01*
X005723Y039948D01*
X005723Y039807D02*
X005513Y039807D01*
X005513Y039876D02*
X005723Y039876D01*
X005723Y039945D02*
X005513Y039945D01*
X020723Y013648D02*
X020723Y013438D01*
X020513Y013438D01*
X020513Y013648D01*
X020723Y013648D01*
X020723Y013507D02*
X020513Y013507D01*
X020513Y013576D02*
X020723Y013576D01*
X020723Y013645D02*
X020513Y013645D01*
X022574Y011024D02*
X022574Y010814D01*
X022364Y010814D01*
X022364Y011024D01*
X022574Y011024D01*
X022574Y010883D02*
X022364Y010883D01*
X022364Y010952D02*
X022574Y010952D01*
X022574Y011021D02*
X022364Y011021D01*
X023723Y007648D02*
X023723Y007438D01*
X023513Y007438D01*
X023513Y007648D01*
X023723Y007648D01*
X023723Y007507D02*
X023513Y007507D01*
X023513Y007576D02*
X023723Y007576D01*
X023723Y007645D02*
X023513Y007645D01*
X025574Y005024D02*
X025574Y004814D01*
X025364Y004814D01*
X025364Y005024D01*
X025574Y005024D01*
X025574Y004883D02*
X025364Y004883D01*
X025364Y004952D02*
X025574Y004952D01*
X025574Y005021D02*
X025364Y005021D01*
X029723Y007438D02*
X029723Y007648D01*
X029723Y007438D02*
X029513Y007438D01*
X029513Y007648D01*
X029723Y007648D01*
X029723Y007507D02*
X029513Y007507D01*
X029513Y007576D02*
X029723Y007576D01*
X029723Y007645D02*
X029513Y007645D01*
X031574Y005024D02*
X031574Y004814D01*
X031364Y004814D01*
X031364Y005024D01*
X031574Y005024D01*
X031574Y004883D02*
X031364Y004883D01*
X031364Y004952D02*
X031574Y004952D01*
X031574Y005021D02*
X031364Y005021D01*
X035786Y007438D02*
X035786Y007648D01*
X035786Y007438D02*
X035576Y007438D01*
X035576Y007648D01*
X035786Y007648D01*
X035786Y007507D02*
X035576Y007507D01*
X035576Y007576D02*
X035786Y007576D01*
X035786Y007645D02*
X035576Y007645D01*
X037636Y005024D02*
X037636Y004814D01*
X037426Y004814D01*
X037426Y005024D01*
X037636Y005024D01*
X037636Y004883D02*
X037426Y004883D01*
X037426Y004952D02*
X037636Y004952D01*
X037636Y005021D02*
X037426Y005021D01*
X041631Y007556D02*
X041631Y007766D01*
X041841Y007766D01*
X041841Y007556D01*
X041631Y007556D01*
X041631Y007625D02*
X041841Y007625D01*
X041841Y007694D02*
X041631Y007694D01*
X041631Y007763D02*
X041841Y007763D01*
X043482Y005142D02*
X043482Y004932D01*
X043482Y005142D02*
X043692Y005142D01*
X043692Y004932D01*
X043482Y004932D01*
X043482Y005001D02*
X043692Y005001D01*
X043692Y005070D02*
X043482Y005070D01*
X043482Y005139D02*
X043692Y005139D01*
X047631Y007556D02*
X047631Y007766D01*
X047841Y007766D01*
X047841Y007556D01*
X047631Y007556D01*
X047631Y007625D02*
X047841Y007625D01*
X047841Y007694D02*
X047631Y007694D01*
X047631Y007763D02*
X047841Y007763D01*
X049482Y005142D02*
X049482Y004932D01*
X049482Y005142D02*
X049692Y005142D01*
X049692Y004932D01*
X049482Y004932D01*
X049482Y005001D02*
X049692Y005001D01*
X049692Y005070D02*
X049482Y005070D01*
X049482Y005139D02*
X049692Y005139D01*
X053631Y007556D02*
X053631Y007766D01*
X053841Y007766D01*
X053841Y007556D01*
X053631Y007556D01*
X053631Y007625D02*
X053841Y007625D01*
X053841Y007694D02*
X053631Y007694D01*
X053631Y007763D02*
X053841Y007763D01*
X055482Y005142D02*
X055482Y004932D01*
X055482Y005142D02*
X055692Y005142D01*
X055692Y004932D01*
X055482Y004932D01*
X055482Y005001D02*
X055692Y005001D01*
X055692Y005070D02*
X055482Y005070D01*
X055482Y005139D02*
X055692Y005139D01*
X059631Y007556D02*
X059631Y007766D01*
X059841Y007766D01*
X059841Y007556D01*
X059631Y007556D01*
X059631Y007625D02*
X059841Y007625D01*
X059841Y007694D02*
X059631Y007694D01*
X059631Y007763D02*
X059841Y007763D01*
X061482Y005142D02*
X061482Y004932D01*
X061482Y005142D02*
X061692Y005142D01*
X061692Y004932D01*
X061482Y004932D01*
X061482Y005001D02*
X061692Y005001D01*
X061692Y005070D02*
X061482Y005070D01*
X061482Y005139D02*
X061692Y005139D01*
X065631Y007556D02*
X065631Y007766D01*
X065841Y007766D01*
X065841Y007556D01*
X065631Y007556D01*
X065631Y007625D02*
X065841Y007625D01*
X065841Y007694D02*
X065631Y007694D01*
X065631Y007763D02*
X065841Y007763D01*
X067482Y005142D02*
X067482Y004932D01*
X067482Y005142D02*
X067692Y005142D01*
X067692Y004932D01*
X067482Y004932D01*
X067482Y005001D02*
X067692Y005001D01*
X067692Y005070D02*
X067482Y005070D01*
X067482Y005139D02*
X067692Y005139D01*
X071631Y007556D02*
X071631Y007766D01*
X071841Y007766D01*
X071841Y007556D01*
X071631Y007556D01*
X071631Y007625D02*
X071841Y007625D01*
X071841Y007694D02*
X071631Y007694D01*
X071631Y007763D02*
X071841Y007763D01*
X073482Y005142D02*
X073482Y004932D01*
X073482Y005142D02*
X073692Y005142D01*
X073692Y004932D01*
X073482Y004932D01*
X073482Y005001D02*
X073692Y005001D01*
X073692Y005070D02*
X073482Y005070D01*
X073482Y005139D02*
X073692Y005139D01*
X070574Y010814D02*
X070574Y011024D01*
X070574Y010814D02*
X070364Y010814D01*
X070364Y011024D01*
X070574Y011024D01*
X070574Y010883D02*
X070364Y010883D01*
X070364Y010952D02*
X070574Y010952D01*
X070574Y011021D02*
X070364Y011021D01*
X068723Y013438D02*
X068723Y013648D01*
X068723Y013438D02*
X068513Y013438D01*
X068513Y013648D01*
X068723Y013648D01*
X068723Y013507D02*
X068513Y013507D01*
X068513Y013576D02*
X068723Y013576D01*
X068723Y013645D02*
X068513Y013645D01*
X064574Y011024D02*
X064574Y010814D01*
X064364Y010814D01*
X064364Y011024D01*
X064574Y011024D01*
X064574Y010883D02*
X064364Y010883D01*
X064364Y010952D02*
X064574Y010952D01*
X064574Y011021D02*
X064364Y011021D01*
X062723Y013438D02*
X062723Y013648D01*
X062723Y013438D02*
X062513Y013438D01*
X062513Y013648D01*
X062723Y013648D01*
X062723Y013507D02*
X062513Y013507D01*
X062513Y013576D02*
X062723Y013576D01*
X062723Y013645D02*
X062513Y013645D01*
X052574Y011024D02*
X052574Y010814D01*
X052364Y010814D01*
X052364Y011024D01*
X052574Y011024D01*
X052574Y010883D02*
X052364Y010883D01*
X052364Y010952D02*
X052574Y010952D01*
X052574Y011021D02*
X052364Y011021D01*
X050723Y013438D02*
X050723Y013648D01*
X050723Y013438D02*
X050513Y013438D01*
X050513Y013648D01*
X050723Y013648D01*
X050723Y013507D02*
X050513Y013507D01*
X050513Y013576D02*
X050723Y013576D01*
X050723Y013645D02*
X050513Y013645D01*
X046574Y011024D02*
X046574Y010814D01*
X046364Y010814D01*
X046364Y011024D01*
X046574Y011024D01*
X046574Y010883D02*
X046364Y010883D01*
X046364Y010952D02*
X046574Y010952D01*
X046574Y011021D02*
X046364Y011021D01*
X044723Y013438D02*
X044723Y013648D01*
X044723Y013438D02*
X044513Y013438D01*
X044513Y013648D01*
X044723Y013648D01*
X044723Y013507D02*
X044513Y013507D01*
X044513Y013576D02*
X044723Y013576D01*
X044723Y013645D02*
X044513Y013645D01*
X040574Y011024D02*
X040574Y010814D01*
X040364Y010814D01*
X040364Y011024D01*
X040574Y011024D01*
X040574Y010883D02*
X040364Y010883D01*
X040364Y010952D02*
X040574Y010952D01*
X040574Y011021D02*
X040364Y011021D01*
X038723Y013438D02*
X038723Y013648D01*
X038723Y013438D02*
X038513Y013438D01*
X038513Y013648D01*
X038723Y013648D01*
X038723Y013507D02*
X038513Y013507D01*
X038513Y013576D02*
X038723Y013576D01*
X038723Y013645D02*
X038513Y013645D01*
X041940Y024498D02*
X042150Y024498D01*
X042150Y024288D01*
X041940Y024288D01*
X041940Y024498D01*
X041940Y024357D02*
X042150Y024357D01*
X042150Y024426D02*
X041940Y024426D01*
X041940Y024495D02*
X042150Y024495D01*
X044564Y026349D02*
X044774Y026349D01*
X044774Y026139D01*
X044564Y026139D01*
X044564Y026349D01*
X044564Y026208D02*
X044774Y026208D01*
X044774Y026277D02*
X044564Y026277D01*
X044564Y026346D02*
X044774Y026346D01*
X028574Y011024D02*
X028574Y010814D01*
X028364Y010814D01*
X028364Y011024D01*
X028574Y011024D01*
X028574Y010883D02*
X028364Y010883D01*
X028364Y010952D02*
X028574Y010952D01*
X028574Y011021D02*
X028364Y011021D01*
X026723Y013438D02*
X026723Y013648D01*
X026723Y013438D02*
X026513Y013438D01*
X026513Y013648D01*
X026723Y013648D01*
X026723Y013507D02*
X026513Y013507D01*
X026513Y013576D02*
X026723Y013576D01*
X026723Y013645D02*
X026513Y013645D01*
X013574Y005024D02*
X013574Y004814D01*
X013364Y004814D01*
X013364Y005024D01*
X013574Y005024D01*
X013574Y004883D02*
X013364Y004883D01*
X013364Y004952D02*
X013574Y004952D01*
X013574Y005021D02*
X013364Y005021D01*
X011723Y007438D02*
X011723Y007648D01*
X011723Y007438D02*
X011513Y007438D01*
X011513Y007648D01*
X011723Y007648D01*
X011723Y007507D02*
X011513Y007507D01*
X011513Y007576D02*
X011723Y007576D01*
X011723Y007645D02*
X011513Y007645D01*
X007574Y005024D02*
X007574Y004814D01*
X007364Y004814D01*
X007364Y005024D01*
X007574Y005024D01*
X007574Y004883D02*
X007364Y004883D01*
X007364Y004952D02*
X007574Y004952D01*
X007574Y005021D02*
X007364Y005021D01*
X005723Y007438D02*
X005723Y007648D01*
X005723Y007438D02*
X005513Y007438D01*
X005513Y007648D01*
X005723Y007648D01*
X005723Y007507D02*
X005513Y007507D01*
X005513Y007576D02*
X005723Y007576D01*
X005723Y007645D02*
X005513Y007645D01*
X007574Y069414D02*
X007574Y069624D01*
X007574Y069414D02*
X007364Y069414D01*
X007364Y069624D01*
X007574Y069624D01*
X007574Y069483D02*
X007364Y069483D01*
X007364Y069552D02*
X007574Y069552D01*
X007574Y069621D02*
X007364Y069621D01*
X005723Y072038D02*
X005723Y072248D01*
X005723Y072038D02*
X005513Y072038D01*
X005513Y072248D01*
X005723Y072248D01*
X005723Y072107D02*
X005513Y072107D01*
X005513Y072176D02*
X005723Y072176D01*
X005723Y072245D02*
X005513Y072245D01*
X011723Y072248D02*
X011723Y072038D01*
X011513Y072038D01*
X011513Y072248D01*
X011723Y072248D01*
X011723Y072107D02*
X011513Y072107D01*
X011513Y072176D02*
X011723Y072176D01*
X011723Y072245D02*
X011513Y072245D01*
X013574Y069624D02*
X013574Y069414D01*
X013364Y069414D01*
X013364Y069624D01*
X013574Y069624D01*
X013574Y069483D02*
X013364Y069483D01*
X013364Y069552D02*
X013574Y069552D01*
X013574Y069621D02*
X013364Y069621D01*
X020723Y078038D02*
X020723Y078248D01*
X020723Y078038D02*
X020513Y078038D01*
X020513Y078248D01*
X020723Y078248D01*
X020723Y078107D02*
X020513Y078107D01*
X020513Y078176D02*
X020723Y078176D01*
X020723Y078245D02*
X020513Y078245D01*
X022574Y075624D02*
X022574Y075414D01*
X022364Y075414D01*
X022364Y075624D01*
X022574Y075624D01*
X022574Y075483D02*
X022364Y075483D01*
X022364Y075552D02*
X022574Y075552D01*
X022574Y075621D02*
X022364Y075621D01*
X023723Y072248D02*
X023723Y072038D01*
X023513Y072038D01*
X023513Y072248D01*
X023723Y072248D01*
X023723Y072107D02*
X023513Y072107D01*
X023513Y072176D02*
X023723Y072176D01*
X023723Y072245D02*
X023513Y072245D01*
X025574Y069624D02*
X025574Y069414D01*
X025364Y069414D01*
X025364Y069624D01*
X025574Y069624D01*
X025574Y069483D02*
X025364Y069483D01*
X025364Y069552D02*
X025574Y069552D01*
X025574Y069621D02*
X025364Y069621D01*
X029723Y072038D02*
X029723Y072248D01*
X029723Y072038D02*
X029513Y072038D01*
X029513Y072248D01*
X029723Y072248D01*
X029723Y072107D02*
X029513Y072107D01*
X029513Y072176D02*
X029723Y072176D01*
X029723Y072245D02*
X029513Y072245D01*
X031574Y069624D02*
X031574Y069414D01*
X031364Y069414D01*
X031364Y069624D01*
X031574Y069624D01*
X031574Y069483D02*
X031364Y069483D01*
X031364Y069552D02*
X031574Y069552D01*
X031574Y069621D02*
X031364Y069621D01*
X028574Y075414D02*
X028574Y075624D01*
X028574Y075414D02*
X028364Y075414D01*
X028364Y075624D01*
X028574Y075624D01*
X028574Y075483D02*
X028364Y075483D01*
X028364Y075552D02*
X028574Y075552D01*
X028574Y075621D02*
X028364Y075621D01*
X026723Y078038D02*
X026723Y078248D01*
X026723Y078038D02*
X026513Y078038D01*
X026513Y078248D01*
X026723Y078248D01*
X026723Y078107D02*
X026513Y078107D01*
X026513Y078176D02*
X026723Y078176D01*
X026723Y078245D02*
X026513Y078245D01*
X041940Y089098D02*
X042150Y089098D01*
X042150Y088888D01*
X041940Y088888D01*
X041940Y089098D01*
X041940Y088957D02*
X042150Y088957D01*
X042150Y089026D02*
X041940Y089026D01*
X041940Y089095D02*
X042150Y089095D01*
X044564Y090949D02*
X044774Y090949D01*
X044774Y090739D01*
X044564Y090739D01*
X044564Y090949D01*
X044564Y090808D02*
X044774Y090808D01*
X044774Y090877D02*
X044564Y090877D01*
X044564Y090946D02*
X044774Y090946D01*
D15*
X043298Y089978D03*
X045603Y076890D03*
X048603Y070890D03*
X051603Y076890D03*
X054603Y070890D03*
X060603Y070890D03*
X063603Y076890D03*
X066603Y070890D03*
X069603Y076890D03*
X072603Y070890D03*
X069603Y044590D03*
X072603Y038590D03*
X066603Y038590D03*
X063603Y044590D03*
X060603Y038590D03*
X054603Y038590D03*
X051603Y044590D03*
X048603Y038590D03*
X045603Y044590D03*
X042603Y038590D03*
X039603Y044590D03*
X036665Y038590D03*
X030603Y038590D03*
X027603Y044590D03*
X024603Y038590D03*
X021603Y044590D03*
X012603Y038590D03*
X006603Y038590D03*
X021603Y012290D03*
X024603Y006290D03*
X027603Y012290D03*
X030603Y006290D03*
X036665Y006290D03*
X039603Y012290D03*
X042603Y006290D03*
X045603Y012290D03*
X048603Y006290D03*
X051603Y012290D03*
X054603Y006290D03*
X060603Y006290D03*
X063603Y012290D03*
X066603Y006290D03*
X069603Y012290D03*
X072603Y006290D03*
X043298Y025378D03*
X043298Y057678D03*
X042603Y070890D03*
X039603Y076890D03*
X036665Y070890D03*
X030603Y070890D03*
X027603Y076890D03*
X024603Y070890D03*
X021603Y076890D03*
X012603Y070890D03*
X006603Y070890D03*
X006603Y006290D03*
X012603Y006290D03*
D16*
X012978Y009415D03*
X012978Y010415D03*
X011978Y010415D03*
X011978Y009415D03*
X010978Y009415D03*
X010978Y010415D03*
X010978Y041715D03*
X010978Y042715D03*
X011978Y042715D03*
X012978Y042715D03*
X012978Y041715D03*
X011978Y041715D03*
X011978Y074015D03*
X012978Y074015D03*
X012978Y075015D03*
X011978Y075015D03*
X010978Y075015D03*
X010978Y074015D03*
D17*
X009235Y086849D02*
X009235Y087443D01*
X008251Y087443D02*
X008251Y086849D01*
X007266Y086849D02*
X007266Y087443D01*
X017266Y087380D02*
X017266Y086786D01*
X018251Y086786D02*
X018251Y087380D01*
X019235Y087380D02*
X019235Y086786D01*
X027266Y086849D02*
X027266Y087443D01*
X028251Y087443D02*
X028251Y086849D01*
X029235Y086849D02*
X029235Y087443D01*
X055266Y087443D02*
X055266Y086849D01*
X056251Y086849D02*
X056251Y087443D01*
X057235Y087443D02*
X057235Y086849D01*
X065266Y086849D02*
X065266Y087443D01*
X066251Y087443D02*
X066251Y086849D01*
X067235Y086849D02*
X067235Y087443D01*
X067235Y055143D02*
X067235Y054549D01*
X066251Y054549D02*
X066251Y055143D01*
X065266Y055143D02*
X065266Y054549D01*
X057235Y054549D02*
X057235Y055143D01*
X056251Y055143D02*
X056251Y054549D01*
X055266Y054549D02*
X055266Y055143D01*
X029235Y055143D02*
X029235Y054549D01*
X028251Y054549D02*
X028251Y055143D01*
X027266Y055143D02*
X027266Y054549D01*
X019235Y054486D02*
X019235Y055080D01*
X018251Y055080D02*
X018251Y054486D01*
X017266Y054486D02*
X017266Y055080D01*
X009235Y055143D02*
X009235Y054549D01*
X008251Y054549D02*
X008251Y055143D01*
X007266Y055143D02*
X007266Y054549D01*
X007266Y022843D02*
X007266Y022249D01*
X008251Y022249D02*
X008251Y022843D01*
X009235Y022843D02*
X009235Y022249D01*
X017266Y022186D02*
X017266Y022780D01*
X018251Y022780D02*
X018251Y022186D01*
X019235Y022186D02*
X019235Y022780D01*
X027266Y022843D02*
X027266Y022249D01*
X028251Y022249D02*
X028251Y022843D01*
X029235Y022843D02*
X029235Y022249D01*
X055266Y022249D02*
X055266Y022843D01*
X056251Y022843D02*
X056251Y022249D01*
X057235Y022249D02*
X057235Y022843D01*
X065266Y022843D02*
X065266Y022249D01*
X066251Y022249D02*
X066251Y022843D01*
X067235Y022843D02*
X067235Y022249D01*
D18*
X068141Y025499D03*
X064322Y025499D03*
X058141Y025499D03*
X054322Y025499D03*
X030141Y025499D03*
X026322Y025499D03*
X020141Y025436D03*
X016322Y025436D03*
X010141Y025499D03*
X006322Y025499D03*
X006322Y057799D03*
X010141Y057799D03*
X016322Y057736D03*
X020141Y057736D03*
X026322Y057799D03*
X030141Y057799D03*
X054322Y057799D03*
X058141Y057799D03*
X064322Y057799D03*
X068141Y057799D03*
X068141Y090099D03*
X064322Y090099D03*
X058141Y090099D03*
X054322Y090099D03*
X030141Y090099D03*
X026322Y090099D03*
X020141Y090036D03*
X016322Y090036D03*
X010141Y090099D03*
X006322Y090099D03*
D19*
X038665Y095515D03*
X039665Y095515D03*
X040665Y095515D03*
X041665Y095515D03*
X042665Y095515D03*
X043665Y095515D03*
X043665Y063215D03*
X042665Y063215D03*
X041665Y063215D03*
X040665Y063215D03*
X039665Y063215D03*
X038665Y063215D03*
X038665Y030915D03*
X039665Y030915D03*
X040665Y030915D03*
X041665Y030915D03*
X042665Y030915D03*
X043665Y030915D03*
D20*
X041164Y030915D03*
X041164Y063215D03*
X041164Y095515D03*
D21*
X041665Y093140D03*
X042665Y092828D03*
X041228Y091953D03*
X039978Y091015D03*
X039228Y091453D03*
X038040Y092265D03*
X036915Y092703D03*
X036540Y091140D03*
X036103Y089265D03*
X038728Y089203D03*
X038728Y089828D03*
X038728Y088578D03*
X038603Y087703D03*
X039728Y085890D03*
X040790Y086203D03*
X041103Y088578D03*
X037978Y085640D03*
X036103Y083203D03*
X034853Y082515D03*
X033415Y082203D03*
X032228Y082515D03*
X030728Y081953D03*
X030103Y079640D03*
X030103Y078265D03*
X028165Y079953D03*
X025290Y080578D03*
X025040Y077578D03*
X022915Y074703D03*
X025665Y074078D03*
X027353Y070765D03*
X028040Y070578D03*
X030478Y067328D03*
X030040Y066953D03*
X030978Y067703D03*
X031415Y068078D03*
X031853Y068453D03*
X033665Y070390D03*
X034540Y068328D03*
X035165Y068328D03*
X035790Y068328D03*
X036790Y066078D03*
X039853Y069828D03*
X036478Y073765D03*
X037353Y074953D03*
X034915Y077078D03*
X035665Y079828D03*
X032790Y080140D03*
X027478Y085203D03*
X030790Y088453D03*
X033603Y091078D03*
X033603Y092765D03*
X041228Y083328D03*
X042165Y083390D03*
X044290Y079765D03*
X046540Y079390D03*
X050353Y080073D03*
X050290Y085515D03*
X051978Y087953D03*
X045478Y087265D03*
X044728Y085890D03*
X045415Y091265D03*
X042415Y075828D03*
X041790Y074953D03*
X041665Y060840D03*
X042665Y060528D03*
X041228Y059653D03*
X039978Y058715D03*
X039228Y059153D03*
X038728Y057528D03*
X038728Y056903D03*
X038728Y056278D03*
X038603Y055403D03*
X039728Y053590D03*
X040790Y053903D03*
X041103Y056278D03*
X037978Y053340D03*
X036103Y050903D03*
X034853Y050215D03*
X033415Y049903D03*
X032228Y050215D03*
X030728Y049653D03*
X032790Y047840D03*
X030103Y047340D03*
X030103Y045965D03*
X028165Y047653D03*
X025290Y048278D03*
X025040Y045278D03*
X025665Y041778D03*
X022915Y042403D03*
X019728Y040153D03*
X018978Y039965D03*
X019040Y040590D03*
X018165Y040465D03*
X019415Y039153D03*
X018415Y037778D03*
X017915Y038153D03*
X017415Y038528D03*
X016540Y033153D03*
X015790Y033153D03*
X011290Y033153D03*
X006915Y034653D03*
X006228Y036340D03*
X006790Y041340D03*
X006040Y042153D03*
X008540Y041278D03*
X010353Y040778D03*
X010665Y044465D03*
X008915Y044528D03*
X008915Y045465D03*
X007353Y047090D03*
X008010Y048995D03*
X006103Y053215D03*
X013665Y044653D03*
X015915Y047840D03*
X016540Y047840D03*
X017040Y045090D03*
X016478Y044903D03*
X019478Y045215D03*
X019853Y047778D03*
X015415Y053840D03*
X024103Y057028D03*
X024728Y057715D03*
X027478Y052903D03*
X030790Y056153D03*
X033603Y058778D03*
X033603Y060465D03*
X036540Y058840D03*
X036915Y060403D03*
X038040Y059965D03*
X036103Y056965D03*
X041228Y051028D03*
X042165Y051090D03*
X044728Y053590D03*
X045478Y054965D03*
X045415Y058965D03*
X050290Y053215D03*
X051978Y055653D03*
X050353Y047773D03*
X046540Y047090D03*
X044290Y047465D03*
X042415Y043528D03*
X041790Y042653D03*
X039853Y037528D03*
X036790Y033778D03*
X035790Y036028D03*
X035165Y036028D03*
X034540Y036028D03*
X033665Y038090D03*
X031853Y036153D03*
X031415Y035778D03*
X030978Y035403D03*
X030478Y035028D03*
X030040Y034653D03*
X028040Y038278D03*
X027353Y038465D03*
X025290Y035215D03*
X024728Y025415D03*
X024103Y024728D03*
X027478Y020603D03*
X030728Y017353D03*
X032228Y017915D03*
X033415Y017603D03*
X034853Y017915D03*
X036103Y018603D03*
X037978Y021040D03*
X039728Y021290D03*
X040790Y021603D03*
X041103Y023978D03*
X038728Y023978D03*
X038728Y024603D03*
X038728Y025228D03*
X039228Y026853D03*
X039978Y026415D03*
X041228Y027353D03*
X041665Y028540D03*
X042665Y028228D03*
X045415Y026665D03*
X045478Y022665D03*
X044728Y021290D03*
X042165Y018790D03*
X041228Y018728D03*
X044290Y015165D03*
X046540Y014790D03*
X050353Y015473D03*
X050290Y020915D03*
X051978Y023353D03*
X059290Y018540D03*
X060165Y019415D03*
X060415Y020540D03*
X042415Y011228D03*
X041790Y010353D03*
X039853Y005228D03*
X036790Y001478D03*
X035790Y003728D03*
X035165Y003728D03*
X034540Y003728D03*
X033665Y005790D03*
X031853Y003853D03*
X031415Y003478D03*
X030978Y003103D03*
X030478Y002728D03*
X030040Y002353D03*
X028040Y005978D03*
X027353Y006165D03*
X025665Y009478D03*
X022915Y010103D03*
X025040Y012978D03*
X025290Y015978D03*
X028165Y015353D03*
X030103Y015040D03*
X030103Y013665D03*
X032790Y015540D03*
X035665Y015228D03*
X034915Y012478D03*
X037353Y010353D03*
X036478Y009165D03*
X025290Y002915D03*
X019728Y007853D03*
X018978Y007665D03*
X019040Y008290D03*
X018165Y008165D03*
X019415Y006853D03*
X018415Y005478D03*
X017915Y005853D03*
X017415Y006228D03*
X016540Y000853D03*
X015790Y000853D03*
X011290Y000853D03*
X006915Y002353D03*
X006228Y004040D03*
X006790Y009040D03*
X006040Y009853D03*
X008540Y008978D03*
X010353Y008478D03*
X010665Y012165D03*
X008915Y012228D03*
X008915Y013165D03*
X007353Y014790D03*
X008010Y016695D03*
X006103Y020915D03*
X013665Y012353D03*
X016478Y012603D03*
X017040Y012790D03*
X019478Y012915D03*
X019853Y015478D03*
X016540Y015540D03*
X015915Y015540D03*
X015415Y021540D03*
X030790Y023853D03*
X033603Y026478D03*
X033603Y028165D03*
X036540Y026540D03*
X036915Y028103D03*
X038040Y027665D03*
X036103Y024665D03*
X038603Y023103D03*
X036478Y041465D03*
X037353Y042653D03*
X034915Y044778D03*
X035665Y047528D03*
X025290Y067515D03*
X019728Y072453D03*
X018978Y072265D03*
X019040Y072890D03*
X018165Y072765D03*
X019415Y071453D03*
X018415Y070078D03*
X017915Y070453D03*
X017415Y070828D03*
X016540Y065453D03*
X015790Y065453D03*
X011290Y065453D03*
X006915Y066953D03*
X006228Y068640D03*
X006790Y073640D03*
X006040Y074453D03*
X008540Y073578D03*
X010353Y073078D03*
X010665Y076765D03*
X008915Y076828D03*
X008915Y077765D03*
X007353Y079390D03*
X008010Y081295D03*
X006103Y085515D03*
X013665Y076953D03*
X015915Y080140D03*
X016540Y080140D03*
X017040Y077390D03*
X016478Y077203D03*
X019478Y077515D03*
X019853Y080078D03*
X015415Y086140D03*
X024103Y089328D03*
X024728Y090015D03*
X059290Y083140D03*
X060165Y084015D03*
X060415Y085140D03*
X060415Y052840D03*
X060165Y051715D03*
X059290Y050840D03*
M02*
