G75*
G70*
%OFA0B0*%
%FSLAX24Y24*%
%IPPOS*%
%LPD*%
%AMOC8*
5,1,8,0,0,1.08239X$1,22.5*
%
%ADD10C,0.0000*%
%ADD11C,0.0030*%
D10*
X000100Y000100D02*
X002500Y000100D01*
X002500Y096900D01*
X000100Y096900D01*
X000100Y000100D01*
X002603Y000103D02*
X002603Y032290D01*
X033603Y032290D01*
X033603Y029040D01*
X037728Y029040D01*
X037728Y032290D01*
X044603Y032290D01*
X044603Y029040D01*
X048728Y029040D01*
X048728Y032290D01*
X075728Y032290D01*
X075728Y000103D01*
X002603Y000103D01*
X003915Y003603D02*
X003917Y003647D01*
X003923Y003691D01*
X003933Y003734D01*
X003946Y003776D01*
X003963Y003817D01*
X003984Y003856D01*
X004008Y003893D01*
X004035Y003928D01*
X004065Y003960D01*
X004098Y003990D01*
X004134Y004016D01*
X004171Y004040D01*
X004211Y004059D01*
X004252Y004076D01*
X004295Y004088D01*
X004338Y004097D01*
X004382Y004102D01*
X004426Y004103D01*
X004470Y004100D01*
X004514Y004093D01*
X004557Y004082D01*
X004599Y004068D01*
X004639Y004050D01*
X004678Y004028D01*
X004714Y004004D01*
X004748Y003976D01*
X004780Y003945D01*
X004809Y003911D01*
X004835Y003875D01*
X004857Y003837D01*
X004876Y003797D01*
X004891Y003755D01*
X004903Y003713D01*
X004911Y003669D01*
X004915Y003625D01*
X004915Y003581D01*
X004911Y003537D01*
X004903Y003493D01*
X004891Y003451D01*
X004876Y003409D01*
X004857Y003369D01*
X004835Y003331D01*
X004809Y003295D01*
X004780Y003261D01*
X004748Y003230D01*
X004714Y003202D01*
X004678Y003178D01*
X004639Y003156D01*
X004599Y003138D01*
X004557Y003124D01*
X004514Y003113D01*
X004470Y003106D01*
X004426Y003103D01*
X004382Y003104D01*
X004338Y003109D01*
X004295Y003118D01*
X004252Y003130D01*
X004211Y003147D01*
X004171Y003166D01*
X004134Y003190D01*
X004098Y003216D01*
X004065Y003246D01*
X004035Y003278D01*
X004008Y003313D01*
X003984Y003350D01*
X003963Y003389D01*
X003946Y003430D01*
X003933Y003472D01*
X003923Y003515D01*
X003917Y003559D01*
X003915Y003603D01*
X008970Y002105D02*
X008972Y002155D01*
X008978Y002205D01*
X008988Y002254D01*
X009002Y002302D01*
X009019Y002349D01*
X009040Y002394D01*
X009065Y002438D01*
X009093Y002479D01*
X009125Y002518D01*
X009159Y002555D01*
X009196Y002589D01*
X009236Y002619D01*
X009278Y002646D01*
X009322Y002670D01*
X009368Y002691D01*
X009415Y002707D01*
X009463Y002720D01*
X009513Y002729D01*
X009562Y002734D01*
X009613Y002735D01*
X009663Y002732D01*
X009712Y002725D01*
X009761Y002714D01*
X009809Y002699D01*
X009855Y002681D01*
X009900Y002659D01*
X009943Y002633D01*
X009984Y002604D01*
X010023Y002572D01*
X010059Y002537D01*
X010091Y002499D01*
X010121Y002459D01*
X010148Y002416D01*
X010171Y002372D01*
X010190Y002326D01*
X010206Y002278D01*
X010218Y002229D01*
X010226Y002180D01*
X010230Y002130D01*
X010230Y002080D01*
X010226Y002030D01*
X010218Y001981D01*
X010206Y001932D01*
X010190Y001884D01*
X010171Y001838D01*
X010148Y001794D01*
X010121Y001751D01*
X010091Y001711D01*
X010059Y001673D01*
X010023Y001638D01*
X009984Y001606D01*
X009943Y001577D01*
X009900Y001551D01*
X009855Y001529D01*
X009809Y001511D01*
X009761Y001496D01*
X009712Y001485D01*
X009663Y001478D01*
X009613Y001475D01*
X009562Y001476D01*
X009513Y001481D01*
X009463Y001490D01*
X009415Y001503D01*
X009368Y001519D01*
X009322Y001540D01*
X009278Y001564D01*
X009236Y001591D01*
X009196Y001621D01*
X009159Y001655D01*
X009125Y001692D01*
X009093Y001731D01*
X009065Y001772D01*
X009040Y001816D01*
X009019Y001861D01*
X009002Y001908D01*
X008988Y001956D01*
X008978Y002005D01*
X008972Y002055D01*
X008970Y002105D01*
X009040Y008853D02*
X009042Y008897D01*
X009048Y008941D01*
X009058Y008984D01*
X009071Y009026D01*
X009088Y009067D01*
X009109Y009106D01*
X009133Y009143D01*
X009160Y009178D01*
X009190Y009210D01*
X009223Y009240D01*
X009259Y009266D01*
X009296Y009290D01*
X009336Y009309D01*
X009377Y009326D01*
X009420Y009338D01*
X009463Y009347D01*
X009507Y009352D01*
X009551Y009353D01*
X009595Y009350D01*
X009639Y009343D01*
X009682Y009332D01*
X009724Y009318D01*
X009764Y009300D01*
X009803Y009278D01*
X009839Y009254D01*
X009873Y009226D01*
X009905Y009195D01*
X009934Y009161D01*
X009960Y009125D01*
X009982Y009087D01*
X010001Y009047D01*
X010016Y009005D01*
X010028Y008963D01*
X010036Y008919D01*
X010040Y008875D01*
X010040Y008831D01*
X010036Y008787D01*
X010028Y008743D01*
X010016Y008701D01*
X010001Y008659D01*
X009982Y008619D01*
X009960Y008581D01*
X009934Y008545D01*
X009905Y008511D01*
X009873Y008480D01*
X009839Y008452D01*
X009803Y008428D01*
X009764Y008406D01*
X009724Y008388D01*
X009682Y008374D01*
X009639Y008363D01*
X009595Y008356D01*
X009551Y008353D01*
X009507Y008354D01*
X009463Y008359D01*
X009420Y008368D01*
X009377Y008380D01*
X009336Y008397D01*
X009296Y008416D01*
X009259Y008440D01*
X009223Y008466D01*
X009190Y008496D01*
X009160Y008528D01*
X009133Y008563D01*
X009109Y008600D01*
X009088Y008639D01*
X009071Y008680D01*
X009058Y008722D01*
X009048Y008765D01*
X009042Y008809D01*
X009040Y008853D01*
X018353Y014978D02*
X018355Y015022D01*
X018361Y015066D01*
X018371Y015109D01*
X018384Y015151D01*
X018401Y015192D01*
X018422Y015231D01*
X018446Y015268D01*
X018473Y015303D01*
X018503Y015335D01*
X018536Y015365D01*
X018572Y015391D01*
X018609Y015415D01*
X018649Y015434D01*
X018690Y015451D01*
X018733Y015463D01*
X018776Y015472D01*
X018820Y015477D01*
X018864Y015478D01*
X018908Y015475D01*
X018952Y015468D01*
X018995Y015457D01*
X019037Y015443D01*
X019077Y015425D01*
X019116Y015403D01*
X019152Y015379D01*
X019186Y015351D01*
X019218Y015320D01*
X019247Y015286D01*
X019273Y015250D01*
X019295Y015212D01*
X019314Y015172D01*
X019329Y015130D01*
X019341Y015088D01*
X019349Y015044D01*
X019353Y015000D01*
X019353Y014956D01*
X019349Y014912D01*
X019341Y014868D01*
X019329Y014826D01*
X019314Y014784D01*
X019295Y014744D01*
X019273Y014706D01*
X019247Y014670D01*
X019218Y014636D01*
X019186Y014605D01*
X019152Y014577D01*
X019116Y014553D01*
X019077Y014531D01*
X019037Y014513D01*
X018995Y014499D01*
X018952Y014488D01*
X018908Y014481D01*
X018864Y014478D01*
X018820Y014479D01*
X018776Y014484D01*
X018733Y014493D01*
X018690Y014505D01*
X018649Y014522D01*
X018609Y014541D01*
X018572Y014565D01*
X018536Y014591D01*
X018503Y014621D01*
X018473Y014653D01*
X018446Y014688D01*
X018422Y014725D01*
X018401Y014764D01*
X018384Y014805D01*
X018371Y014847D01*
X018361Y014890D01*
X018355Y014934D01*
X018353Y014978D01*
X027290Y008853D02*
X027292Y008897D01*
X027298Y008941D01*
X027308Y008984D01*
X027321Y009026D01*
X027338Y009067D01*
X027359Y009106D01*
X027383Y009143D01*
X027410Y009178D01*
X027440Y009210D01*
X027473Y009240D01*
X027509Y009266D01*
X027546Y009290D01*
X027586Y009309D01*
X027627Y009326D01*
X027670Y009338D01*
X027713Y009347D01*
X027757Y009352D01*
X027801Y009353D01*
X027845Y009350D01*
X027889Y009343D01*
X027932Y009332D01*
X027974Y009318D01*
X028014Y009300D01*
X028053Y009278D01*
X028089Y009254D01*
X028123Y009226D01*
X028155Y009195D01*
X028184Y009161D01*
X028210Y009125D01*
X028232Y009087D01*
X028251Y009047D01*
X028266Y009005D01*
X028278Y008963D01*
X028286Y008919D01*
X028290Y008875D01*
X028290Y008831D01*
X028286Y008787D01*
X028278Y008743D01*
X028266Y008701D01*
X028251Y008659D01*
X028232Y008619D01*
X028210Y008581D01*
X028184Y008545D01*
X028155Y008511D01*
X028123Y008480D01*
X028089Y008452D01*
X028053Y008428D01*
X028014Y008406D01*
X027974Y008388D01*
X027932Y008374D01*
X027889Y008363D01*
X027845Y008356D01*
X027801Y008353D01*
X027757Y008354D01*
X027713Y008359D01*
X027670Y008368D01*
X027627Y008380D01*
X027586Y008397D01*
X027546Y008416D01*
X027509Y008440D01*
X027473Y008466D01*
X027440Y008496D01*
X027410Y008528D01*
X027383Y008563D01*
X027359Y008600D01*
X027338Y008639D01*
X027321Y008680D01*
X027308Y008722D01*
X027298Y008765D01*
X027292Y008809D01*
X027290Y008853D01*
X033040Y003603D02*
X033042Y003647D01*
X033048Y003691D01*
X033058Y003734D01*
X033071Y003776D01*
X033088Y003817D01*
X033109Y003856D01*
X033133Y003893D01*
X033160Y003928D01*
X033190Y003960D01*
X033223Y003990D01*
X033259Y004016D01*
X033296Y004040D01*
X033336Y004059D01*
X033377Y004076D01*
X033420Y004088D01*
X033463Y004097D01*
X033507Y004102D01*
X033551Y004103D01*
X033595Y004100D01*
X033639Y004093D01*
X033682Y004082D01*
X033724Y004068D01*
X033764Y004050D01*
X033803Y004028D01*
X033839Y004004D01*
X033873Y003976D01*
X033905Y003945D01*
X033934Y003911D01*
X033960Y003875D01*
X033982Y003837D01*
X034001Y003797D01*
X034016Y003755D01*
X034028Y003713D01*
X034036Y003669D01*
X034040Y003625D01*
X034040Y003581D01*
X034036Y003537D01*
X034028Y003493D01*
X034016Y003451D01*
X034001Y003409D01*
X033982Y003369D01*
X033960Y003331D01*
X033934Y003295D01*
X033905Y003261D01*
X033873Y003230D01*
X033839Y003202D01*
X033803Y003178D01*
X033764Y003156D01*
X033724Y003138D01*
X033682Y003124D01*
X033639Y003113D01*
X033595Y003106D01*
X033551Y003103D01*
X033507Y003104D01*
X033463Y003109D01*
X033420Y003118D01*
X033377Y003130D01*
X033336Y003147D01*
X033296Y003166D01*
X033259Y003190D01*
X033223Y003216D01*
X033190Y003246D01*
X033160Y003278D01*
X033133Y003313D01*
X033109Y003350D01*
X033088Y003389D01*
X033071Y003430D01*
X033058Y003472D01*
X033048Y003515D01*
X033042Y003559D01*
X033040Y003603D01*
X038970Y002105D02*
X038972Y002155D01*
X038978Y002205D01*
X038988Y002254D01*
X039002Y002302D01*
X039019Y002349D01*
X039040Y002394D01*
X039065Y002438D01*
X039093Y002479D01*
X039125Y002518D01*
X039159Y002555D01*
X039196Y002589D01*
X039236Y002619D01*
X039278Y002646D01*
X039322Y002670D01*
X039368Y002691D01*
X039415Y002707D01*
X039463Y002720D01*
X039513Y002729D01*
X039562Y002734D01*
X039613Y002735D01*
X039663Y002732D01*
X039712Y002725D01*
X039761Y002714D01*
X039809Y002699D01*
X039855Y002681D01*
X039900Y002659D01*
X039943Y002633D01*
X039984Y002604D01*
X040023Y002572D01*
X040059Y002537D01*
X040091Y002499D01*
X040121Y002459D01*
X040148Y002416D01*
X040171Y002372D01*
X040190Y002326D01*
X040206Y002278D01*
X040218Y002229D01*
X040226Y002180D01*
X040230Y002130D01*
X040230Y002080D01*
X040226Y002030D01*
X040218Y001981D01*
X040206Y001932D01*
X040190Y001884D01*
X040171Y001838D01*
X040148Y001794D01*
X040121Y001751D01*
X040091Y001711D01*
X040059Y001673D01*
X040023Y001638D01*
X039984Y001606D01*
X039943Y001577D01*
X039900Y001551D01*
X039855Y001529D01*
X039809Y001511D01*
X039761Y001496D01*
X039712Y001485D01*
X039663Y001478D01*
X039613Y001475D01*
X039562Y001476D01*
X039513Y001481D01*
X039463Y001490D01*
X039415Y001503D01*
X039368Y001519D01*
X039322Y001540D01*
X039278Y001564D01*
X039236Y001591D01*
X039196Y001621D01*
X039159Y001655D01*
X039125Y001692D01*
X039093Y001731D01*
X039065Y001772D01*
X039040Y001816D01*
X039019Y001861D01*
X039002Y001908D01*
X038988Y001956D01*
X038978Y002005D01*
X038972Y002055D01*
X038970Y002105D01*
X042103Y014978D02*
X042105Y015022D01*
X042111Y015066D01*
X042121Y015109D01*
X042134Y015151D01*
X042151Y015192D01*
X042172Y015231D01*
X042196Y015268D01*
X042223Y015303D01*
X042253Y015335D01*
X042286Y015365D01*
X042322Y015391D01*
X042359Y015415D01*
X042399Y015434D01*
X042440Y015451D01*
X042483Y015463D01*
X042526Y015472D01*
X042570Y015477D01*
X042614Y015478D01*
X042658Y015475D01*
X042702Y015468D01*
X042745Y015457D01*
X042787Y015443D01*
X042827Y015425D01*
X042866Y015403D01*
X042902Y015379D01*
X042936Y015351D01*
X042968Y015320D01*
X042997Y015286D01*
X043023Y015250D01*
X043045Y015212D01*
X043064Y015172D01*
X043079Y015130D01*
X043091Y015088D01*
X043099Y015044D01*
X043103Y015000D01*
X043103Y014956D01*
X043099Y014912D01*
X043091Y014868D01*
X043079Y014826D01*
X043064Y014784D01*
X043045Y014744D01*
X043023Y014706D01*
X042997Y014670D01*
X042968Y014636D01*
X042936Y014605D01*
X042902Y014577D01*
X042866Y014553D01*
X042827Y014531D01*
X042787Y014513D01*
X042745Y014499D01*
X042702Y014488D01*
X042658Y014481D01*
X042614Y014478D01*
X042570Y014479D01*
X042526Y014484D01*
X042483Y014493D01*
X042440Y014505D01*
X042399Y014522D01*
X042359Y014541D01*
X042322Y014565D01*
X042286Y014591D01*
X042253Y014621D01*
X042223Y014653D01*
X042196Y014688D01*
X042172Y014725D01*
X042151Y014764D01*
X042134Y014805D01*
X042121Y014847D01*
X042111Y014890D01*
X042105Y014934D01*
X042103Y014978D01*
X040603Y022665D02*
X040605Y022709D01*
X040611Y022753D01*
X040621Y022796D01*
X040634Y022838D01*
X040651Y022879D01*
X040672Y022918D01*
X040696Y022955D01*
X040723Y022990D01*
X040753Y023022D01*
X040786Y023052D01*
X040822Y023078D01*
X040859Y023102D01*
X040899Y023121D01*
X040940Y023138D01*
X040983Y023150D01*
X041026Y023159D01*
X041070Y023164D01*
X041114Y023165D01*
X041158Y023162D01*
X041202Y023155D01*
X041245Y023144D01*
X041287Y023130D01*
X041327Y023112D01*
X041366Y023090D01*
X041402Y023066D01*
X041436Y023038D01*
X041468Y023007D01*
X041497Y022973D01*
X041523Y022937D01*
X041545Y022899D01*
X041564Y022859D01*
X041579Y022817D01*
X041591Y022775D01*
X041599Y022731D01*
X041603Y022687D01*
X041603Y022643D01*
X041599Y022599D01*
X041591Y022555D01*
X041579Y022513D01*
X041564Y022471D01*
X041545Y022431D01*
X041523Y022393D01*
X041497Y022357D01*
X041468Y022323D01*
X041436Y022292D01*
X041402Y022264D01*
X041366Y022240D01*
X041327Y022218D01*
X041287Y022200D01*
X041245Y022186D01*
X041202Y022175D01*
X041158Y022168D01*
X041114Y022165D01*
X041070Y022166D01*
X041026Y022171D01*
X040983Y022180D01*
X040940Y022192D01*
X040899Y022209D01*
X040859Y022228D01*
X040822Y022252D01*
X040786Y022278D01*
X040753Y022308D01*
X040723Y022340D01*
X040696Y022375D01*
X040672Y022412D01*
X040651Y022451D01*
X040634Y022492D01*
X040621Y022534D01*
X040611Y022577D01*
X040605Y022621D01*
X040603Y022665D01*
X045728Y027915D02*
X045730Y027959D01*
X045736Y028003D01*
X045746Y028046D01*
X045759Y028088D01*
X045776Y028129D01*
X045797Y028168D01*
X045821Y028205D01*
X045848Y028240D01*
X045878Y028272D01*
X045911Y028302D01*
X045947Y028328D01*
X045984Y028352D01*
X046024Y028371D01*
X046065Y028388D01*
X046108Y028400D01*
X046151Y028409D01*
X046195Y028414D01*
X046239Y028415D01*
X046283Y028412D01*
X046327Y028405D01*
X046370Y028394D01*
X046412Y028380D01*
X046452Y028362D01*
X046491Y028340D01*
X046527Y028316D01*
X046561Y028288D01*
X046593Y028257D01*
X046622Y028223D01*
X046648Y028187D01*
X046670Y028149D01*
X046689Y028109D01*
X046704Y028067D01*
X046716Y028025D01*
X046724Y027981D01*
X046728Y027937D01*
X046728Y027893D01*
X046724Y027849D01*
X046716Y027805D01*
X046704Y027763D01*
X046689Y027721D01*
X046670Y027681D01*
X046648Y027643D01*
X046622Y027607D01*
X046593Y027573D01*
X046561Y027542D01*
X046527Y027514D01*
X046491Y027490D01*
X046452Y027468D01*
X046412Y027450D01*
X046370Y027436D01*
X046327Y027425D01*
X046283Y027418D01*
X046239Y027415D01*
X046195Y027416D01*
X046151Y027421D01*
X046108Y027430D01*
X046065Y027442D01*
X046024Y027459D01*
X045984Y027478D01*
X045947Y027502D01*
X045911Y027528D01*
X045878Y027558D01*
X045848Y027590D01*
X045821Y027625D01*
X045797Y027662D01*
X045776Y027701D01*
X045759Y027742D01*
X045746Y027784D01*
X045736Y027827D01*
X045730Y027871D01*
X045728Y027915D01*
X038970Y034405D02*
X038972Y034455D01*
X038978Y034505D01*
X038988Y034554D01*
X039002Y034602D01*
X039019Y034649D01*
X039040Y034694D01*
X039065Y034738D01*
X039093Y034779D01*
X039125Y034818D01*
X039159Y034855D01*
X039196Y034889D01*
X039236Y034919D01*
X039278Y034946D01*
X039322Y034970D01*
X039368Y034991D01*
X039415Y035007D01*
X039463Y035020D01*
X039513Y035029D01*
X039562Y035034D01*
X039613Y035035D01*
X039663Y035032D01*
X039712Y035025D01*
X039761Y035014D01*
X039809Y034999D01*
X039855Y034981D01*
X039900Y034959D01*
X039943Y034933D01*
X039984Y034904D01*
X040023Y034872D01*
X040059Y034837D01*
X040091Y034799D01*
X040121Y034759D01*
X040148Y034716D01*
X040171Y034672D01*
X040190Y034626D01*
X040206Y034578D01*
X040218Y034529D01*
X040226Y034480D01*
X040230Y034430D01*
X040230Y034380D01*
X040226Y034330D01*
X040218Y034281D01*
X040206Y034232D01*
X040190Y034184D01*
X040171Y034138D01*
X040148Y034094D01*
X040121Y034051D01*
X040091Y034011D01*
X040059Y033973D01*
X040023Y033938D01*
X039984Y033906D01*
X039943Y033877D01*
X039900Y033851D01*
X039855Y033829D01*
X039809Y033811D01*
X039761Y033796D01*
X039712Y033785D01*
X039663Y033778D01*
X039613Y033775D01*
X039562Y033776D01*
X039513Y033781D01*
X039463Y033790D01*
X039415Y033803D01*
X039368Y033819D01*
X039322Y033840D01*
X039278Y033864D01*
X039236Y033891D01*
X039196Y033921D01*
X039159Y033955D01*
X039125Y033992D01*
X039093Y034031D01*
X039065Y034072D01*
X039040Y034116D01*
X039019Y034161D01*
X039002Y034208D01*
X038988Y034256D01*
X038978Y034305D01*
X038972Y034355D01*
X038970Y034405D01*
X033040Y035903D02*
X033042Y035947D01*
X033048Y035991D01*
X033058Y036034D01*
X033071Y036076D01*
X033088Y036117D01*
X033109Y036156D01*
X033133Y036193D01*
X033160Y036228D01*
X033190Y036260D01*
X033223Y036290D01*
X033259Y036316D01*
X033296Y036340D01*
X033336Y036359D01*
X033377Y036376D01*
X033420Y036388D01*
X033463Y036397D01*
X033507Y036402D01*
X033551Y036403D01*
X033595Y036400D01*
X033639Y036393D01*
X033682Y036382D01*
X033724Y036368D01*
X033764Y036350D01*
X033803Y036328D01*
X033839Y036304D01*
X033873Y036276D01*
X033905Y036245D01*
X033934Y036211D01*
X033960Y036175D01*
X033982Y036137D01*
X034001Y036097D01*
X034016Y036055D01*
X034028Y036013D01*
X034036Y035969D01*
X034040Y035925D01*
X034040Y035881D01*
X034036Y035837D01*
X034028Y035793D01*
X034016Y035751D01*
X034001Y035709D01*
X033982Y035669D01*
X033960Y035631D01*
X033934Y035595D01*
X033905Y035561D01*
X033873Y035530D01*
X033839Y035502D01*
X033803Y035478D01*
X033764Y035456D01*
X033724Y035438D01*
X033682Y035424D01*
X033639Y035413D01*
X033595Y035406D01*
X033551Y035403D01*
X033507Y035404D01*
X033463Y035409D01*
X033420Y035418D01*
X033377Y035430D01*
X033336Y035447D01*
X033296Y035466D01*
X033259Y035490D01*
X033223Y035516D01*
X033190Y035546D01*
X033160Y035578D01*
X033133Y035613D01*
X033109Y035650D01*
X033088Y035689D01*
X033071Y035730D01*
X033058Y035772D01*
X033048Y035815D01*
X033042Y035859D01*
X033040Y035903D01*
X027290Y041153D02*
X027292Y041197D01*
X027298Y041241D01*
X027308Y041284D01*
X027321Y041326D01*
X027338Y041367D01*
X027359Y041406D01*
X027383Y041443D01*
X027410Y041478D01*
X027440Y041510D01*
X027473Y041540D01*
X027509Y041566D01*
X027546Y041590D01*
X027586Y041609D01*
X027627Y041626D01*
X027670Y041638D01*
X027713Y041647D01*
X027757Y041652D01*
X027801Y041653D01*
X027845Y041650D01*
X027889Y041643D01*
X027932Y041632D01*
X027974Y041618D01*
X028014Y041600D01*
X028053Y041578D01*
X028089Y041554D01*
X028123Y041526D01*
X028155Y041495D01*
X028184Y041461D01*
X028210Y041425D01*
X028232Y041387D01*
X028251Y041347D01*
X028266Y041305D01*
X028278Y041263D01*
X028286Y041219D01*
X028290Y041175D01*
X028290Y041131D01*
X028286Y041087D01*
X028278Y041043D01*
X028266Y041001D01*
X028251Y040959D01*
X028232Y040919D01*
X028210Y040881D01*
X028184Y040845D01*
X028155Y040811D01*
X028123Y040780D01*
X028089Y040752D01*
X028053Y040728D01*
X028014Y040706D01*
X027974Y040688D01*
X027932Y040674D01*
X027889Y040663D01*
X027845Y040656D01*
X027801Y040653D01*
X027757Y040654D01*
X027713Y040659D01*
X027670Y040668D01*
X027627Y040680D01*
X027586Y040697D01*
X027546Y040716D01*
X027509Y040740D01*
X027473Y040766D01*
X027440Y040796D01*
X027410Y040828D01*
X027383Y040863D01*
X027359Y040900D01*
X027338Y040939D01*
X027321Y040980D01*
X027308Y041022D01*
X027298Y041065D01*
X027292Y041109D01*
X027290Y041153D01*
X018353Y047278D02*
X018355Y047322D01*
X018361Y047366D01*
X018371Y047409D01*
X018384Y047451D01*
X018401Y047492D01*
X018422Y047531D01*
X018446Y047568D01*
X018473Y047603D01*
X018503Y047635D01*
X018536Y047665D01*
X018572Y047691D01*
X018609Y047715D01*
X018649Y047734D01*
X018690Y047751D01*
X018733Y047763D01*
X018776Y047772D01*
X018820Y047777D01*
X018864Y047778D01*
X018908Y047775D01*
X018952Y047768D01*
X018995Y047757D01*
X019037Y047743D01*
X019077Y047725D01*
X019116Y047703D01*
X019152Y047679D01*
X019186Y047651D01*
X019218Y047620D01*
X019247Y047586D01*
X019273Y047550D01*
X019295Y047512D01*
X019314Y047472D01*
X019329Y047430D01*
X019341Y047388D01*
X019349Y047344D01*
X019353Y047300D01*
X019353Y047256D01*
X019349Y047212D01*
X019341Y047168D01*
X019329Y047126D01*
X019314Y047084D01*
X019295Y047044D01*
X019273Y047006D01*
X019247Y046970D01*
X019218Y046936D01*
X019186Y046905D01*
X019152Y046877D01*
X019116Y046853D01*
X019077Y046831D01*
X019037Y046813D01*
X018995Y046799D01*
X018952Y046788D01*
X018908Y046781D01*
X018864Y046778D01*
X018820Y046779D01*
X018776Y046784D01*
X018733Y046793D01*
X018690Y046805D01*
X018649Y046822D01*
X018609Y046841D01*
X018572Y046865D01*
X018536Y046891D01*
X018503Y046921D01*
X018473Y046953D01*
X018446Y046988D01*
X018422Y047025D01*
X018401Y047064D01*
X018384Y047105D01*
X018371Y047147D01*
X018361Y047190D01*
X018355Y047234D01*
X018353Y047278D01*
X009040Y041153D02*
X009042Y041197D01*
X009048Y041241D01*
X009058Y041284D01*
X009071Y041326D01*
X009088Y041367D01*
X009109Y041406D01*
X009133Y041443D01*
X009160Y041478D01*
X009190Y041510D01*
X009223Y041540D01*
X009259Y041566D01*
X009296Y041590D01*
X009336Y041609D01*
X009377Y041626D01*
X009420Y041638D01*
X009463Y041647D01*
X009507Y041652D01*
X009551Y041653D01*
X009595Y041650D01*
X009639Y041643D01*
X009682Y041632D01*
X009724Y041618D01*
X009764Y041600D01*
X009803Y041578D01*
X009839Y041554D01*
X009873Y041526D01*
X009905Y041495D01*
X009934Y041461D01*
X009960Y041425D01*
X009982Y041387D01*
X010001Y041347D01*
X010016Y041305D01*
X010028Y041263D01*
X010036Y041219D01*
X010040Y041175D01*
X010040Y041131D01*
X010036Y041087D01*
X010028Y041043D01*
X010016Y041001D01*
X010001Y040959D01*
X009982Y040919D01*
X009960Y040881D01*
X009934Y040845D01*
X009905Y040811D01*
X009873Y040780D01*
X009839Y040752D01*
X009803Y040728D01*
X009764Y040706D01*
X009724Y040688D01*
X009682Y040674D01*
X009639Y040663D01*
X009595Y040656D01*
X009551Y040653D01*
X009507Y040654D01*
X009463Y040659D01*
X009420Y040668D01*
X009377Y040680D01*
X009336Y040697D01*
X009296Y040716D01*
X009259Y040740D01*
X009223Y040766D01*
X009190Y040796D01*
X009160Y040828D01*
X009133Y040863D01*
X009109Y040900D01*
X009088Y040939D01*
X009071Y040980D01*
X009058Y041022D01*
X009048Y041065D01*
X009042Y041109D01*
X009040Y041153D01*
X003915Y035903D02*
X003917Y035947D01*
X003923Y035991D01*
X003933Y036034D01*
X003946Y036076D01*
X003963Y036117D01*
X003984Y036156D01*
X004008Y036193D01*
X004035Y036228D01*
X004065Y036260D01*
X004098Y036290D01*
X004134Y036316D01*
X004171Y036340D01*
X004211Y036359D01*
X004252Y036376D01*
X004295Y036388D01*
X004338Y036397D01*
X004382Y036402D01*
X004426Y036403D01*
X004470Y036400D01*
X004514Y036393D01*
X004557Y036382D01*
X004599Y036368D01*
X004639Y036350D01*
X004678Y036328D01*
X004714Y036304D01*
X004748Y036276D01*
X004780Y036245D01*
X004809Y036211D01*
X004835Y036175D01*
X004857Y036137D01*
X004876Y036097D01*
X004891Y036055D01*
X004903Y036013D01*
X004911Y035969D01*
X004915Y035925D01*
X004915Y035881D01*
X004911Y035837D01*
X004903Y035793D01*
X004891Y035751D01*
X004876Y035709D01*
X004857Y035669D01*
X004835Y035631D01*
X004809Y035595D01*
X004780Y035561D01*
X004748Y035530D01*
X004714Y035502D01*
X004678Y035478D01*
X004639Y035456D01*
X004599Y035438D01*
X004557Y035424D01*
X004514Y035413D01*
X004470Y035406D01*
X004426Y035403D01*
X004382Y035404D01*
X004338Y035409D01*
X004295Y035418D01*
X004252Y035430D01*
X004211Y035447D01*
X004171Y035466D01*
X004134Y035490D01*
X004098Y035516D01*
X004065Y035546D01*
X004035Y035578D01*
X004008Y035613D01*
X003984Y035650D01*
X003963Y035689D01*
X003946Y035730D01*
X003933Y035772D01*
X003923Y035815D01*
X003917Y035859D01*
X003915Y035903D01*
X002603Y032403D02*
X002603Y064590D01*
X033603Y064590D01*
X033603Y061340D01*
X037728Y061340D01*
X037728Y064590D01*
X044603Y064590D01*
X044603Y061340D01*
X048728Y061340D01*
X048728Y064590D01*
X075728Y064590D01*
X075728Y032403D01*
X002603Y032403D01*
X008970Y034405D02*
X008972Y034455D01*
X008978Y034505D01*
X008988Y034554D01*
X009002Y034602D01*
X009019Y034649D01*
X009040Y034694D01*
X009065Y034738D01*
X009093Y034779D01*
X009125Y034818D01*
X009159Y034855D01*
X009196Y034889D01*
X009236Y034919D01*
X009278Y034946D01*
X009322Y034970D01*
X009368Y034991D01*
X009415Y035007D01*
X009463Y035020D01*
X009513Y035029D01*
X009562Y035034D01*
X009613Y035035D01*
X009663Y035032D01*
X009712Y035025D01*
X009761Y035014D01*
X009809Y034999D01*
X009855Y034981D01*
X009900Y034959D01*
X009943Y034933D01*
X009984Y034904D01*
X010023Y034872D01*
X010059Y034837D01*
X010091Y034799D01*
X010121Y034759D01*
X010148Y034716D01*
X010171Y034672D01*
X010190Y034626D01*
X010206Y034578D01*
X010218Y034529D01*
X010226Y034480D01*
X010230Y034430D01*
X010230Y034380D01*
X010226Y034330D01*
X010218Y034281D01*
X010206Y034232D01*
X010190Y034184D01*
X010171Y034138D01*
X010148Y034094D01*
X010121Y034051D01*
X010091Y034011D01*
X010059Y033973D01*
X010023Y033938D01*
X009984Y033906D01*
X009943Y033877D01*
X009900Y033851D01*
X009855Y033829D01*
X009809Y033811D01*
X009761Y033796D01*
X009712Y033785D01*
X009663Y033778D01*
X009613Y033775D01*
X009562Y033776D01*
X009513Y033781D01*
X009463Y033790D01*
X009415Y033803D01*
X009368Y033819D01*
X009322Y033840D01*
X009278Y033864D01*
X009236Y033891D01*
X009196Y033921D01*
X009159Y033955D01*
X009125Y033992D01*
X009093Y034031D01*
X009065Y034072D01*
X009040Y034116D01*
X009019Y034161D01*
X009002Y034208D01*
X008988Y034256D01*
X008978Y034305D01*
X008972Y034355D01*
X008970Y034405D01*
X002603Y064703D02*
X002603Y096890D01*
X033603Y096890D01*
X033603Y093640D01*
X037728Y093640D01*
X037728Y096890D01*
X044603Y096890D01*
X044603Y093640D01*
X048728Y093640D01*
X048728Y096890D01*
X075728Y096890D01*
X075728Y064703D01*
X002603Y064703D01*
X003915Y068203D02*
X003917Y068247D01*
X003923Y068291D01*
X003933Y068334D01*
X003946Y068376D01*
X003963Y068417D01*
X003984Y068456D01*
X004008Y068493D01*
X004035Y068528D01*
X004065Y068560D01*
X004098Y068590D01*
X004134Y068616D01*
X004171Y068640D01*
X004211Y068659D01*
X004252Y068676D01*
X004295Y068688D01*
X004338Y068697D01*
X004382Y068702D01*
X004426Y068703D01*
X004470Y068700D01*
X004514Y068693D01*
X004557Y068682D01*
X004599Y068668D01*
X004639Y068650D01*
X004678Y068628D01*
X004714Y068604D01*
X004748Y068576D01*
X004780Y068545D01*
X004809Y068511D01*
X004835Y068475D01*
X004857Y068437D01*
X004876Y068397D01*
X004891Y068355D01*
X004903Y068313D01*
X004911Y068269D01*
X004915Y068225D01*
X004915Y068181D01*
X004911Y068137D01*
X004903Y068093D01*
X004891Y068051D01*
X004876Y068009D01*
X004857Y067969D01*
X004835Y067931D01*
X004809Y067895D01*
X004780Y067861D01*
X004748Y067830D01*
X004714Y067802D01*
X004678Y067778D01*
X004639Y067756D01*
X004599Y067738D01*
X004557Y067724D01*
X004514Y067713D01*
X004470Y067706D01*
X004426Y067703D01*
X004382Y067704D01*
X004338Y067709D01*
X004295Y067718D01*
X004252Y067730D01*
X004211Y067747D01*
X004171Y067766D01*
X004134Y067790D01*
X004098Y067816D01*
X004065Y067846D01*
X004035Y067878D01*
X004008Y067913D01*
X003984Y067950D01*
X003963Y067989D01*
X003946Y068030D01*
X003933Y068072D01*
X003923Y068115D01*
X003917Y068159D01*
X003915Y068203D01*
X008970Y066705D02*
X008972Y066755D01*
X008978Y066805D01*
X008988Y066854D01*
X009002Y066902D01*
X009019Y066949D01*
X009040Y066994D01*
X009065Y067038D01*
X009093Y067079D01*
X009125Y067118D01*
X009159Y067155D01*
X009196Y067189D01*
X009236Y067219D01*
X009278Y067246D01*
X009322Y067270D01*
X009368Y067291D01*
X009415Y067307D01*
X009463Y067320D01*
X009513Y067329D01*
X009562Y067334D01*
X009613Y067335D01*
X009663Y067332D01*
X009712Y067325D01*
X009761Y067314D01*
X009809Y067299D01*
X009855Y067281D01*
X009900Y067259D01*
X009943Y067233D01*
X009984Y067204D01*
X010023Y067172D01*
X010059Y067137D01*
X010091Y067099D01*
X010121Y067059D01*
X010148Y067016D01*
X010171Y066972D01*
X010190Y066926D01*
X010206Y066878D01*
X010218Y066829D01*
X010226Y066780D01*
X010230Y066730D01*
X010230Y066680D01*
X010226Y066630D01*
X010218Y066581D01*
X010206Y066532D01*
X010190Y066484D01*
X010171Y066438D01*
X010148Y066394D01*
X010121Y066351D01*
X010091Y066311D01*
X010059Y066273D01*
X010023Y066238D01*
X009984Y066206D01*
X009943Y066177D01*
X009900Y066151D01*
X009855Y066129D01*
X009809Y066111D01*
X009761Y066096D01*
X009712Y066085D01*
X009663Y066078D01*
X009613Y066075D01*
X009562Y066076D01*
X009513Y066081D01*
X009463Y066090D01*
X009415Y066103D01*
X009368Y066119D01*
X009322Y066140D01*
X009278Y066164D01*
X009236Y066191D01*
X009196Y066221D01*
X009159Y066255D01*
X009125Y066292D01*
X009093Y066331D01*
X009065Y066372D01*
X009040Y066416D01*
X009019Y066461D01*
X009002Y066508D01*
X008988Y066556D01*
X008978Y066605D01*
X008972Y066655D01*
X008970Y066705D01*
X009040Y073453D02*
X009042Y073497D01*
X009048Y073541D01*
X009058Y073584D01*
X009071Y073626D01*
X009088Y073667D01*
X009109Y073706D01*
X009133Y073743D01*
X009160Y073778D01*
X009190Y073810D01*
X009223Y073840D01*
X009259Y073866D01*
X009296Y073890D01*
X009336Y073909D01*
X009377Y073926D01*
X009420Y073938D01*
X009463Y073947D01*
X009507Y073952D01*
X009551Y073953D01*
X009595Y073950D01*
X009639Y073943D01*
X009682Y073932D01*
X009724Y073918D01*
X009764Y073900D01*
X009803Y073878D01*
X009839Y073854D01*
X009873Y073826D01*
X009905Y073795D01*
X009934Y073761D01*
X009960Y073725D01*
X009982Y073687D01*
X010001Y073647D01*
X010016Y073605D01*
X010028Y073563D01*
X010036Y073519D01*
X010040Y073475D01*
X010040Y073431D01*
X010036Y073387D01*
X010028Y073343D01*
X010016Y073301D01*
X010001Y073259D01*
X009982Y073219D01*
X009960Y073181D01*
X009934Y073145D01*
X009905Y073111D01*
X009873Y073080D01*
X009839Y073052D01*
X009803Y073028D01*
X009764Y073006D01*
X009724Y072988D01*
X009682Y072974D01*
X009639Y072963D01*
X009595Y072956D01*
X009551Y072953D01*
X009507Y072954D01*
X009463Y072959D01*
X009420Y072968D01*
X009377Y072980D01*
X009336Y072997D01*
X009296Y073016D01*
X009259Y073040D01*
X009223Y073066D01*
X009190Y073096D01*
X009160Y073128D01*
X009133Y073163D01*
X009109Y073200D01*
X009088Y073239D01*
X009071Y073280D01*
X009058Y073322D01*
X009048Y073365D01*
X009042Y073409D01*
X009040Y073453D01*
X018353Y079578D02*
X018355Y079622D01*
X018361Y079666D01*
X018371Y079709D01*
X018384Y079751D01*
X018401Y079792D01*
X018422Y079831D01*
X018446Y079868D01*
X018473Y079903D01*
X018503Y079935D01*
X018536Y079965D01*
X018572Y079991D01*
X018609Y080015D01*
X018649Y080034D01*
X018690Y080051D01*
X018733Y080063D01*
X018776Y080072D01*
X018820Y080077D01*
X018864Y080078D01*
X018908Y080075D01*
X018952Y080068D01*
X018995Y080057D01*
X019037Y080043D01*
X019077Y080025D01*
X019116Y080003D01*
X019152Y079979D01*
X019186Y079951D01*
X019218Y079920D01*
X019247Y079886D01*
X019273Y079850D01*
X019295Y079812D01*
X019314Y079772D01*
X019329Y079730D01*
X019341Y079688D01*
X019349Y079644D01*
X019353Y079600D01*
X019353Y079556D01*
X019349Y079512D01*
X019341Y079468D01*
X019329Y079426D01*
X019314Y079384D01*
X019295Y079344D01*
X019273Y079306D01*
X019247Y079270D01*
X019218Y079236D01*
X019186Y079205D01*
X019152Y079177D01*
X019116Y079153D01*
X019077Y079131D01*
X019037Y079113D01*
X018995Y079099D01*
X018952Y079088D01*
X018908Y079081D01*
X018864Y079078D01*
X018820Y079079D01*
X018776Y079084D01*
X018733Y079093D01*
X018690Y079105D01*
X018649Y079122D01*
X018609Y079141D01*
X018572Y079165D01*
X018536Y079191D01*
X018503Y079221D01*
X018473Y079253D01*
X018446Y079288D01*
X018422Y079325D01*
X018401Y079364D01*
X018384Y079405D01*
X018371Y079447D01*
X018361Y079490D01*
X018355Y079534D01*
X018353Y079578D01*
X027290Y073453D02*
X027292Y073497D01*
X027298Y073541D01*
X027308Y073584D01*
X027321Y073626D01*
X027338Y073667D01*
X027359Y073706D01*
X027383Y073743D01*
X027410Y073778D01*
X027440Y073810D01*
X027473Y073840D01*
X027509Y073866D01*
X027546Y073890D01*
X027586Y073909D01*
X027627Y073926D01*
X027670Y073938D01*
X027713Y073947D01*
X027757Y073952D01*
X027801Y073953D01*
X027845Y073950D01*
X027889Y073943D01*
X027932Y073932D01*
X027974Y073918D01*
X028014Y073900D01*
X028053Y073878D01*
X028089Y073854D01*
X028123Y073826D01*
X028155Y073795D01*
X028184Y073761D01*
X028210Y073725D01*
X028232Y073687D01*
X028251Y073647D01*
X028266Y073605D01*
X028278Y073563D01*
X028286Y073519D01*
X028290Y073475D01*
X028290Y073431D01*
X028286Y073387D01*
X028278Y073343D01*
X028266Y073301D01*
X028251Y073259D01*
X028232Y073219D01*
X028210Y073181D01*
X028184Y073145D01*
X028155Y073111D01*
X028123Y073080D01*
X028089Y073052D01*
X028053Y073028D01*
X028014Y073006D01*
X027974Y072988D01*
X027932Y072974D01*
X027889Y072963D01*
X027845Y072956D01*
X027801Y072953D01*
X027757Y072954D01*
X027713Y072959D01*
X027670Y072968D01*
X027627Y072980D01*
X027586Y072997D01*
X027546Y073016D01*
X027509Y073040D01*
X027473Y073066D01*
X027440Y073096D01*
X027410Y073128D01*
X027383Y073163D01*
X027359Y073200D01*
X027338Y073239D01*
X027321Y073280D01*
X027308Y073322D01*
X027298Y073365D01*
X027292Y073409D01*
X027290Y073453D01*
X033040Y068203D02*
X033042Y068247D01*
X033048Y068291D01*
X033058Y068334D01*
X033071Y068376D01*
X033088Y068417D01*
X033109Y068456D01*
X033133Y068493D01*
X033160Y068528D01*
X033190Y068560D01*
X033223Y068590D01*
X033259Y068616D01*
X033296Y068640D01*
X033336Y068659D01*
X033377Y068676D01*
X033420Y068688D01*
X033463Y068697D01*
X033507Y068702D01*
X033551Y068703D01*
X033595Y068700D01*
X033639Y068693D01*
X033682Y068682D01*
X033724Y068668D01*
X033764Y068650D01*
X033803Y068628D01*
X033839Y068604D01*
X033873Y068576D01*
X033905Y068545D01*
X033934Y068511D01*
X033960Y068475D01*
X033982Y068437D01*
X034001Y068397D01*
X034016Y068355D01*
X034028Y068313D01*
X034036Y068269D01*
X034040Y068225D01*
X034040Y068181D01*
X034036Y068137D01*
X034028Y068093D01*
X034016Y068051D01*
X034001Y068009D01*
X033982Y067969D01*
X033960Y067931D01*
X033934Y067895D01*
X033905Y067861D01*
X033873Y067830D01*
X033839Y067802D01*
X033803Y067778D01*
X033764Y067756D01*
X033724Y067738D01*
X033682Y067724D01*
X033639Y067713D01*
X033595Y067706D01*
X033551Y067703D01*
X033507Y067704D01*
X033463Y067709D01*
X033420Y067718D01*
X033377Y067730D01*
X033336Y067747D01*
X033296Y067766D01*
X033259Y067790D01*
X033223Y067816D01*
X033190Y067846D01*
X033160Y067878D01*
X033133Y067913D01*
X033109Y067950D01*
X033088Y067989D01*
X033071Y068030D01*
X033058Y068072D01*
X033048Y068115D01*
X033042Y068159D01*
X033040Y068203D01*
X038970Y066705D02*
X038972Y066755D01*
X038978Y066805D01*
X038988Y066854D01*
X039002Y066902D01*
X039019Y066949D01*
X039040Y066994D01*
X039065Y067038D01*
X039093Y067079D01*
X039125Y067118D01*
X039159Y067155D01*
X039196Y067189D01*
X039236Y067219D01*
X039278Y067246D01*
X039322Y067270D01*
X039368Y067291D01*
X039415Y067307D01*
X039463Y067320D01*
X039513Y067329D01*
X039562Y067334D01*
X039613Y067335D01*
X039663Y067332D01*
X039712Y067325D01*
X039761Y067314D01*
X039809Y067299D01*
X039855Y067281D01*
X039900Y067259D01*
X039943Y067233D01*
X039984Y067204D01*
X040023Y067172D01*
X040059Y067137D01*
X040091Y067099D01*
X040121Y067059D01*
X040148Y067016D01*
X040171Y066972D01*
X040190Y066926D01*
X040206Y066878D01*
X040218Y066829D01*
X040226Y066780D01*
X040230Y066730D01*
X040230Y066680D01*
X040226Y066630D01*
X040218Y066581D01*
X040206Y066532D01*
X040190Y066484D01*
X040171Y066438D01*
X040148Y066394D01*
X040121Y066351D01*
X040091Y066311D01*
X040059Y066273D01*
X040023Y066238D01*
X039984Y066206D01*
X039943Y066177D01*
X039900Y066151D01*
X039855Y066129D01*
X039809Y066111D01*
X039761Y066096D01*
X039712Y066085D01*
X039663Y066078D01*
X039613Y066075D01*
X039562Y066076D01*
X039513Y066081D01*
X039463Y066090D01*
X039415Y066103D01*
X039368Y066119D01*
X039322Y066140D01*
X039278Y066164D01*
X039236Y066191D01*
X039196Y066221D01*
X039159Y066255D01*
X039125Y066292D01*
X039093Y066331D01*
X039065Y066372D01*
X039040Y066416D01*
X039019Y066461D01*
X039002Y066508D01*
X038988Y066556D01*
X038978Y066605D01*
X038972Y066655D01*
X038970Y066705D01*
X045728Y060215D02*
X045730Y060259D01*
X045736Y060303D01*
X045746Y060346D01*
X045759Y060388D01*
X045776Y060429D01*
X045797Y060468D01*
X045821Y060505D01*
X045848Y060540D01*
X045878Y060572D01*
X045911Y060602D01*
X045947Y060628D01*
X045984Y060652D01*
X046024Y060671D01*
X046065Y060688D01*
X046108Y060700D01*
X046151Y060709D01*
X046195Y060714D01*
X046239Y060715D01*
X046283Y060712D01*
X046327Y060705D01*
X046370Y060694D01*
X046412Y060680D01*
X046452Y060662D01*
X046491Y060640D01*
X046527Y060616D01*
X046561Y060588D01*
X046593Y060557D01*
X046622Y060523D01*
X046648Y060487D01*
X046670Y060449D01*
X046689Y060409D01*
X046704Y060367D01*
X046716Y060325D01*
X046724Y060281D01*
X046728Y060237D01*
X046728Y060193D01*
X046724Y060149D01*
X046716Y060105D01*
X046704Y060063D01*
X046689Y060021D01*
X046670Y059981D01*
X046648Y059943D01*
X046622Y059907D01*
X046593Y059873D01*
X046561Y059842D01*
X046527Y059814D01*
X046491Y059790D01*
X046452Y059768D01*
X046412Y059750D01*
X046370Y059736D01*
X046327Y059725D01*
X046283Y059718D01*
X046239Y059715D01*
X046195Y059716D01*
X046151Y059721D01*
X046108Y059730D01*
X046065Y059742D01*
X046024Y059759D01*
X045984Y059778D01*
X045947Y059802D01*
X045911Y059828D01*
X045878Y059858D01*
X045848Y059890D01*
X045821Y059925D01*
X045797Y059962D01*
X045776Y060001D01*
X045759Y060042D01*
X045746Y060084D01*
X045736Y060127D01*
X045730Y060171D01*
X045728Y060215D01*
X040603Y054965D02*
X040605Y055009D01*
X040611Y055053D01*
X040621Y055096D01*
X040634Y055138D01*
X040651Y055179D01*
X040672Y055218D01*
X040696Y055255D01*
X040723Y055290D01*
X040753Y055322D01*
X040786Y055352D01*
X040822Y055378D01*
X040859Y055402D01*
X040899Y055421D01*
X040940Y055438D01*
X040983Y055450D01*
X041026Y055459D01*
X041070Y055464D01*
X041114Y055465D01*
X041158Y055462D01*
X041202Y055455D01*
X041245Y055444D01*
X041287Y055430D01*
X041327Y055412D01*
X041366Y055390D01*
X041402Y055366D01*
X041436Y055338D01*
X041468Y055307D01*
X041497Y055273D01*
X041523Y055237D01*
X041545Y055199D01*
X041564Y055159D01*
X041579Y055117D01*
X041591Y055075D01*
X041599Y055031D01*
X041603Y054987D01*
X041603Y054943D01*
X041599Y054899D01*
X041591Y054855D01*
X041579Y054813D01*
X041564Y054771D01*
X041545Y054731D01*
X041523Y054693D01*
X041497Y054657D01*
X041468Y054623D01*
X041436Y054592D01*
X041402Y054564D01*
X041366Y054540D01*
X041327Y054518D01*
X041287Y054500D01*
X041245Y054486D01*
X041202Y054475D01*
X041158Y054468D01*
X041114Y054465D01*
X041070Y054466D01*
X041026Y054471D01*
X040983Y054480D01*
X040940Y054492D01*
X040899Y054509D01*
X040859Y054528D01*
X040822Y054552D01*
X040786Y054578D01*
X040753Y054608D01*
X040723Y054640D01*
X040696Y054675D01*
X040672Y054712D01*
X040651Y054751D01*
X040634Y054792D01*
X040621Y054834D01*
X040611Y054877D01*
X040605Y054921D01*
X040603Y054965D01*
X042103Y047278D02*
X042105Y047322D01*
X042111Y047366D01*
X042121Y047409D01*
X042134Y047451D01*
X042151Y047492D01*
X042172Y047531D01*
X042196Y047568D01*
X042223Y047603D01*
X042253Y047635D01*
X042286Y047665D01*
X042322Y047691D01*
X042359Y047715D01*
X042399Y047734D01*
X042440Y047751D01*
X042483Y047763D01*
X042526Y047772D01*
X042570Y047777D01*
X042614Y047778D01*
X042658Y047775D01*
X042702Y047768D01*
X042745Y047757D01*
X042787Y047743D01*
X042827Y047725D01*
X042866Y047703D01*
X042902Y047679D01*
X042936Y047651D01*
X042968Y047620D01*
X042997Y047586D01*
X043023Y047550D01*
X043045Y047512D01*
X043064Y047472D01*
X043079Y047430D01*
X043091Y047388D01*
X043099Y047344D01*
X043103Y047300D01*
X043103Y047256D01*
X043099Y047212D01*
X043091Y047168D01*
X043079Y047126D01*
X043064Y047084D01*
X043045Y047044D01*
X043023Y047006D01*
X042997Y046970D01*
X042968Y046936D01*
X042936Y046905D01*
X042902Y046877D01*
X042866Y046853D01*
X042827Y046831D01*
X042787Y046813D01*
X042745Y046799D01*
X042702Y046788D01*
X042658Y046781D01*
X042614Y046778D01*
X042570Y046779D01*
X042526Y046784D01*
X042483Y046793D01*
X042440Y046805D01*
X042399Y046822D01*
X042359Y046841D01*
X042322Y046865D01*
X042286Y046891D01*
X042253Y046921D01*
X042223Y046953D01*
X042196Y046988D01*
X042172Y047025D01*
X042151Y047064D01*
X042134Y047105D01*
X042121Y047147D01*
X042111Y047190D01*
X042105Y047234D01*
X042103Y047278D01*
X051103Y035903D02*
X051105Y035947D01*
X051111Y035991D01*
X051121Y036034D01*
X051134Y036076D01*
X051151Y036117D01*
X051172Y036156D01*
X051196Y036193D01*
X051223Y036228D01*
X051253Y036260D01*
X051286Y036290D01*
X051322Y036316D01*
X051359Y036340D01*
X051399Y036359D01*
X051440Y036376D01*
X051483Y036388D01*
X051526Y036397D01*
X051570Y036402D01*
X051614Y036403D01*
X051658Y036400D01*
X051702Y036393D01*
X051745Y036382D01*
X051787Y036368D01*
X051827Y036350D01*
X051866Y036328D01*
X051902Y036304D01*
X051936Y036276D01*
X051968Y036245D01*
X051997Y036211D01*
X052023Y036175D01*
X052045Y036137D01*
X052064Y036097D01*
X052079Y036055D01*
X052091Y036013D01*
X052099Y035969D01*
X052103Y035925D01*
X052103Y035881D01*
X052099Y035837D01*
X052091Y035793D01*
X052079Y035751D01*
X052064Y035709D01*
X052045Y035669D01*
X052023Y035631D01*
X051997Y035595D01*
X051968Y035561D01*
X051936Y035530D01*
X051902Y035502D01*
X051866Y035478D01*
X051827Y035456D01*
X051787Y035438D01*
X051745Y035424D01*
X051702Y035413D01*
X051658Y035406D01*
X051614Y035403D01*
X051570Y035404D01*
X051526Y035409D01*
X051483Y035418D01*
X051440Y035430D01*
X051399Y035447D01*
X051359Y035466D01*
X051322Y035490D01*
X051286Y035516D01*
X051253Y035546D01*
X051223Y035578D01*
X051196Y035613D01*
X051172Y035650D01*
X051151Y035689D01*
X051134Y035730D01*
X051121Y035772D01*
X051111Y035815D01*
X051105Y035859D01*
X051103Y035903D01*
X057040Y041153D02*
X057042Y041197D01*
X057048Y041241D01*
X057058Y041284D01*
X057071Y041326D01*
X057088Y041367D01*
X057109Y041406D01*
X057133Y041443D01*
X057160Y041478D01*
X057190Y041510D01*
X057223Y041540D01*
X057259Y041566D01*
X057296Y041590D01*
X057336Y041609D01*
X057377Y041626D01*
X057420Y041638D01*
X057463Y041647D01*
X057507Y041652D01*
X057551Y041653D01*
X057595Y041650D01*
X057639Y041643D01*
X057682Y041632D01*
X057724Y041618D01*
X057764Y041600D01*
X057803Y041578D01*
X057839Y041554D01*
X057873Y041526D01*
X057905Y041495D01*
X057934Y041461D01*
X057960Y041425D01*
X057982Y041387D01*
X058001Y041347D01*
X058016Y041305D01*
X058028Y041263D01*
X058036Y041219D01*
X058040Y041175D01*
X058040Y041131D01*
X058036Y041087D01*
X058028Y041043D01*
X058016Y041001D01*
X058001Y040959D01*
X057982Y040919D01*
X057960Y040881D01*
X057934Y040845D01*
X057905Y040811D01*
X057873Y040780D01*
X057839Y040752D01*
X057803Y040728D01*
X057764Y040706D01*
X057724Y040688D01*
X057682Y040674D01*
X057639Y040663D01*
X057595Y040656D01*
X057551Y040653D01*
X057507Y040654D01*
X057463Y040659D01*
X057420Y040668D01*
X057377Y040680D01*
X057336Y040697D01*
X057296Y040716D01*
X057259Y040740D01*
X057223Y040766D01*
X057190Y040796D01*
X057160Y040828D01*
X057133Y040863D01*
X057109Y040900D01*
X057088Y040939D01*
X057071Y040980D01*
X057058Y041022D01*
X057048Y041065D01*
X057042Y041109D01*
X057040Y041153D01*
X063103Y035903D02*
X063105Y035947D01*
X063111Y035991D01*
X063121Y036034D01*
X063134Y036076D01*
X063151Y036117D01*
X063172Y036156D01*
X063196Y036193D01*
X063223Y036228D01*
X063253Y036260D01*
X063286Y036290D01*
X063322Y036316D01*
X063359Y036340D01*
X063399Y036359D01*
X063440Y036376D01*
X063483Y036388D01*
X063526Y036397D01*
X063570Y036402D01*
X063614Y036403D01*
X063658Y036400D01*
X063702Y036393D01*
X063745Y036382D01*
X063787Y036368D01*
X063827Y036350D01*
X063866Y036328D01*
X063902Y036304D01*
X063936Y036276D01*
X063968Y036245D01*
X063997Y036211D01*
X064023Y036175D01*
X064045Y036137D01*
X064064Y036097D01*
X064079Y036055D01*
X064091Y036013D01*
X064099Y035969D01*
X064103Y035925D01*
X064103Y035881D01*
X064099Y035837D01*
X064091Y035793D01*
X064079Y035751D01*
X064064Y035709D01*
X064045Y035669D01*
X064023Y035631D01*
X063997Y035595D01*
X063968Y035561D01*
X063936Y035530D01*
X063902Y035502D01*
X063866Y035478D01*
X063827Y035456D01*
X063787Y035438D01*
X063745Y035424D01*
X063702Y035413D01*
X063658Y035406D01*
X063614Y035403D01*
X063570Y035404D01*
X063526Y035409D01*
X063483Y035418D01*
X063440Y035430D01*
X063399Y035447D01*
X063359Y035466D01*
X063322Y035490D01*
X063286Y035516D01*
X063253Y035546D01*
X063223Y035578D01*
X063196Y035613D01*
X063172Y035650D01*
X063151Y035689D01*
X063134Y035730D01*
X063121Y035772D01*
X063111Y035815D01*
X063105Y035859D01*
X063103Y035903D01*
X068970Y034405D02*
X068972Y034455D01*
X068978Y034505D01*
X068988Y034554D01*
X069002Y034602D01*
X069019Y034649D01*
X069040Y034694D01*
X069065Y034738D01*
X069093Y034779D01*
X069125Y034818D01*
X069159Y034855D01*
X069196Y034889D01*
X069236Y034919D01*
X069278Y034946D01*
X069322Y034970D01*
X069368Y034991D01*
X069415Y035007D01*
X069463Y035020D01*
X069513Y035029D01*
X069562Y035034D01*
X069613Y035035D01*
X069663Y035032D01*
X069712Y035025D01*
X069761Y035014D01*
X069809Y034999D01*
X069855Y034981D01*
X069900Y034959D01*
X069943Y034933D01*
X069984Y034904D01*
X070023Y034872D01*
X070059Y034837D01*
X070091Y034799D01*
X070121Y034759D01*
X070148Y034716D01*
X070171Y034672D01*
X070190Y034626D01*
X070206Y034578D01*
X070218Y034529D01*
X070226Y034480D01*
X070230Y034430D01*
X070230Y034380D01*
X070226Y034330D01*
X070218Y034281D01*
X070206Y034232D01*
X070190Y034184D01*
X070171Y034138D01*
X070148Y034094D01*
X070121Y034051D01*
X070091Y034011D01*
X070059Y033973D01*
X070023Y033938D01*
X069984Y033906D01*
X069943Y033877D01*
X069900Y033851D01*
X069855Y033829D01*
X069809Y033811D01*
X069761Y033796D01*
X069712Y033785D01*
X069663Y033778D01*
X069613Y033775D01*
X069562Y033776D01*
X069513Y033781D01*
X069463Y033790D01*
X069415Y033803D01*
X069368Y033819D01*
X069322Y033840D01*
X069278Y033864D01*
X069236Y033891D01*
X069196Y033921D01*
X069159Y033955D01*
X069125Y033992D01*
X069093Y034031D01*
X069065Y034072D01*
X069040Y034116D01*
X069019Y034161D01*
X069002Y034208D01*
X068988Y034256D01*
X068978Y034305D01*
X068972Y034355D01*
X068970Y034405D01*
X074353Y035903D02*
X074355Y035947D01*
X074361Y035991D01*
X074371Y036034D01*
X074384Y036076D01*
X074401Y036117D01*
X074422Y036156D01*
X074446Y036193D01*
X074473Y036228D01*
X074503Y036260D01*
X074536Y036290D01*
X074572Y036316D01*
X074609Y036340D01*
X074649Y036359D01*
X074690Y036376D01*
X074733Y036388D01*
X074776Y036397D01*
X074820Y036402D01*
X074864Y036403D01*
X074908Y036400D01*
X074952Y036393D01*
X074995Y036382D01*
X075037Y036368D01*
X075077Y036350D01*
X075116Y036328D01*
X075152Y036304D01*
X075186Y036276D01*
X075218Y036245D01*
X075247Y036211D01*
X075273Y036175D01*
X075295Y036137D01*
X075314Y036097D01*
X075329Y036055D01*
X075341Y036013D01*
X075349Y035969D01*
X075353Y035925D01*
X075353Y035881D01*
X075349Y035837D01*
X075341Y035793D01*
X075329Y035751D01*
X075314Y035709D01*
X075295Y035669D01*
X075273Y035631D01*
X075247Y035595D01*
X075218Y035561D01*
X075186Y035530D01*
X075152Y035502D01*
X075116Y035478D01*
X075077Y035456D01*
X075037Y035438D01*
X074995Y035424D01*
X074952Y035413D01*
X074908Y035406D01*
X074864Y035403D01*
X074820Y035404D01*
X074776Y035409D01*
X074733Y035418D01*
X074690Y035430D01*
X074649Y035447D01*
X074609Y035466D01*
X074572Y035490D01*
X074536Y035516D01*
X074503Y035546D01*
X074473Y035578D01*
X074446Y035613D01*
X074422Y035650D01*
X074401Y035689D01*
X074384Y035730D01*
X074371Y035772D01*
X074361Y035815D01*
X074355Y035859D01*
X074353Y035903D01*
X074353Y047278D02*
X074355Y047322D01*
X074361Y047366D01*
X074371Y047409D01*
X074384Y047451D01*
X074401Y047492D01*
X074422Y047531D01*
X074446Y047568D01*
X074473Y047603D01*
X074503Y047635D01*
X074536Y047665D01*
X074572Y047691D01*
X074609Y047715D01*
X074649Y047734D01*
X074690Y047751D01*
X074733Y047763D01*
X074776Y047772D01*
X074820Y047777D01*
X074864Y047778D01*
X074908Y047775D01*
X074952Y047768D01*
X074995Y047757D01*
X075037Y047743D01*
X075077Y047725D01*
X075116Y047703D01*
X075152Y047679D01*
X075186Y047651D01*
X075218Y047620D01*
X075247Y047586D01*
X075273Y047550D01*
X075295Y047512D01*
X075314Y047472D01*
X075329Y047430D01*
X075341Y047388D01*
X075349Y047344D01*
X075353Y047300D01*
X075353Y047256D01*
X075349Y047212D01*
X075341Y047168D01*
X075329Y047126D01*
X075314Y047084D01*
X075295Y047044D01*
X075273Y047006D01*
X075247Y046970D01*
X075218Y046936D01*
X075186Y046905D01*
X075152Y046877D01*
X075116Y046853D01*
X075077Y046831D01*
X075037Y046813D01*
X074995Y046799D01*
X074952Y046788D01*
X074908Y046781D01*
X074864Y046778D01*
X074820Y046779D01*
X074776Y046784D01*
X074733Y046793D01*
X074690Y046805D01*
X074649Y046822D01*
X074609Y046841D01*
X074572Y046865D01*
X074536Y046891D01*
X074503Y046921D01*
X074473Y046953D01*
X074446Y046988D01*
X074422Y047025D01*
X074401Y047064D01*
X074384Y047105D01*
X074371Y047147D01*
X074361Y047190D01*
X074355Y047234D01*
X074353Y047278D01*
X066103Y047278D02*
X066105Y047322D01*
X066111Y047366D01*
X066121Y047409D01*
X066134Y047451D01*
X066151Y047492D01*
X066172Y047531D01*
X066196Y047568D01*
X066223Y047603D01*
X066253Y047635D01*
X066286Y047665D01*
X066322Y047691D01*
X066359Y047715D01*
X066399Y047734D01*
X066440Y047751D01*
X066483Y047763D01*
X066526Y047772D01*
X066570Y047777D01*
X066614Y047778D01*
X066658Y047775D01*
X066702Y047768D01*
X066745Y047757D01*
X066787Y047743D01*
X066827Y047725D01*
X066866Y047703D01*
X066902Y047679D01*
X066936Y047651D01*
X066968Y047620D01*
X066997Y047586D01*
X067023Y047550D01*
X067045Y047512D01*
X067064Y047472D01*
X067079Y047430D01*
X067091Y047388D01*
X067099Y047344D01*
X067103Y047300D01*
X067103Y047256D01*
X067099Y047212D01*
X067091Y047168D01*
X067079Y047126D01*
X067064Y047084D01*
X067045Y047044D01*
X067023Y047006D01*
X066997Y046970D01*
X066968Y046936D01*
X066936Y046905D01*
X066902Y046877D01*
X066866Y046853D01*
X066827Y046831D01*
X066787Y046813D01*
X066745Y046799D01*
X066702Y046788D01*
X066658Y046781D01*
X066614Y046778D01*
X066570Y046779D01*
X066526Y046784D01*
X066483Y046793D01*
X066440Y046805D01*
X066399Y046822D01*
X066359Y046841D01*
X066322Y046865D01*
X066286Y046891D01*
X066253Y046921D01*
X066223Y046953D01*
X066196Y046988D01*
X066172Y047025D01*
X066151Y047064D01*
X066134Y047105D01*
X066121Y047147D01*
X066111Y047190D01*
X066105Y047234D01*
X066103Y047278D01*
X068970Y066705D02*
X068972Y066755D01*
X068978Y066805D01*
X068988Y066854D01*
X069002Y066902D01*
X069019Y066949D01*
X069040Y066994D01*
X069065Y067038D01*
X069093Y067079D01*
X069125Y067118D01*
X069159Y067155D01*
X069196Y067189D01*
X069236Y067219D01*
X069278Y067246D01*
X069322Y067270D01*
X069368Y067291D01*
X069415Y067307D01*
X069463Y067320D01*
X069513Y067329D01*
X069562Y067334D01*
X069613Y067335D01*
X069663Y067332D01*
X069712Y067325D01*
X069761Y067314D01*
X069809Y067299D01*
X069855Y067281D01*
X069900Y067259D01*
X069943Y067233D01*
X069984Y067204D01*
X070023Y067172D01*
X070059Y067137D01*
X070091Y067099D01*
X070121Y067059D01*
X070148Y067016D01*
X070171Y066972D01*
X070190Y066926D01*
X070206Y066878D01*
X070218Y066829D01*
X070226Y066780D01*
X070230Y066730D01*
X070230Y066680D01*
X070226Y066630D01*
X070218Y066581D01*
X070206Y066532D01*
X070190Y066484D01*
X070171Y066438D01*
X070148Y066394D01*
X070121Y066351D01*
X070091Y066311D01*
X070059Y066273D01*
X070023Y066238D01*
X069984Y066206D01*
X069943Y066177D01*
X069900Y066151D01*
X069855Y066129D01*
X069809Y066111D01*
X069761Y066096D01*
X069712Y066085D01*
X069663Y066078D01*
X069613Y066075D01*
X069562Y066076D01*
X069513Y066081D01*
X069463Y066090D01*
X069415Y066103D01*
X069368Y066119D01*
X069322Y066140D01*
X069278Y066164D01*
X069236Y066191D01*
X069196Y066221D01*
X069159Y066255D01*
X069125Y066292D01*
X069093Y066331D01*
X069065Y066372D01*
X069040Y066416D01*
X069019Y066461D01*
X069002Y066508D01*
X068988Y066556D01*
X068978Y066605D01*
X068972Y066655D01*
X068970Y066705D01*
X063103Y068203D02*
X063105Y068247D01*
X063111Y068291D01*
X063121Y068334D01*
X063134Y068376D01*
X063151Y068417D01*
X063172Y068456D01*
X063196Y068493D01*
X063223Y068528D01*
X063253Y068560D01*
X063286Y068590D01*
X063322Y068616D01*
X063359Y068640D01*
X063399Y068659D01*
X063440Y068676D01*
X063483Y068688D01*
X063526Y068697D01*
X063570Y068702D01*
X063614Y068703D01*
X063658Y068700D01*
X063702Y068693D01*
X063745Y068682D01*
X063787Y068668D01*
X063827Y068650D01*
X063866Y068628D01*
X063902Y068604D01*
X063936Y068576D01*
X063968Y068545D01*
X063997Y068511D01*
X064023Y068475D01*
X064045Y068437D01*
X064064Y068397D01*
X064079Y068355D01*
X064091Y068313D01*
X064099Y068269D01*
X064103Y068225D01*
X064103Y068181D01*
X064099Y068137D01*
X064091Y068093D01*
X064079Y068051D01*
X064064Y068009D01*
X064045Y067969D01*
X064023Y067931D01*
X063997Y067895D01*
X063968Y067861D01*
X063936Y067830D01*
X063902Y067802D01*
X063866Y067778D01*
X063827Y067756D01*
X063787Y067738D01*
X063745Y067724D01*
X063702Y067713D01*
X063658Y067706D01*
X063614Y067703D01*
X063570Y067704D01*
X063526Y067709D01*
X063483Y067718D01*
X063440Y067730D01*
X063399Y067747D01*
X063359Y067766D01*
X063322Y067790D01*
X063286Y067816D01*
X063253Y067846D01*
X063223Y067878D01*
X063196Y067913D01*
X063172Y067950D01*
X063151Y067989D01*
X063134Y068030D01*
X063121Y068072D01*
X063111Y068115D01*
X063105Y068159D01*
X063103Y068203D01*
X057040Y073453D02*
X057042Y073497D01*
X057048Y073541D01*
X057058Y073584D01*
X057071Y073626D01*
X057088Y073667D01*
X057109Y073706D01*
X057133Y073743D01*
X057160Y073778D01*
X057190Y073810D01*
X057223Y073840D01*
X057259Y073866D01*
X057296Y073890D01*
X057336Y073909D01*
X057377Y073926D01*
X057420Y073938D01*
X057463Y073947D01*
X057507Y073952D01*
X057551Y073953D01*
X057595Y073950D01*
X057639Y073943D01*
X057682Y073932D01*
X057724Y073918D01*
X057764Y073900D01*
X057803Y073878D01*
X057839Y073854D01*
X057873Y073826D01*
X057905Y073795D01*
X057934Y073761D01*
X057960Y073725D01*
X057982Y073687D01*
X058001Y073647D01*
X058016Y073605D01*
X058028Y073563D01*
X058036Y073519D01*
X058040Y073475D01*
X058040Y073431D01*
X058036Y073387D01*
X058028Y073343D01*
X058016Y073301D01*
X058001Y073259D01*
X057982Y073219D01*
X057960Y073181D01*
X057934Y073145D01*
X057905Y073111D01*
X057873Y073080D01*
X057839Y073052D01*
X057803Y073028D01*
X057764Y073006D01*
X057724Y072988D01*
X057682Y072974D01*
X057639Y072963D01*
X057595Y072956D01*
X057551Y072953D01*
X057507Y072954D01*
X057463Y072959D01*
X057420Y072968D01*
X057377Y072980D01*
X057336Y072997D01*
X057296Y073016D01*
X057259Y073040D01*
X057223Y073066D01*
X057190Y073096D01*
X057160Y073128D01*
X057133Y073163D01*
X057109Y073200D01*
X057088Y073239D01*
X057071Y073280D01*
X057058Y073322D01*
X057048Y073365D01*
X057042Y073409D01*
X057040Y073453D01*
X051103Y068203D02*
X051105Y068247D01*
X051111Y068291D01*
X051121Y068334D01*
X051134Y068376D01*
X051151Y068417D01*
X051172Y068456D01*
X051196Y068493D01*
X051223Y068528D01*
X051253Y068560D01*
X051286Y068590D01*
X051322Y068616D01*
X051359Y068640D01*
X051399Y068659D01*
X051440Y068676D01*
X051483Y068688D01*
X051526Y068697D01*
X051570Y068702D01*
X051614Y068703D01*
X051658Y068700D01*
X051702Y068693D01*
X051745Y068682D01*
X051787Y068668D01*
X051827Y068650D01*
X051866Y068628D01*
X051902Y068604D01*
X051936Y068576D01*
X051968Y068545D01*
X051997Y068511D01*
X052023Y068475D01*
X052045Y068437D01*
X052064Y068397D01*
X052079Y068355D01*
X052091Y068313D01*
X052099Y068269D01*
X052103Y068225D01*
X052103Y068181D01*
X052099Y068137D01*
X052091Y068093D01*
X052079Y068051D01*
X052064Y068009D01*
X052045Y067969D01*
X052023Y067931D01*
X051997Y067895D01*
X051968Y067861D01*
X051936Y067830D01*
X051902Y067802D01*
X051866Y067778D01*
X051827Y067756D01*
X051787Y067738D01*
X051745Y067724D01*
X051702Y067713D01*
X051658Y067706D01*
X051614Y067703D01*
X051570Y067704D01*
X051526Y067709D01*
X051483Y067718D01*
X051440Y067730D01*
X051399Y067747D01*
X051359Y067766D01*
X051322Y067790D01*
X051286Y067816D01*
X051253Y067846D01*
X051223Y067878D01*
X051196Y067913D01*
X051172Y067950D01*
X051151Y067989D01*
X051134Y068030D01*
X051121Y068072D01*
X051111Y068115D01*
X051105Y068159D01*
X051103Y068203D01*
X042103Y079578D02*
X042105Y079622D01*
X042111Y079666D01*
X042121Y079709D01*
X042134Y079751D01*
X042151Y079792D01*
X042172Y079831D01*
X042196Y079868D01*
X042223Y079903D01*
X042253Y079935D01*
X042286Y079965D01*
X042322Y079991D01*
X042359Y080015D01*
X042399Y080034D01*
X042440Y080051D01*
X042483Y080063D01*
X042526Y080072D01*
X042570Y080077D01*
X042614Y080078D01*
X042658Y080075D01*
X042702Y080068D01*
X042745Y080057D01*
X042787Y080043D01*
X042827Y080025D01*
X042866Y080003D01*
X042902Y079979D01*
X042936Y079951D01*
X042968Y079920D01*
X042997Y079886D01*
X043023Y079850D01*
X043045Y079812D01*
X043064Y079772D01*
X043079Y079730D01*
X043091Y079688D01*
X043099Y079644D01*
X043103Y079600D01*
X043103Y079556D01*
X043099Y079512D01*
X043091Y079468D01*
X043079Y079426D01*
X043064Y079384D01*
X043045Y079344D01*
X043023Y079306D01*
X042997Y079270D01*
X042968Y079236D01*
X042936Y079205D01*
X042902Y079177D01*
X042866Y079153D01*
X042827Y079131D01*
X042787Y079113D01*
X042745Y079099D01*
X042702Y079088D01*
X042658Y079081D01*
X042614Y079078D01*
X042570Y079079D01*
X042526Y079084D01*
X042483Y079093D01*
X042440Y079105D01*
X042399Y079122D01*
X042359Y079141D01*
X042322Y079165D01*
X042286Y079191D01*
X042253Y079221D01*
X042223Y079253D01*
X042196Y079288D01*
X042172Y079325D01*
X042151Y079364D01*
X042134Y079405D01*
X042121Y079447D01*
X042111Y079490D01*
X042105Y079534D01*
X042103Y079578D01*
X040603Y087265D02*
X040605Y087309D01*
X040611Y087353D01*
X040621Y087396D01*
X040634Y087438D01*
X040651Y087479D01*
X040672Y087518D01*
X040696Y087555D01*
X040723Y087590D01*
X040753Y087622D01*
X040786Y087652D01*
X040822Y087678D01*
X040859Y087702D01*
X040899Y087721D01*
X040940Y087738D01*
X040983Y087750D01*
X041026Y087759D01*
X041070Y087764D01*
X041114Y087765D01*
X041158Y087762D01*
X041202Y087755D01*
X041245Y087744D01*
X041287Y087730D01*
X041327Y087712D01*
X041366Y087690D01*
X041402Y087666D01*
X041436Y087638D01*
X041468Y087607D01*
X041497Y087573D01*
X041523Y087537D01*
X041545Y087499D01*
X041564Y087459D01*
X041579Y087417D01*
X041591Y087375D01*
X041599Y087331D01*
X041603Y087287D01*
X041603Y087243D01*
X041599Y087199D01*
X041591Y087155D01*
X041579Y087113D01*
X041564Y087071D01*
X041545Y087031D01*
X041523Y086993D01*
X041497Y086957D01*
X041468Y086923D01*
X041436Y086892D01*
X041402Y086864D01*
X041366Y086840D01*
X041327Y086818D01*
X041287Y086800D01*
X041245Y086786D01*
X041202Y086775D01*
X041158Y086768D01*
X041114Y086765D01*
X041070Y086766D01*
X041026Y086771D01*
X040983Y086780D01*
X040940Y086792D01*
X040899Y086809D01*
X040859Y086828D01*
X040822Y086852D01*
X040786Y086878D01*
X040753Y086908D01*
X040723Y086940D01*
X040696Y086975D01*
X040672Y087012D01*
X040651Y087051D01*
X040634Y087092D01*
X040621Y087134D01*
X040611Y087177D01*
X040605Y087221D01*
X040603Y087265D01*
X045728Y092515D02*
X045730Y092559D01*
X045736Y092603D01*
X045746Y092646D01*
X045759Y092688D01*
X045776Y092729D01*
X045797Y092768D01*
X045821Y092805D01*
X045848Y092840D01*
X045878Y092872D01*
X045911Y092902D01*
X045947Y092928D01*
X045984Y092952D01*
X046024Y092971D01*
X046065Y092988D01*
X046108Y093000D01*
X046151Y093009D01*
X046195Y093014D01*
X046239Y093015D01*
X046283Y093012D01*
X046327Y093005D01*
X046370Y092994D01*
X046412Y092980D01*
X046452Y092962D01*
X046491Y092940D01*
X046527Y092916D01*
X046561Y092888D01*
X046593Y092857D01*
X046622Y092823D01*
X046648Y092787D01*
X046670Y092749D01*
X046689Y092709D01*
X046704Y092667D01*
X046716Y092625D01*
X046724Y092581D01*
X046728Y092537D01*
X046728Y092493D01*
X046724Y092449D01*
X046716Y092405D01*
X046704Y092363D01*
X046689Y092321D01*
X046670Y092281D01*
X046648Y092243D01*
X046622Y092207D01*
X046593Y092173D01*
X046561Y092142D01*
X046527Y092114D01*
X046491Y092090D01*
X046452Y092068D01*
X046412Y092050D01*
X046370Y092036D01*
X046327Y092025D01*
X046283Y092018D01*
X046239Y092015D01*
X046195Y092016D01*
X046151Y092021D01*
X046108Y092030D01*
X046065Y092042D01*
X046024Y092059D01*
X045984Y092078D01*
X045947Y092102D01*
X045911Y092128D01*
X045878Y092158D01*
X045848Y092190D01*
X045821Y092225D01*
X045797Y092262D01*
X045776Y092301D01*
X045759Y092342D01*
X045746Y092384D01*
X045736Y092427D01*
X045730Y092471D01*
X045728Y092515D01*
X066103Y079578D02*
X066105Y079622D01*
X066111Y079666D01*
X066121Y079709D01*
X066134Y079751D01*
X066151Y079792D01*
X066172Y079831D01*
X066196Y079868D01*
X066223Y079903D01*
X066253Y079935D01*
X066286Y079965D01*
X066322Y079991D01*
X066359Y080015D01*
X066399Y080034D01*
X066440Y080051D01*
X066483Y080063D01*
X066526Y080072D01*
X066570Y080077D01*
X066614Y080078D01*
X066658Y080075D01*
X066702Y080068D01*
X066745Y080057D01*
X066787Y080043D01*
X066827Y080025D01*
X066866Y080003D01*
X066902Y079979D01*
X066936Y079951D01*
X066968Y079920D01*
X066997Y079886D01*
X067023Y079850D01*
X067045Y079812D01*
X067064Y079772D01*
X067079Y079730D01*
X067091Y079688D01*
X067099Y079644D01*
X067103Y079600D01*
X067103Y079556D01*
X067099Y079512D01*
X067091Y079468D01*
X067079Y079426D01*
X067064Y079384D01*
X067045Y079344D01*
X067023Y079306D01*
X066997Y079270D01*
X066968Y079236D01*
X066936Y079205D01*
X066902Y079177D01*
X066866Y079153D01*
X066827Y079131D01*
X066787Y079113D01*
X066745Y079099D01*
X066702Y079088D01*
X066658Y079081D01*
X066614Y079078D01*
X066570Y079079D01*
X066526Y079084D01*
X066483Y079093D01*
X066440Y079105D01*
X066399Y079122D01*
X066359Y079141D01*
X066322Y079165D01*
X066286Y079191D01*
X066253Y079221D01*
X066223Y079253D01*
X066196Y079288D01*
X066172Y079325D01*
X066151Y079364D01*
X066134Y079405D01*
X066121Y079447D01*
X066111Y079490D01*
X066105Y079534D01*
X066103Y079578D01*
X074353Y079578D02*
X074355Y079622D01*
X074361Y079666D01*
X074371Y079709D01*
X074384Y079751D01*
X074401Y079792D01*
X074422Y079831D01*
X074446Y079868D01*
X074473Y079903D01*
X074503Y079935D01*
X074536Y079965D01*
X074572Y079991D01*
X074609Y080015D01*
X074649Y080034D01*
X074690Y080051D01*
X074733Y080063D01*
X074776Y080072D01*
X074820Y080077D01*
X074864Y080078D01*
X074908Y080075D01*
X074952Y080068D01*
X074995Y080057D01*
X075037Y080043D01*
X075077Y080025D01*
X075116Y080003D01*
X075152Y079979D01*
X075186Y079951D01*
X075218Y079920D01*
X075247Y079886D01*
X075273Y079850D01*
X075295Y079812D01*
X075314Y079772D01*
X075329Y079730D01*
X075341Y079688D01*
X075349Y079644D01*
X075353Y079600D01*
X075353Y079556D01*
X075349Y079512D01*
X075341Y079468D01*
X075329Y079426D01*
X075314Y079384D01*
X075295Y079344D01*
X075273Y079306D01*
X075247Y079270D01*
X075218Y079236D01*
X075186Y079205D01*
X075152Y079177D01*
X075116Y079153D01*
X075077Y079131D01*
X075037Y079113D01*
X074995Y079099D01*
X074952Y079088D01*
X074908Y079081D01*
X074864Y079078D01*
X074820Y079079D01*
X074776Y079084D01*
X074733Y079093D01*
X074690Y079105D01*
X074649Y079122D01*
X074609Y079141D01*
X074572Y079165D01*
X074536Y079191D01*
X074503Y079221D01*
X074473Y079253D01*
X074446Y079288D01*
X074422Y079325D01*
X074401Y079364D01*
X074384Y079405D01*
X074371Y079447D01*
X074361Y079490D01*
X074355Y079534D01*
X074353Y079578D01*
X074353Y068203D02*
X074355Y068247D01*
X074361Y068291D01*
X074371Y068334D01*
X074384Y068376D01*
X074401Y068417D01*
X074422Y068456D01*
X074446Y068493D01*
X074473Y068528D01*
X074503Y068560D01*
X074536Y068590D01*
X074572Y068616D01*
X074609Y068640D01*
X074649Y068659D01*
X074690Y068676D01*
X074733Y068688D01*
X074776Y068697D01*
X074820Y068702D01*
X074864Y068703D01*
X074908Y068700D01*
X074952Y068693D01*
X074995Y068682D01*
X075037Y068668D01*
X075077Y068650D01*
X075116Y068628D01*
X075152Y068604D01*
X075186Y068576D01*
X075218Y068545D01*
X075247Y068511D01*
X075273Y068475D01*
X075295Y068437D01*
X075314Y068397D01*
X075329Y068355D01*
X075341Y068313D01*
X075349Y068269D01*
X075353Y068225D01*
X075353Y068181D01*
X075349Y068137D01*
X075341Y068093D01*
X075329Y068051D01*
X075314Y068009D01*
X075295Y067969D01*
X075273Y067931D01*
X075247Y067895D01*
X075218Y067861D01*
X075186Y067830D01*
X075152Y067802D01*
X075116Y067778D01*
X075077Y067756D01*
X075037Y067738D01*
X074995Y067724D01*
X074952Y067713D01*
X074908Y067706D01*
X074864Y067703D01*
X074820Y067704D01*
X074776Y067709D01*
X074733Y067718D01*
X074690Y067730D01*
X074649Y067747D01*
X074609Y067766D01*
X074572Y067790D01*
X074536Y067816D01*
X074503Y067846D01*
X074473Y067878D01*
X074446Y067913D01*
X074422Y067950D01*
X074401Y067989D01*
X074384Y068030D01*
X074371Y068072D01*
X074361Y068115D01*
X074355Y068159D01*
X074353Y068203D01*
X075825Y096900D02*
X078325Y096900D01*
X078325Y000100D01*
X075825Y000100D01*
X075825Y096900D01*
X074353Y014978D02*
X074355Y015022D01*
X074361Y015066D01*
X074371Y015109D01*
X074384Y015151D01*
X074401Y015192D01*
X074422Y015231D01*
X074446Y015268D01*
X074473Y015303D01*
X074503Y015335D01*
X074536Y015365D01*
X074572Y015391D01*
X074609Y015415D01*
X074649Y015434D01*
X074690Y015451D01*
X074733Y015463D01*
X074776Y015472D01*
X074820Y015477D01*
X074864Y015478D01*
X074908Y015475D01*
X074952Y015468D01*
X074995Y015457D01*
X075037Y015443D01*
X075077Y015425D01*
X075116Y015403D01*
X075152Y015379D01*
X075186Y015351D01*
X075218Y015320D01*
X075247Y015286D01*
X075273Y015250D01*
X075295Y015212D01*
X075314Y015172D01*
X075329Y015130D01*
X075341Y015088D01*
X075349Y015044D01*
X075353Y015000D01*
X075353Y014956D01*
X075349Y014912D01*
X075341Y014868D01*
X075329Y014826D01*
X075314Y014784D01*
X075295Y014744D01*
X075273Y014706D01*
X075247Y014670D01*
X075218Y014636D01*
X075186Y014605D01*
X075152Y014577D01*
X075116Y014553D01*
X075077Y014531D01*
X075037Y014513D01*
X074995Y014499D01*
X074952Y014488D01*
X074908Y014481D01*
X074864Y014478D01*
X074820Y014479D01*
X074776Y014484D01*
X074733Y014493D01*
X074690Y014505D01*
X074649Y014522D01*
X074609Y014541D01*
X074572Y014565D01*
X074536Y014591D01*
X074503Y014621D01*
X074473Y014653D01*
X074446Y014688D01*
X074422Y014725D01*
X074401Y014764D01*
X074384Y014805D01*
X074371Y014847D01*
X074361Y014890D01*
X074355Y014934D01*
X074353Y014978D01*
X066103Y014978D02*
X066105Y015022D01*
X066111Y015066D01*
X066121Y015109D01*
X066134Y015151D01*
X066151Y015192D01*
X066172Y015231D01*
X066196Y015268D01*
X066223Y015303D01*
X066253Y015335D01*
X066286Y015365D01*
X066322Y015391D01*
X066359Y015415D01*
X066399Y015434D01*
X066440Y015451D01*
X066483Y015463D01*
X066526Y015472D01*
X066570Y015477D01*
X066614Y015478D01*
X066658Y015475D01*
X066702Y015468D01*
X066745Y015457D01*
X066787Y015443D01*
X066827Y015425D01*
X066866Y015403D01*
X066902Y015379D01*
X066936Y015351D01*
X066968Y015320D01*
X066997Y015286D01*
X067023Y015250D01*
X067045Y015212D01*
X067064Y015172D01*
X067079Y015130D01*
X067091Y015088D01*
X067099Y015044D01*
X067103Y015000D01*
X067103Y014956D01*
X067099Y014912D01*
X067091Y014868D01*
X067079Y014826D01*
X067064Y014784D01*
X067045Y014744D01*
X067023Y014706D01*
X066997Y014670D01*
X066968Y014636D01*
X066936Y014605D01*
X066902Y014577D01*
X066866Y014553D01*
X066827Y014531D01*
X066787Y014513D01*
X066745Y014499D01*
X066702Y014488D01*
X066658Y014481D01*
X066614Y014478D01*
X066570Y014479D01*
X066526Y014484D01*
X066483Y014493D01*
X066440Y014505D01*
X066399Y014522D01*
X066359Y014541D01*
X066322Y014565D01*
X066286Y014591D01*
X066253Y014621D01*
X066223Y014653D01*
X066196Y014688D01*
X066172Y014725D01*
X066151Y014764D01*
X066134Y014805D01*
X066121Y014847D01*
X066111Y014890D01*
X066105Y014934D01*
X066103Y014978D01*
X057040Y008853D02*
X057042Y008897D01*
X057048Y008941D01*
X057058Y008984D01*
X057071Y009026D01*
X057088Y009067D01*
X057109Y009106D01*
X057133Y009143D01*
X057160Y009178D01*
X057190Y009210D01*
X057223Y009240D01*
X057259Y009266D01*
X057296Y009290D01*
X057336Y009309D01*
X057377Y009326D01*
X057420Y009338D01*
X057463Y009347D01*
X057507Y009352D01*
X057551Y009353D01*
X057595Y009350D01*
X057639Y009343D01*
X057682Y009332D01*
X057724Y009318D01*
X057764Y009300D01*
X057803Y009278D01*
X057839Y009254D01*
X057873Y009226D01*
X057905Y009195D01*
X057934Y009161D01*
X057960Y009125D01*
X057982Y009087D01*
X058001Y009047D01*
X058016Y009005D01*
X058028Y008963D01*
X058036Y008919D01*
X058040Y008875D01*
X058040Y008831D01*
X058036Y008787D01*
X058028Y008743D01*
X058016Y008701D01*
X058001Y008659D01*
X057982Y008619D01*
X057960Y008581D01*
X057934Y008545D01*
X057905Y008511D01*
X057873Y008480D01*
X057839Y008452D01*
X057803Y008428D01*
X057764Y008406D01*
X057724Y008388D01*
X057682Y008374D01*
X057639Y008363D01*
X057595Y008356D01*
X057551Y008353D01*
X057507Y008354D01*
X057463Y008359D01*
X057420Y008368D01*
X057377Y008380D01*
X057336Y008397D01*
X057296Y008416D01*
X057259Y008440D01*
X057223Y008466D01*
X057190Y008496D01*
X057160Y008528D01*
X057133Y008563D01*
X057109Y008600D01*
X057088Y008639D01*
X057071Y008680D01*
X057058Y008722D01*
X057048Y008765D01*
X057042Y008809D01*
X057040Y008853D01*
X051103Y003603D02*
X051105Y003647D01*
X051111Y003691D01*
X051121Y003734D01*
X051134Y003776D01*
X051151Y003817D01*
X051172Y003856D01*
X051196Y003893D01*
X051223Y003928D01*
X051253Y003960D01*
X051286Y003990D01*
X051322Y004016D01*
X051359Y004040D01*
X051399Y004059D01*
X051440Y004076D01*
X051483Y004088D01*
X051526Y004097D01*
X051570Y004102D01*
X051614Y004103D01*
X051658Y004100D01*
X051702Y004093D01*
X051745Y004082D01*
X051787Y004068D01*
X051827Y004050D01*
X051866Y004028D01*
X051902Y004004D01*
X051936Y003976D01*
X051968Y003945D01*
X051997Y003911D01*
X052023Y003875D01*
X052045Y003837D01*
X052064Y003797D01*
X052079Y003755D01*
X052091Y003713D01*
X052099Y003669D01*
X052103Y003625D01*
X052103Y003581D01*
X052099Y003537D01*
X052091Y003493D01*
X052079Y003451D01*
X052064Y003409D01*
X052045Y003369D01*
X052023Y003331D01*
X051997Y003295D01*
X051968Y003261D01*
X051936Y003230D01*
X051902Y003202D01*
X051866Y003178D01*
X051827Y003156D01*
X051787Y003138D01*
X051745Y003124D01*
X051702Y003113D01*
X051658Y003106D01*
X051614Y003103D01*
X051570Y003104D01*
X051526Y003109D01*
X051483Y003118D01*
X051440Y003130D01*
X051399Y003147D01*
X051359Y003166D01*
X051322Y003190D01*
X051286Y003216D01*
X051253Y003246D01*
X051223Y003278D01*
X051196Y003313D01*
X051172Y003350D01*
X051151Y003389D01*
X051134Y003430D01*
X051121Y003472D01*
X051111Y003515D01*
X051105Y003559D01*
X051103Y003603D01*
X063103Y003603D02*
X063105Y003647D01*
X063111Y003691D01*
X063121Y003734D01*
X063134Y003776D01*
X063151Y003817D01*
X063172Y003856D01*
X063196Y003893D01*
X063223Y003928D01*
X063253Y003960D01*
X063286Y003990D01*
X063322Y004016D01*
X063359Y004040D01*
X063399Y004059D01*
X063440Y004076D01*
X063483Y004088D01*
X063526Y004097D01*
X063570Y004102D01*
X063614Y004103D01*
X063658Y004100D01*
X063702Y004093D01*
X063745Y004082D01*
X063787Y004068D01*
X063827Y004050D01*
X063866Y004028D01*
X063902Y004004D01*
X063936Y003976D01*
X063968Y003945D01*
X063997Y003911D01*
X064023Y003875D01*
X064045Y003837D01*
X064064Y003797D01*
X064079Y003755D01*
X064091Y003713D01*
X064099Y003669D01*
X064103Y003625D01*
X064103Y003581D01*
X064099Y003537D01*
X064091Y003493D01*
X064079Y003451D01*
X064064Y003409D01*
X064045Y003369D01*
X064023Y003331D01*
X063997Y003295D01*
X063968Y003261D01*
X063936Y003230D01*
X063902Y003202D01*
X063866Y003178D01*
X063827Y003156D01*
X063787Y003138D01*
X063745Y003124D01*
X063702Y003113D01*
X063658Y003106D01*
X063614Y003103D01*
X063570Y003104D01*
X063526Y003109D01*
X063483Y003118D01*
X063440Y003130D01*
X063399Y003147D01*
X063359Y003166D01*
X063322Y003190D01*
X063286Y003216D01*
X063253Y003246D01*
X063223Y003278D01*
X063196Y003313D01*
X063172Y003350D01*
X063151Y003389D01*
X063134Y003430D01*
X063121Y003472D01*
X063111Y003515D01*
X063105Y003559D01*
X063103Y003603D01*
X068970Y002105D02*
X068972Y002155D01*
X068978Y002205D01*
X068988Y002254D01*
X069002Y002302D01*
X069019Y002349D01*
X069040Y002394D01*
X069065Y002438D01*
X069093Y002479D01*
X069125Y002518D01*
X069159Y002555D01*
X069196Y002589D01*
X069236Y002619D01*
X069278Y002646D01*
X069322Y002670D01*
X069368Y002691D01*
X069415Y002707D01*
X069463Y002720D01*
X069513Y002729D01*
X069562Y002734D01*
X069613Y002735D01*
X069663Y002732D01*
X069712Y002725D01*
X069761Y002714D01*
X069809Y002699D01*
X069855Y002681D01*
X069900Y002659D01*
X069943Y002633D01*
X069984Y002604D01*
X070023Y002572D01*
X070059Y002537D01*
X070091Y002499D01*
X070121Y002459D01*
X070148Y002416D01*
X070171Y002372D01*
X070190Y002326D01*
X070206Y002278D01*
X070218Y002229D01*
X070226Y002180D01*
X070230Y002130D01*
X070230Y002080D01*
X070226Y002030D01*
X070218Y001981D01*
X070206Y001932D01*
X070190Y001884D01*
X070171Y001838D01*
X070148Y001794D01*
X070121Y001751D01*
X070091Y001711D01*
X070059Y001673D01*
X070023Y001638D01*
X069984Y001606D01*
X069943Y001577D01*
X069900Y001551D01*
X069855Y001529D01*
X069809Y001511D01*
X069761Y001496D01*
X069712Y001485D01*
X069663Y001478D01*
X069613Y001475D01*
X069562Y001476D01*
X069513Y001481D01*
X069463Y001490D01*
X069415Y001503D01*
X069368Y001519D01*
X069322Y001540D01*
X069278Y001564D01*
X069236Y001591D01*
X069196Y001621D01*
X069159Y001655D01*
X069125Y001692D01*
X069093Y001731D01*
X069065Y001772D01*
X069040Y001816D01*
X069019Y001861D01*
X069002Y001908D01*
X068988Y001956D01*
X068978Y002005D01*
X068972Y002055D01*
X068970Y002105D01*
X074353Y003603D02*
X074355Y003647D01*
X074361Y003691D01*
X074371Y003734D01*
X074384Y003776D01*
X074401Y003817D01*
X074422Y003856D01*
X074446Y003893D01*
X074473Y003928D01*
X074503Y003960D01*
X074536Y003990D01*
X074572Y004016D01*
X074609Y004040D01*
X074649Y004059D01*
X074690Y004076D01*
X074733Y004088D01*
X074776Y004097D01*
X074820Y004102D01*
X074864Y004103D01*
X074908Y004100D01*
X074952Y004093D01*
X074995Y004082D01*
X075037Y004068D01*
X075077Y004050D01*
X075116Y004028D01*
X075152Y004004D01*
X075186Y003976D01*
X075218Y003945D01*
X075247Y003911D01*
X075273Y003875D01*
X075295Y003837D01*
X075314Y003797D01*
X075329Y003755D01*
X075341Y003713D01*
X075349Y003669D01*
X075353Y003625D01*
X075353Y003581D01*
X075349Y003537D01*
X075341Y003493D01*
X075329Y003451D01*
X075314Y003409D01*
X075295Y003369D01*
X075273Y003331D01*
X075247Y003295D01*
X075218Y003261D01*
X075186Y003230D01*
X075152Y003202D01*
X075116Y003178D01*
X075077Y003156D01*
X075037Y003138D01*
X074995Y003124D01*
X074952Y003113D01*
X074908Y003106D01*
X074864Y003103D01*
X074820Y003104D01*
X074776Y003109D01*
X074733Y003118D01*
X074690Y003130D01*
X074649Y003147D01*
X074609Y003166D01*
X074572Y003190D01*
X074536Y003216D01*
X074503Y003246D01*
X074473Y003278D01*
X074446Y003313D01*
X074422Y003350D01*
X074401Y003389D01*
X074384Y003430D01*
X074371Y003472D01*
X074361Y003515D01*
X074355Y003559D01*
X074353Y003603D01*
D11*
X073329Y026482D02*
X073135Y026482D01*
X073034Y026530D02*
X072840Y026530D01*
X072739Y026530D02*
X072546Y026530D01*
X072445Y026530D02*
X072299Y026530D01*
X072251Y026578D01*
X072251Y026772D01*
X072299Y026820D01*
X072445Y026820D01*
X072445Y026530D01*
X072642Y026675D02*
X072739Y026675D01*
X072739Y026820D02*
X072739Y026530D01*
X072739Y026820D02*
X072546Y026820D01*
X073034Y026820D02*
X073034Y026530D01*
X073430Y026530D02*
X073575Y026675D01*
X073623Y026627D02*
X073430Y026820D01*
X073623Y026820D02*
X073623Y026530D01*
X073724Y026530D02*
X073918Y026530D01*
X073918Y026820D01*
X074019Y026772D02*
X074067Y026820D01*
X074164Y026820D01*
X074213Y026772D01*
X074213Y026578D01*
X074164Y026530D01*
X074067Y026530D01*
X074019Y026578D01*
X049600Y026435D02*
X049600Y026725D01*
X049503Y026628D01*
X049407Y026725D01*
X049407Y026435D01*
X049305Y026483D02*
X049257Y026435D01*
X049160Y026435D01*
X049112Y026483D01*
X049112Y026677D01*
X049160Y026725D01*
X049257Y026725D01*
X049305Y026677D01*
X049305Y026483D01*
X049011Y026435D02*
X048866Y026435D01*
X048817Y026483D01*
X048817Y026677D01*
X048866Y026725D01*
X049011Y026725D01*
X049011Y026435D01*
X048716Y026435D02*
X048523Y026435D01*
X048421Y026387D02*
X048228Y026387D01*
X048127Y026435D02*
X047933Y026435D01*
X047832Y026435D02*
X047639Y026435D01*
X047537Y026435D02*
X047392Y026435D01*
X047344Y026483D01*
X047344Y026677D01*
X047392Y026725D01*
X047537Y026725D01*
X047537Y026435D01*
X047735Y026580D02*
X047832Y026580D01*
X047832Y026725D02*
X047832Y026435D01*
X047832Y026725D02*
X047639Y026725D01*
X048127Y026725D02*
X048127Y026435D01*
X048523Y026725D02*
X048716Y026725D01*
X048716Y026435D01*
X048716Y026580D02*
X048619Y026580D01*
X048421Y058687D02*
X048228Y058687D01*
X048127Y058735D02*
X047933Y058735D01*
X047832Y058735D02*
X047639Y058735D01*
X047537Y058735D02*
X047392Y058735D01*
X047344Y058783D01*
X047344Y058977D01*
X047392Y059025D01*
X047537Y059025D01*
X047537Y058735D01*
X047735Y058880D02*
X047832Y058880D01*
X047832Y059025D02*
X047832Y058735D01*
X047832Y059025D02*
X047639Y059025D01*
X048127Y059025D02*
X048127Y058735D01*
X048523Y058735D02*
X048716Y058735D01*
X048716Y059025D01*
X048523Y059025D01*
X048619Y058880D02*
X048716Y058880D01*
X048817Y058783D02*
X048817Y058977D01*
X048866Y059025D01*
X049011Y059025D01*
X049011Y058735D01*
X048866Y058735D01*
X048817Y058783D01*
X049112Y058783D02*
X049112Y058977D01*
X049160Y059025D01*
X049257Y059025D01*
X049305Y058977D01*
X049305Y058783D01*
X049257Y058735D01*
X049160Y058735D01*
X049112Y058783D01*
X049407Y058735D02*
X049407Y059025D01*
X049503Y058928D01*
X049600Y059025D01*
X049600Y058735D01*
X072251Y058878D02*
X072251Y059072D01*
X072299Y059120D01*
X072445Y059120D01*
X072445Y058830D01*
X072299Y058830D01*
X072251Y058878D01*
X072546Y058830D02*
X072739Y058830D01*
X072739Y059120D01*
X072546Y059120D01*
X072642Y058975D02*
X072739Y058975D01*
X072840Y058830D02*
X073034Y058830D01*
X073034Y059120D01*
X073135Y058782D02*
X073329Y058782D01*
X073430Y058830D02*
X073575Y058975D01*
X073623Y058927D02*
X073430Y059120D01*
X073623Y059120D02*
X073623Y058830D01*
X073724Y058830D02*
X073918Y058830D01*
X073918Y059120D01*
X074019Y059072D02*
X074067Y059120D01*
X074164Y059120D01*
X074213Y059072D01*
X074213Y058878D01*
X074164Y058830D01*
X074067Y058830D01*
X074019Y058878D01*
X073329Y091082D02*
X073135Y091082D01*
X073034Y091130D02*
X072840Y091130D01*
X072739Y091130D02*
X072546Y091130D01*
X072445Y091130D02*
X072299Y091130D01*
X072251Y091178D01*
X072251Y091372D01*
X072299Y091420D01*
X072445Y091420D01*
X072445Y091130D01*
X072642Y091275D02*
X072739Y091275D01*
X072739Y091420D02*
X072739Y091130D01*
X072739Y091420D02*
X072546Y091420D01*
X073034Y091420D02*
X073034Y091130D01*
X073430Y091130D02*
X073575Y091275D01*
X073623Y091227D02*
X073430Y091420D01*
X073623Y091420D02*
X073623Y091130D01*
X073724Y091130D02*
X073918Y091130D01*
X073918Y091420D01*
X074019Y091372D02*
X074067Y091420D01*
X074164Y091420D01*
X074213Y091372D01*
X074213Y091178D01*
X074164Y091130D01*
X074067Y091130D01*
X074019Y091178D01*
X049600Y091035D02*
X049600Y091325D01*
X049503Y091228D01*
X049407Y091325D01*
X049407Y091035D01*
X049305Y091083D02*
X049257Y091035D01*
X049160Y091035D01*
X049112Y091083D01*
X049112Y091277D01*
X049160Y091325D01*
X049257Y091325D01*
X049305Y091277D01*
X049305Y091083D01*
X049011Y091035D02*
X048866Y091035D01*
X048817Y091083D01*
X048817Y091277D01*
X048866Y091325D01*
X049011Y091325D01*
X049011Y091035D01*
X048716Y091035D02*
X048523Y091035D01*
X048421Y090987D02*
X048228Y090987D01*
X048127Y091035D02*
X047933Y091035D01*
X047832Y091035D02*
X047832Y091325D01*
X047639Y091325D01*
X047537Y091325D02*
X047392Y091325D01*
X047344Y091277D01*
X047344Y091083D01*
X047392Y091035D01*
X047537Y091035D01*
X047537Y091325D01*
X047735Y091180D02*
X047832Y091180D01*
X047832Y091035D02*
X047639Y091035D01*
X048127Y091035D02*
X048127Y091325D01*
X048523Y091325D02*
X048716Y091325D01*
X048716Y091035D01*
X048716Y091180D02*
X048619Y091180D01*
X007213Y078247D02*
X007213Y078198D01*
X007164Y078150D01*
X007067Y078150D01*
X007019Y078102D01*
X007019Y078053D01*
X007067Y078005D01*
X007164Y078005D01*
X007213Y078053D01*
X007213Y078247D02*
X007164Y078295D01*
X007067Y078295D01*
X007019Y078247D01*
X006918Y078295D02*
X006918Y078005D01*
X006724Y078005D01*
X006623Y078053D02*
X006575Y078005D01*
X006478Y078005D01*
X006430Y078053D01*
X006430Y078247D01*
X006478Y078295D01*
X006575Y078295D01*
X006623Y078247D01*
X006623Y078053D01*
X006526Y078102D02*
X006430Y078005D01*
X006329Y077957D02*
X006135Y077957D01*
X006034Y078005D02*
X005840Y078005D01*
X005739Y078005D02*
X005546Y078005D01*
X005445Y078005D02*
X005299Y078005D01*
X005251Y078053D01*
X005251Y078247D01*
X005299Y078295D01*
X005445Y078295D01*
X005445Y078005D01*
X005642Y078150D02*
X005739Y078150D01*
X005739Y078295D02*
X005739Y078005D01*
X005739Y078295D02*
X005546Y078295D01*
X006034Y078295D02*
X006034Y078005D01*
X006724Y078295D02*
X006918Y078295D01*
X006918Y078150D02*
X006821Y078150D01*
X006918Y045995D02*
X006918Y045705D01*
X006724Y045705D01*
X006623Y045753D02*
X006575Y045705D01*
X006478Y045705D01*
X006430Y045753D01*
X006430Y045947D01*
X006478Y045995D01*
X006575Y045995D01*
X006623Y045947D01*
X006623Y045753D01*
X006526Y045802D02*
X006430Y045705D01*
X006329Y045657D02*
X006135Y045657D01*
X006034Y045705D02*
X005840Y045705D01*
X005739Y045705D02*
X005546Y045705D01*
X005445Y045705D02*
X005299Y045705D01*
X005251Y045753D01*
X005251Y045947D01*
X005299Y045995D01*
X005445Y045995D01*
X005445Y045705D01*
X005642Y045850D02*
X005739Y045850D01*
X005739Y045995D02*
X005739Y045705D01*
X005739Y045995D02*
X005546Y045995D01*
X006034Y045995D02*
X006034Y045705D01*
X006724Y045995D02*
X006918Y045995D01*
X007019Y045947D02*
X007067Y045995D01*
X007164Y045995D01*
X007213Y045947D01*
X007213Y045898D01*
X007164Y045850D01*
X007067Y045850D01*
X007019Y045802D01*
X007019Y045753D01*
X007067Y045705D01*
X007164Y045705D01*
X007213Y045753D01*
X006918Y045850D02*
X006821Y045850D01*
X006918Y013695D02*
X006918Y013405D01*
X006724Y013405D01*
X006623Y013453D02*
X006575Y013405D01*
X006478Y013405D01*
X006430Y013453D01*
X006430Y013647D01*
X006478Y013695D01*
X006575Y013695D01*
X006623Y013647D01*
X006623Y013453D01*
X006526Y013502D02*
X006430Y013405D01*
X006329Y013357D02*
X006135Y013357D01*
X006034Y013405D02*
X005840Y013405D01*
X005739Y013405D02*
X005546Y013405D01*
X005445Y013405D02*
X005445Y013695D01*
X005299Y013695D01*
X005251Y013647D01*
X005251Y013453D01*
X005299Y013405D01*
X005445Y013405D01*
X005642Y013550D02*
X005739Y013550D01*
X005739Y013695D02*
X005739Y013405D01*
X005739Y013695D02*
X005546Y013695D01*
X006034Y013695D02*
X006034Y013405D01*
X006724Y013695D02*
X006918Y013695D01*
X007019Y013647D02*
X007067Y013695D01*
X007164Y013695D01*
X007213Y013647D01*
X007213Y013598D01*
X007164Y013550D01*
X007067Y013550D01*
X007019Y013502D01*
X007019Y013453D01*
X007067Y013405D01*
X007164Y013405D01*
X007213Y013453D01*
X006918Y013550D02*
X006821Y013550D01*
M02*
