G75*
G70*
%OFA0B0*%
%FSLAX24Y24*%
%IPPOS*%
%LPD*%
%AMOC8*
5,1,8,0,0,1.08239X$1,22.5*
%
%ADD10C,0.1340*%
%ADD11C,0.1080*%
%ADD12R,0.0513X0.0474*%
%ADD13R,0.1261X0.0631*%
%ADD14R,0.0631X0.0710*%
%ADD15R,0.0474X0.0513*%
%ADD16R,0.1261X0.1261*%
%ADD17R,0.0560X0.0960*%
%ADD18R,0.1497X0.0946*%
%ADD19R,0.0671X0.0186*%
%ADD20R,0.0186X0.0671*%
%ADD21OC8,0.0820*%
%ADD22R,0.0316X0.0946*%
%ADD23R,0.0710X0.1655*%
%ADD24R,0.4017X0.4017*%
%ADD25C,0.0050*%
%ADD26C,0.0100*%
%ADD27C,0.0060*%
%ADD28C,0.0674*%
%ADD29C,0.1261*%
%ADD30R,0.0710X0.0631*%
%ADD31R,0.0680X0.2080*%
%ADD32R,0.0454X0.0222*%
%ADD33R,0.0671X0.0592*%
%ADD34R,0.0789X0.0474*%
%ADD35R,0.0340X0.0880*%
%ADD36R,0.0395X0.0434*%
%ADD37R,0.0407X0.0328*%
%ADD38R,0.0680X0.2580*%
%ADD39R,0.6791X0.2500*%
%ADD40R,0.0592X0.0631*%
%ADD41R,0.0328X0.0407*%
%ADD42R,0.0222X0.0454*%
%ADD43C,0.0476*%
D10*
X009600Y002105D03*
X009600Y034405D03*
X009600Y066705D03*
X039600Y066705D03*
X039600Y034405D03*
X039600Y002105D03*
X069600Y002105D03*
X069600Y034405D03*
X069600Y066705D03*
D11*
X074853Y068203D03*
X074853Y079578D03*
X066603Y079578D03*
X057540Y073453D03*
X051603Y068203D03*
X046228Y060215D03*
X041103Y054965D03*
X042603Y047278D03*
X051603Y035903D03*
X057540Y041153D03*
X063603Y035903D03*
X066603Y047278D03*
X074853Y047278D03*
X074853Y035903D03*
X074853Y014978D03*
X066603Y014978D03*
X057540Y008853D03*
X051603Y003603D03*
X042603Y014978D03*
X041103Y022665D03*
X046228Y027915D03*
X033540Y035903D03*
X027790Y041153D03*
X018853Y047278D03*
X009540Y041153D03*
X004415Y035903D03*
X018853Y014978D03*
X027790Y008853D03*
X033540Y003603D03*
X009540Y008853D03*
X004415Y003603D03*
X004415Y068203D03*
X009540Y073453D03*
X018853Y079578D03*
X027790Y073453D03*
X033540Y068203D03*
X042603Y079578D03*
X041103Y087265D03*
X046228Y092515D03*
X063603Y068203D03*
X063603Y003603D03*
X074853Y003603D03*
D12*
X048625Y016728D03*
X047955Y016728D03*
X045875Y016915D03*
X045205Y016915D03*
X037500Y015853D03*
X036830Y015853D03*
X036830Y015040D03*
X037500Y015040D03*
X035000Y015228D03*
X034330Y015228D03*
X034205Y011415D03*
X034875Y011415D03*
X034875Y010415D03*
X034205Y010415D03*
X023312Y009415D03*
X022643Y009415D03*
X022643Y003478D03*
X023312Y003478D03*
X016500Y001478D03*
X015830Y001478D03*
X013812Y002040D03*
X013143Y002040D03*
X012437Y002040D03*
X011768Y002040D03*
X011768Y002915D03*
X012437Y002915D03*
X013143Y002915D03*
X013812Y002915D03*
X010250Y004915D03*
X009580Y004915D03*
X009518Y007040D03*
X010187Y007040D03*
X006687Y003228D03*
X006018Y003228D03*
X009455Y012478D03*
X010125Y012478D03*
X010125Y013353D03*
X009455Y013353D03*
X011393Y011978D03*
X012062Y011978D03*
X014643Y011853D03*
X015312Y011853D03*
X014875Y010415D03*
X014205Y010415D03*
X013955Y009353D03*
X014625Y009353D03*
X014250Y008165D03*
X013580Y008165D03*
X013580Y007353D03*
X014250Y007353D03*
X006687Y014790D03*
X006018Y014790D03*
X015830Y033778D03*
X016500Y033778D03*
X013812Y034340D03*
X013143Y034340D03*
X012437Y034340D03*
X011768Y034340D03*
X011768Y035215D03*
X012437Y035215D03*
X013143Y035215D03*
X013812Y035215D03*
X010250Y037215D03*
X009580Y037215D03*
X009518Y039340D03*
X010187Y039340D03*
X006687Y035528D03*
X006018Y035528D03*
X011393Y044278D03*
X012062Y044278D03*
X010125Y044778D03*
X009455Y044778D03*
X009455Y045653D03*
X010125Y045653D03*
X006687Y047090D03*
X006018Y047090D03*
X013955Y041653D03*
X014625Y041653D03*
X014250Y040465D03*
X013580Y040465D03*
X013580Y039653D03*
X014250Y039653D03*
X014205Y042715D03*
X014875Y042715D03*
X014643Y044153D03*
X015312Y044153D03*
X022643Y041715D03*
X023312Y041715D03*
X023312Y035778D03*
X022643Y035778D03*
X032330Y028103D03*
X033000Y028103D03*
X035330Y028103D03*
X036000Y028103D03*
X034875Y042715D03*
X034205Y042715D03*
X034205Y043715D03*
X034875Y043715D03*
X035000Y047528D03*
X034330Y047528D03*
X036830Y047340D03*
X037500Y047340D03*
X037500Y048153D03*
X036830Y048153D03*
X045205Y049215D03*
X045875Y049215D03*
X047955Y049028D03*
X048625Y049028D03*
X036000Y060403D03*
X035330Y060403D03*
X033000Y060403D03*
X032330Y060403D03*
X023312Y068078D03*
X022643Y068078D03*
X022643Y074015D03*
X023312Y074015D03*
X016500Y066078D03*
X015830Y066078D03*
X013812Y066640D03*
X013143Y066640D03*
X012437Y066640D03*
X011768Y066640D03*
X011768Y067515D03*
X012437Y067515D03*
X013143Y067515D03*
X013812Y067515D03*
X010250Y069515D03*
X009580Y069515D03*
X009518Y071640D03*
X010187Y071640D03*
X006687Y067828D03*
X006018Y067828D03*
X011393Y076578D03*
X012062Y076578D03*
X013955Y073953D03*
X014625Y073953D03*
X014875Y075015D03*
X014205Y075015D03*
X014643Y076453D03*
X015312Y076453D03*
X014250Y072765D03*
X013580Y072765D03*
X013580Y071953D03*
X014250Y071953D03*
X010125Y077078D03*
X009455Y077078D03*
X009455Y077953D03*
X010125Y077953D03*
X006687Y079390D03*
X006018Y079390D03*
X032330Y092703D03*
X033000Y092703D03*
X035330Y092703D03*
X036000Y092703D03*
X045205Y081515D03*
X045875Y081515D03*
X047955Y081328D03*
X048625Y081328D03*
X037500Y080453D03*
X036830Y080453D03*
X036830Y079640D03*
X037500Y079640D03*
X035000Y079828D03*
X034330Y079828D03*
X034205Y076015D03*
X034875Y076015D03*
X034875Y075015D03*
X034205Y075015D03*
D13*
X018485Y062965D03*
X016595Y062965D03*
X014110Y062965D03*
X012220Y062965D03*
X013345Y078640D03*
X015235Y078640D03*
X014110Y095265D03*
X012220Y095265D03*
X016595Y095265D03*
X018485Y095265D03*
X015235Y046340D03*
X013345Y046340D03*
X014110Y030665D03*
X012220Y030665D03*
X016595Y030665D03*
X018485Y030665D03*
X015235Y014040D03*
X013345Y014040D03*
D14*
X009216Y014790D03*
X008114Y014790D03*
X022926Y002478D03*
X024029Y002478D03*
X024364Y008165D03*
X025466Y008165D03*
X024029Y034778D03*
X022926Y034778D03*
X024364Y040465D03*
X025466Y040465D03*
X009216Y047090D03*
X008114Y047090D03*
X022926Y067078D03*
X024029Y067078D03*
X024364Y072765D03*
X025466Y072765D03*
X009216Y079390D03*
X008114Y079390D03*
D15*
X009228Y076350D03*
X009228Y075680D03*
X010228Y075680D03*
X010228Y076350D03*
X008478Y071162D03*
X008478Y070493D03*
X013665Y069350D03*
X013665Y068680D03*
X017478Y075555D03*
X017478Y076225D03*
X017290Y078805D03*
X017290Y079475D03*
X016290Y079475D03*
X016290Y078805D03*
X029290Y084493D03*
X029290Y085162D03*
X034273Y091320D03*
X034273Y091990D03*
X037125Y091950D03*
X037125Y091280D03*
X042665Y091493D03*
X042665Y092162D03*
X044728Y089287D03*
X044728Y088618D03*
X043540Y087537D03*
X043540Y086868D03*
X043353Y084037D03*
X043353Y083368D03*
X045853Y083368D03*
X045853Y084037D03*
X040853Y082600D03*
X040853Y081930D03*
X036103Y081930D03*
X036103Y082600D03*
X041465Y072150D03*
X041465Y071480D03*
X042955Y071480D03*
X042955Y072150D03*
X044195Y072150D03*
X044195Y071480D03*
X042665Y059862D03*
X042665Y059193D03*
X044728Y056987D03*
X044728Y056318D03*
X043540Y055237D03*
X043540Y054568D03*
X043353Y051737D03*
X043353Y051068D03*
X045853Y051068D03*
X045853Y051737D03*
X040853Y050300D03*
X040853Y049630D03*
X036103Y049630D03*
X036103Y050300D03*
X029290Y052193D03*
X029290Y052862D03*
X034273Y059020D03*
X034273Y059690D03*
X037125Y059650D03*
X037125Y058980D03*
X050290Y056175D03*
X050290Y055505D03*
X052603Y053050D03*
X052603Y052380D03*
X044195Y039850D03*
X044195Y039180D03*
X042955Y039180D03*
X042955Y039850D03*
X041465Y039850D03*
X041465Y039180D03*
X042665Y027562D03*
X042665Y026893D03*
X044728Y024687D03*
X044728Y024018D03*
X043540Y022937D03*
X043540Y022268D03*
X043353Y019437D03*
X043353Y018768D03*
X045853Y018768D03*
X045853Y019437D03*
X040853Y018000D03*
X040853Y017330D03*
X036103Y017330D03*
X036103Y018000D03*
X029290Y019893D03*
X029290Y020562D03*
X034273Y026720D03*
X034273Y027390D03*
X037125Y027350D03*
X037125Y026680D03*
X050290Y023875D03*
X050290Y023205D03*
X052603Y020750D03*
X052603Y020080D03*
X044195Y007550D03*
X044195Y006880D03*
X042955Y006880D03*
X042955Y007550D03*
X041465Y007550D03*
X041465Y006880D03*
X017478Y010955D03*
X017478Y011625D03*
X017290Y014205D03*
X017290Y014875D03*
X016290Y014875D03*
X016290Y014205D03*
X010228Y011750D03*
X010228Y011080D03*
X009228Y011080D03*
X009228Y011750D03*
X008478Y006562D03*
X008478Y005893D03*
X013665Y004750D03*
X013665Y004080D03*
X013665Y036380D03*
X013665Y037050D03*
X010228Y043380D03*
X010228Y044050D03*
X009228Y044050D03*
X009228Y043380D03*
X008478Y038862D03*
X008478Y038193D03*
X016290Y046505D03*
X016290Y047175D03*
X017290Y047175D03*
X017290Y046505D03*
X017478Y043925D03*
X017478Y043255D03*
X052603Y084680D03*
X052603Y085350D03*
X050290Y087805D03*
X050290Y088475D03*
D16*
X011717Y071982D03*
X011717Y069284D03*
X011717Y039682D03*
X011717Y036984D03*
X011717Y007382D03*
X011717Y004684D03*
D17*
X006513Y016695D03*
X005603Y016695D03*
X004693Y016695D03*
X004693Y048995D03*
X005603Y048995D03*
X006513Y048995D03*
X006513Y081295D03*
X005603Y081295D03*
X004693Y081295D03*
D18*
X005603Y083735D03*
X005603Y051435D03*
X005603Y019135D03*
D19*
X015551Y008652D03*
X015551Y008455D03*
X015551Y008259D03*
X015551Y008062D03*
X015551Y007865D03*
X015551Y007668D03*
X015551Y007471D03*
X015551Y007274D03*
X015551Y007077D03*
X015551Y006881D03*
X015551Y006684D03*
X015551Y006487D03*
X015551Y006290D03*
X015551Y006093D03*
X015551Y005896D03*
X015551Y005699D03*
X015551Y005503D03*
X015551Y005306D03*
X015551Y005109D03*
X015551Y004912D03*
X015551Y004715D03*
X015551Y004518D03*
X015551Y004321D03*
X015551Y004125D03*
X015551Y003928D03*
X021654Y003928D03*
X021654Y004125D03*
X021654Y004321D03*
X021654Y004518D03*
X021654Y004715D03*
X021654Y004912D03*
X021654Y005109D03*
X021654Y005306D03*
X021654Y005503D03*
X021654Y005699D03*
X021654Y005896D03*
X021654Y006093D03*
X021654Y006290D03*
X021654Y006487D03*
X021654Y006684D03*
X021654Y006881D03*
X021654Y007077D03*
X021654Y007274D03*
X021654Y007471D03*
X021654Y007668D03*
X021654Y007865D03*
X021654Y008062D03*
X021654Y008259D03*
X021654Y008455D03*
X021654Y008652D03*
X021654Y036228D03*
X021654Y036425D03*
X021654Y036621D03*
X021654Y036818D03*
X021654Y037015D03*
X021654Y037212D03*
X021654Y037409D03*
X021654Y037606D03*
X021654Y037803D03*
X021654Y037999D03*
X021654Y038196D03*
X021654Y038393D03*
X021654Y038590D03*
X021654Y038787D03*
X021654Y038984D03*
X021654Y039181D03*
X021654Y039377D03*
X021654Y039574D03*
X021654Y039771D03*
X021654Y039968D03*
X021654Y040165D03*
X021654Y040362D03*
X021654Y040559D03*
X021654Y040755D03*
X021654Y040952D03*
X015551Y040952D03*
X015551Y040755D03*
X015551Y040559D03*
X015551Y040362D03*
X015551Y040165D03*
X015551Y039968D03*
X015551Y039771D03*
X015551Y039574D03*
X015551Y039377D03*
X015551Y039181D03*
X015551Y038984D03*
X015551Y038787D03*
X015551Y038590D03*
X015551Y038393D03*
X015551Y038196D03*
X015551Y037999D03*
X015551Y037803D03*
X015551Y037606D03*
X015551Y037409D03*
X015551Y037212D03*
X015551Y037015D03*
X015551Y036818D03*
X015551Y036621D03*
X015551Y036425D03*
X015551Y036228D03*
X015551Y068528D03*
X015551Y068725D03*
X015551Y068921D03*
X015551Y069118D03*
X015551Y069315D03*
X015551Y069512D03*
X015551Y069709D03*
X015551Y069906D03*
X015551Y070103D03*
X015551Y070299D03*
X015551Y070496D03*
X015551Y070693D03*
X015551Y070890D03*
X015551Y071087D03*
X015551Y071284D03*
X015551Y071481D03*
X015551Y071677D03*
X015551Y071874D03*
X015551Y072071D03*
X015551Y072268D03*
X015551Y072465D03*
X015551Y072662D03*
X015551Y072859D03*
X015551Y073055D03*
X015551Y073252D03*
X021654Y073252D03*
X021654Y073055D03*
X021654Y072859D03*
X021654Y072662D03*
X021654Y072465D03*
X021654Y072268D03*
X021654Y072071D03*
X021654Y071874D03*
X021654Y071677D03*
X021654Y071481D03*
X021654Y071284D03*
X021654Y071087D03*
X021654Y070890D03*
X021654Y070693D03*
X021654Y070496D03*
X021654Y070299D03*
X021654Y070103D03*
X021654Y069906D03*
X021654Y069709D03*
X021654Y069512D03*
X021654Y069315D03*
X021654Y069118D03*
X021654Y068921D03*
X021654Y068725D03*
X021654Y068528D03*
D20*
X020965Y067839D03*
X020768Y067839D03*
X020571Y067839D03*
X020374Y067839D03*
X020177Y067839D03*
X019980Y067839D03*
X019784Y067839D03*
X019587Y067839D03*
X019390Y067839D03*
X019193Y067839D03*
X018996Y067839D03*
X018799Y067839D03*
X018603Y067839D03*
X018406Y067839D03*
X018209Y067839D03*
X018012Y067839D03*
X017815Y067839D03*
X017618Y067839D03*
X017421Y067839D03*
X017225Y067839D03*
X017028Y067839D03*
X016831Y067839D03*
X016634Y067839D03*
X016437Y067839D03*
X016240Y067839D03*
X016240Y073941D03*
X016437Y073941D03*
X016634Y073941D03*
X016831Y073941D03*
X017028Y073941D03*
X017225Y073941D03*
X017421Y073941D03*
X017618Y073941D03*
X017815Y073941D03*
X018012Y073941D03*
X018209Y073941D03*
X018406Y073941D03*
X018603Y073941D03*
X018799Y073941D03*
X018996Y073941D03*
X019193Y073941D03*
X019390Y073941D03*
X019587Y073941D03*
X019784Y073941D03*
X019980Y073941D03*
X020177Y073941D03*
X020374Y073941D03*
X020571Y073941D03*
X020768Y073941D03*
X020965Y073941D03*
X020965Y041641D03*
X020768Y041641D03*
X020571Y041641D03*
X020374Y041641D03*
X020177Y041641D03*
X019980Y041641D03*
X019784Y041641D03*
X019587Y041641D03*
X019390Y041641D03*
X019193Y041641D03*
X018996Y041641D03*
X018799Y041641D03*
X018603Y041641D03*
X018406Y041641D03*
X018209Y041641D03*
X018012Y041641D03*
X017815Y041641D03*
X017618Y041641D03*
X017421Y041641D03*
X017225Y041641D03*
X017028Y041641D03*
X016831Y041641D03*
X016634Y041641D03*
X016437Y041641D03*
X016240Y041641D03*
X016240Y035539D03*
X016437Y035539D03*
X016634Y035539D03*
X016831Y035539D03*
X017028Y035539D03*
X017225Y035539D03*
X017421Y035539D03*
X017618Y035539D03*
X017815Y035539D03*
X018012Y035539D03*
X018209Y035539D03*
X018406Y035539D03*
X018603Y035539D03*
X018799Y035539D03*
X018996Y035539D03*
X019193Y035539D03*
X019390Y035539D03*
X019587Y035539D03*
X019784Y035539D03*
X019980Y035539D03*
X020177Y035539D03*
X020374Y035539D03*
X020571Y035539D03*
X020768Y035539D03*
X020965Y035539D03*
X020965Y009341D03*
X020768Y009341D03*
X020571Y009341D03*
X020374Y009341D03*
X020177Y009341D03*
X019980Y009341D03*
X019784Y009341D03*
X019587Y009341D03*
X019390Y009341D03*
X019193Y009341D03*
X018996Y009341D03*
X018799Y009341D03*
X018603Y009341D03*
X018406Y009341D03*
X018209Y009341D03*
X018012Y009341D03*
X017815Y009341D03*
X017618Y009341D03*
X017421Y009341D03*
X017225Y009341D03*
X017028Y009341D03*
X016831Y009341D03*
X016634Y009341D03*
X016437Y009341D03*
X016240Y009341D03*
X016240Y003239D03*
X016437Y003239D03*
X016634Y003239D03*
X016831Y003239D03*
X017028Y003239D03*
X017225Y003239D03*
X017421Y003239D03*
X017618Y003239D03*
X017815Y003239D03*
X018012Y003239D03*
X018209Y003239D03*
X018406Y003239D03*
X018603Y003239D03*
X018799Y003239D03*
X018996Y003239D03*
X019193Y003239D03*
X019390Y003239D03*
X019587Y003239D03*
X019784Y003239D03*
X019980Y003239D03*
X020177Y003239D03*
X020374Y003239D03*
X020571Y003239D03*
X020768Y003239D03*
X020965Y003239D03*
D21*
X012978Y009415D03*
X012978Y010415D03*
X011978Y010415D03*
X011978Y009415D03*
X010978Y009415D03*
X010978Y010415D03*
X010978Y041715D03*
X010978Y042715D03*
X011978Y042715D03*
X012978Y042715D03*
X012978Y041715D03*
X011978Y041715D03*
X011978Y074015D03*
X012978Y074015D03*
X012978Y075015D03*
X011978Y075015D03*
X010978Y075015D03*
X010978Y074015D03*
D22*
X005978Y071851D03*
X005478Y071851D03*
X004978Y071851D03*
X004478Y071851D03*
X004478Y069804D03*
X004978Y069804D03*
X005478Y069804D03*
X005978Y069804D03*
X005978Y039551D03*
X005478Y039551D03*
X004978Y039551D03*
X004478Y039551D03*
X004478Y037504D03*
X004978Y037504D03*
X005478Y037504D03*
X005978Y037504D03*
X005978Y007251D03*
X005478Y007251D03*
X004978Y007251D03*
X004478Y007251D03*
X004478Y005204D03*
X004978Y005204D03*
X005478Y005204D03*
X005978Y005204D03*
X033840Y016631D03*
X034340Y016631D03*
X034840Y016631D03*
X035340Y016631D03*
X035340Y018679D03*
X034840Y018679D03*
X034340Y018679D03*
X033840Y018679D03*
X038520Y018679D03*
X039020Y018679D03*
X039520Y018679D03*
X040020Y018679D03*
X040020Y016631D03*
X039520Y016631D03*
X039020Y016631D03*
X038520Y016631D03*
X038520Y048931D03*
X039020Y048931D03*
X039520Y048931D03*
X040020Y048931D03*
X040020Y050979D03*
X039520Y050979D03*
X039020Y050979D03*
X038520Y050979D03*
X035340Y050979D03*
X034840Y050979D03*
X034340Y050979D03*
X033840Y050979D03*
X033840Y048931D03*
X034340Y048931D03*
X034840Y048931D03*
X035340Y048931D03*
X035340Y081231D03*
X034840Y081231D03*
X034340Y081231D03*
X033840Y081231D03*
X033840Y083279D03*
X034340Y083279D03*
X034840Y083279D03*
X035340Y083279D03*
X038520Y083279D03*
X039020Y083279D03*
X039520Y083279D03*
X040020Y083279D03*
X040020Y081231D03*
X039520Y081231D03*
X039020Y081231D03*
X038520Y081231D03*
D23*
X014257Y092935D03*
X012288Y092935D03*
X012288Y060635D03*
X014257Y060635D03*
X014257Y028335D03*
X012288Y028335D03*
D24*
X013273Y023969D03*
X013273Y056269D03*
X013273Y088569D03*
D25*
X001347Y001798D02*
X001403Y001759D01*
X001465Y001730D01*
X001532Y001712D01*
X001600Y001706D01*
X001668Y001712D01*
X001735Y001730D01*
X001797Y001759D01*
X001853Y001798D01*
X001902Y001847D01*
X001941Y001903D01*
X001970Y001965D01*
X001988Y002032D01*
X001994Y002100D01*
X001988Y002168D01*
X001970Y002235D01*
X001941Y002297D01*
X001902Y002353D01*
X001853Y002402D01*
X001797Y002441D01*
X001735Y002470D01*
X001668Y002488D01*
X001600Y002494D01*
X001532Y002488D01*
X001465Y002470D01*
X001403Y002441D01*
X001347Y002402D01*
X001298Y002353D01*
X001259Y002297D01*
X001230Y002235D01*
X001212Y002168D01*
X001206Y002100D01*
X001212Y002032D01*
X001230Y001965D01*
X001259Y001903D01*
X001298Y001847D01*
X001347Y001798D01*
X001348Y001798D02*
X001852Y001798D01*
X001901Y001846D02*
X001299Y001846D01*
X001265Y001895D02*
X001935Y001895D01*
X001960Y001943D02*
X001240Y001943D01*
X001223Y001992D02*
X001977Y001992D01*
X001988Y002040D02*
X001212Y002040D01*
X001207Y002089D02*
X001993Y002089D01*
X001990Y002137D02*
X001210Y002137D01*
X001217Y002186D02*
X001983Y002186D01*
X001970Y002234D02*
X001230Y002234D01*
X001252Y002283D02*
X001948Y002283D01*
X001917Y002331D02*
X001283Y002331D01*
X001325Y002380D02*
X001875Y002380D01*
X001815Y002428D02*
X001385Y002428D01*
X001490Y002477D02*
X001710Y002477D01*
X001775Y001749D02*
X001425Y001749D01*
X002983Y001237D02*
X002965Y001171D01*
X002959Y001103D01*
X002965Y001034D01*
X002983Y000968D01*
X003012Y000906D01*
X003051Y000849D01*
X003099Y000801D01*
X003156Y000762D01*
X003218Y000733D01*
X003284Y000715D01*
X003353Y000709D01*
X003421Y000715D01*
X003487Y000733D01*
X003549Y000762D01*
X003606Y000801D01*
X003654Y000849D01*
X003693Y000906D01*
X003722Y000968D01*
X003740Y001034D01*
X003746Y001103D01*
X003740Y001171D01*
X003722Y001237D01*
X003693Y001299D01*
X003654Y001356D01*
X003606Y001404D01*
X003549Y001443D01*
X003487Y001472D01*
X003421Y001490D01*
X003353Y001496D01*
X003284Y001490D01*
X003218Y001472D01*
X003156Y001443D01*
X003099Y001404D01*
X003051Y001356D01*
X003012Y001299D01*
X002983Y001237D01*
X002977Y001216D02*
X003728Y001216D01*
X003741Y001167D02*
X002964Y001167D01*
X002960Y001119D02*
X003745Y001119D01*
X003743Y001070D02*
X002962Y001070D01*
X002968Y001022D02*
X003737Y001022D01*
X003724Y000973D02*
X002981Y000973D01*
X003003Y000925D02*
X003702Y000925D01*
X003673Y000876D02*
X003032Y000876D01*
X003073Y000828D02*
X003632Y000828D01*
X003574Y000779D02*
X003131Y000779D01*
X003225Y000731D02*
X003480Y000731D01*
X003710Y001264D02*
X002995Y001264D01*
X003021Y001313D02*
X003684Y001313D01*
X003649Y001361D02*
X003056Y001361D01*
X003107Y001410D02*
X003598Y001410D01*
X003518Y001458D02*
X003187Y001458D01*
X023412Y027738D02*
X023468Y027699D01*
X023530Y027670D01*
X023597Y027652D01*
X023665Y027646D01*
X023733Y027652D01*
X023800Y027670D01*
X023862Y027699D01*
X023918Y027738D01*
X023967Y027787D01*
X024006Y027843D01*
X024035Y027905D01*
X024053Y027972D01*
X024059Y028040D01*
X024053Y028108D01*
X024035Y028175D01*
X024006Y028237D01*
X023967Y028293D01*
X023918Y028342D01*
X023862Y028381D01*
X023800Y028410D01*
X023733Y028428D01*
X023665Y028434D01*
X023597Y028428D01*
X023530Y028410D01*
X023468Y028381D01*
X023412Y028342D01*
X023363Y028293D01*
X023324Y028237D01*
X023295Y028175D01*
X023277Y028108D01*
X023271Y028040D01*
X023277Y027972D01*
X023295Y027905D01*
X023324Y027843D01*
X023363Y027787D01*
X023412Y027738D01*
X023405Y027745D02*
X023925Y027745D01*
X023971Y027794D02*
X023359Y027794D01*
X023325Y027842D02*
X024005Y027842D01*
X024028Y027891D02*
X023302Y027891D01*
X023286Y027939D02*
X024044Y027939D01*
X024054Y027988D02*
X023276Y027988D01*
X023272Y028036D02*
X024058Y028036D01*
X024055Y028085D02*
X023275Y028085D01*
X023284Y028133D02*
X024046Y028133D01*
X024032Y028182D02*
X023298Y028182D01*
X023321Y028230D02*
X024009Y028230D01*
X023977Y028279D02*
X023353Y028279D01*
X023397Y028327D02*
X023933Y028327D01*
X023869Y028376D02*
X023461Y028376D01*
X023583Y028424D02*
X023747Y028424D01*
X023857Y027697D02*
X023473Y027697D01*
X023644Y027648D02*
X023686Y027648D01*
X003722Y033268D02*
X003740Y033334D01*
X003746Y033403D01*
X003740Y033471D01*
X003722Y033537D01*
X003693Y033599D01*
X003654Y033656D01*
X003606Y033704D01*
X003549Y033743D01*
X003487Y033772D01*
X003421Y033790D01*
X003353Y033796D01*
X003284Y033790D01*
X003218Y033772D01*
X003156Y033743D01*
X003099Y033704D01*
X003051Y033656D01*
X003012Y033599D01*
X002983Y033537D01*
X002965Y033471D01*
X002959Y033403D01*
X002965Y033334D01*
X002983Y033268D01*
X003012Y033206D01*
X003051Y033149D01*
X003099Y033101D01*
X003156Y033062D01*
X003218Y033033D01*
X003284Y033015D01*
X003353Y033009D01*
X003421Y033015D01*
X003487Y033033D01*
X003549Y033062D01*
X003606Y033101D01*
X003654Y033149D01*
X003693Y033206D01*
X003722Y033268D01*
X003724Y033274D02*
X002981Y033274D01*
X002968Y033323D02*
X003737Y033323D01*
X003743Y033371D02*
X002962Y033371D01*
X002960Y033420D02*
X003745Y033420D01*
X003740Y033468D02*
X002965Y033468D01*
X002977Y033517D02*
X003728Y033517D01*
X003709Y033565D02*
X002996Y033565D01*
X003022Y033614D02*
X003683Y033614D01*
X003647Y033662D02*
X003058Y033662D01*
X003109Y033711D02*
X003596Y033711D01*
X003516Y033759D02*
X003189Y033759D01*
X003002Y033226D02*
X003703Y033226D01*
X003674Y033177D02*
X003031Y033177D01*
X003072Y033129D02*
X003633Y033129D01*
X003576Y033080D02*
X003129Y033080D01*
X003221Y033032D02*
X003484Y033032D01*
X023412Y060038D02*
X023468Y059999D01*
X023530Y059970D01*
X023597Y059952D01*
X023665Y059946D01*
X023733Y059952D01*
X023800Y059970D01*
X023862Y059999D01*
X023918Y060038D01*
X023967Y060087D01*
X024006Y060143D01*
X024035Y060205D01*
X024053Y060272D01*
X024059Y060340D01*
X024053Y060408D01*
X024035Y060475D01*
X024006Y060537D01*
X023967Y060593D01*
X023918Y060642D01*
X023862Y060681D01*
X023800Y060710D01*
X023733Y060728D01*
X023665Y060734D01*
X023597Y060728D01*
X023530Y060710D01*
X023468Y060681D01*
X023412Y060642D01*
X023363Y060593D01*
X023324Y060537D01*
X023295Y060475D01*
X023277Y060408D01*
X023271Y060340D01*
X023277Y060272D01*
X023295Y060205D01*
X023324Y060143D01*
X023363Y060087D01*
X023412Y060038D01*
X023404Y060046D02*
X023926Y060046D01*
X023972Y060095D02*
X023358Y060095D01*
X023324Y060143D02*
X024006Y060143D01*
X024029Y060192D02*
X023301Y060192D01*
X023286Y060240D02*
X024044Y060240D01*
X024054Y060289D02*
X023276Y060289D01*
X023272Y060337D02*
X024058Y060337D01*
X024055Y060386D02*
X023275Y060386D01*
X023284Y060434D02*
X024046Y060434D01*
X024031Y060483D02*
X023299Y060483D01*
X023321Y060531D02*
X024009Y060531D01*
X023976Y060580D02*
X023354Y060580D01*
X023399Y060628D02*
X023931Y060628D01*
X023868Y060677D02*
X023462Y060677D01*
X023588Y060725D02*
X023742Y060725D01*
X023859Y059998D02*
X023471Y059998D01*
X023631Y059949D02*
X023699Y059949D01*
X003722Y065568D02*
X003740Y065634D01*
X003746Y065703D01*
X003740Y065771D01*
X003722Y065837D01*
X003693Y065899D01*
X003654Y065956D01*
X003606Y066004D01*
X003549Y066043D01*
X003487Y066072D01*
X003421Y066090D01*
X003353Y066096D01*
X003284Y066090D01*
X003218Y066072D01*
X003156Y066043D01*
X003099Y066004D01*
X003051Y065956D01*
X003012Y065899D01*
X002983Y065837D01*
X002965Y065771D01*
X002959Y065703D01*
X002965Y065634D01*
X002983Y065568D01*
X003012Y065506D01*
X003051Y065449D01*
X003099Y065401D01*
X003156Y065362D01*
X003218Y065333D01*
X003284Y065315D01*
X003353Y065309D01*
X003421Y065315D01*
X003487Y065333D01*
X003549Y065362D01*
X003606Y065401D01*
X003654Y065449D01*
X003693Y065506D01*
X003722Y065568D01*
X003724Y065575D02*
X002981Y065575D01*
X002968Y065624D02*
X003737Y065624D01*
X003744Y065672D02*
X002961Y065672D01*
X002960Y065721D02*
X003745Y065721D01*
X003740Y065769D02*
X002965Y065769D01*
X002977Y065818D02*
X003728Y065818D01*
X003709Y065866D02*
X002996Y065866D01*
X003022Y065915D02*
X003683Y065915D01*
X003646Y065963D02*
X003059Y065963D01*
X003110Y066012D02*
X003595Y066012D01*
X003513Y066060D02*
X003192Y066060D01*
X003002Y065527D02*
X003703Y065527D01*
X003674Y065478D02*
X003031Y065478D01*
X003071Y065430D02*
X003634Y065430D01*
X003578Y065381D02*
X003127Y065381D01*
X003217Y065333D02*
X003488Y065333D01*
X023412Y092338D02*
X023468Y092299D01*
X023530Y092270D01*
X023597Y092252D01*
X023665Y092246D01*
X023733Y092252D01*
X023800Y092270D01*
X023862Y092299D01*
X023918Y092338D01*
X023967Y092387D01*
X024006Y092443D01*
X024035Y092505D01*
X024053Y092572D01*
X024059Y092640D01*
X024053Y092708D01*
X024035Y092775D01*
X024006Y092837D01*
X023967Y092893D01*
X023918Y092942D01*
X023862Y092981D01*
X023800Y093010D01*
X023733Y093028D01*
X023665Y093034D01*
X023597Y093028D01*
X023530Y093010D01*
X023468Y092981D01*
X023412Y092942D01*
X023363Y092893D01*
X023324Y092837D01*
X023295Y092775D01*
X023277Y092708D01*
X023271Y092640D01*
X023277Y092572D01*
X023295Y092505D01*
X023324Y092443D01*
X023363Y092387D01*
X023412Y092338D01*
X023403Y092347D02*
X023927Y092347D01*
X023973Y092396D02*
X023357Y092396D01*
X023323Y092444D02*
X024007Y092444D01*
X024029Y092493D02*
X023301Y092493D01*
X023285Y092541D02*
X024045Y092541D01*
X024054Y092590D02*
X023276Y092590D01*
X023271Y092638D02*
X024059Y092638D01*
X024055Y092687D02*
X023275Y092687D01*
X023285Y092735D02*
X024045Y092735D01*
X024031Y092784D02*
X023299Y092784D01*
X023322Y092832D02*
X024008Y092832D01*
X023975Y092881D02*
X023355Y092881D01*
X023400Y092929D02*
X023930Y092929D01*
X023866Y092978D02*
X023464Y092978D01*
X023592Y093026D02*
X023738Y093026D01*
X023862Y092299D02*
X023468Y092299D01*
X023617Y092250D02*
X023713Y092250D01*
X001988Y096032D02*
X001994Y096100D01*
X001988Y096168D01*
X001970Y096235D01*
X001941Y096297D01*
X001902Y096353D01*
X001853Y096402D01*
X001797Y096441D01*
X001735Y096470D01*
X001668Y096488D01*
X001600Y096494D01*
X001532Y096488D01*
X001465Y096470D01*
X001403Y096441D01*
X001347Y096402D01*
X001298Y096353D01*
X001259Y096297D01*
X001230Y096235D01*
X001212Y096168D01*
X001206Y096100D01*
X001212Y096032D01*
X001230Y095965D01*
X001259Y095903D01*
X001298Y095847D01*
X001347Y095798D01*
X001403Y095759D01*
X001465Y095730D01*
X001532Y095712D01*
X001600Y095706D01*
X001668Y095712D01*
X001735Y095730D01*
X001797Y095759D01*
X001853Y095798D01*
X001902Y095847D01*
X001941Y095903D01*
X001970Y095965D01*
X001988Y096032D01*
X001988Y096033D02*
X001212Y096033D01*
X001208Y096082D02*
X001992Y096082D01*
X001991Y096130D02*
X001209Y096130D01*
X001215Y096179D02*
X001985Y096179D01*
X001972Y096227D02*
X001228Y096227D01*
X001249Y096276D02*
X001951Y096276D01*
X001922Y096324D02*
X001278Y096324D01*
X001318Y096373D02*
X001882Y096373D01*
X001825Y096421D02*
X001375Y096421D01*
X001465Y096470D02*
X001735Y096470D01*
X001975Y095985D02*
X001225Y095985D01*
X001243Y095936D02*
X001956Y095936D01*
X001930Y095888D02*
X001270Y095888D01*
X001306Y095839D02*
X001894Y095839D01*
X001842Y095791D02*
X001358Y095791D01*
X001439Y095742D02*
X001761Y095742D01*
X057795Y079337D02*
X057777Y079271D01*
X057771Y079203D01*
X057777Y079134D01*
X057795Y079068D01*
X057824Y079006D01*
X057863Y078949D01*
X057912Y078901D01*
X057968Y078862D01*
X058030Y078833D01*
X058097Y078815D01*
X058165Y078809D01*
X058233Y078815D01*
X058300Y078833D01*
X058362Y078862D01*
X058418Y078901D01*
X058467Y078949D01*
X058506Y079006D01*
X058535Y079068D01*
X058553Y079134D01*
X058559Y079203D01*
X058553Y079271D01*
X058535Y079337D01*
X058506Y079399D01*
X058467Y079456D01*
X058418Y079504D01*
X058362Y079543D01*
X057968Y079543D01*
X057912Y079504D01*
X057863Y079456D01*
X057824Y079399D01*
X057795Y079337D01*
X057801Y079349D02*
X058529Y079349D01*
X058545Y079301D02*
X057785Y079301D01*
X057776Y079252D02*
X058554Y079252D01*
X058559Y079204D02*
X057771Y079204D01*
X057775Y079155D02*
X058555Y079155D01*
X058545Y079107D02*
X057785Y079107D01*
X057799Y079058D02*
X058531Y079058D01*
X058508Y079010D02*
X057822Y079010D01*
X057855Y078961D02*
X058475Y078961D01*
X058430Y078913D02*
X057900Y078913D01*
X057964Y078864D02*
X058366Y078864D01*
X058238Y078816D02*
X058092Y078816D01*
X057823Y079398D02*
X058507Y079398D01*
X058473Y079446D02*
X057857Y079446D01*
X057903Y079495D02*
X058427Y079495D01*
X058362Y079543D02*
X058300Y079572D01*
X058233Y079590D01*
X058165Y079596D01*
X058097Y079590D01*
X058030Y079572D01*
X057968Y079543D01*
X058116Y079592D02*
X058214Y079592D01*
X076298Y095847D02*
X076347Y095798D01*
X076403Y095759D01*
X076465Y095730D01*
X076532Y095712D01*
X076600Y095706D01*
X076668Y095712D01*
X076735Y095730D01*
X076797Y095759D01*
X076853Y095798D01*
X076902Y095847D01*
X076941Y095903D01*
X076970Y095965D01*
X076988Y096032D01*
X076994Y096100D01*
X076988Y096168D01*
X076970Y096235D01*
X076941Y096297D01*
X076902Y096353D01*
X076853Y096402D01*
X076797Y096441D01*
X076735Y096470D01*
X076668Y096488D01*
X076600Y096494D01*
X076532Y096488D01*
X076465Y096470D01*
X076403Y096441D01*
X076347Y096402D01*
X076298Y096353D01*
X076259Y096297D01*
X076230Y096235D01*
X076212Y096168D01*
X076206Y096100D01*
X076212Y096032D01*
X076230Y095965D01*
X076259Y095903D01*
X076298Y095847D01*
X076306Y095839D02*
X076894Y095839D01*
X076930Y095888D02*
X076270Y095888D01*
X076243Y095936D02*
X076956Y095936D01*
X076975Y095985D02*
X076225Y095985D01*
X076212Y096033D02*
X076988Y096033D01*
X076992Y096082D02*
X076208Y096082D01*
X076209Y096130D02*
X076991Y096130D01*
X076985Y096179D02*
X076215Y096179D01*
X076228Y096227D02*
X076972Y096227D01*
X076951Y096276D02*
X076249Y096276D01*
X076278Y096324D02*
X076922Y096324D01*
X076882Y096373D02*
X076318Y096373D01*
X076375Y096421D02*
X076825Y096421D01*
X076735Y096470D02*
X076465Y096470D01*
X076358Y095791D02*
X076842Y095791D01*
X076761Y095742D02*
X076439Y095742D01*
X058300Y047272D02*
X058233Y047290D01*
X058165Y047296D01*
X058097Y047290D01*
X058030Y047272D01*
X057968Y047243D01*
X057912Y047204D01*
X057863Y047156D01*
X057824Y047099D01*
X057795Y047037D01*
X057777Y046971D01*
X057771Y046903D01*
X058559Y046903D01*
X058553Y046971D01*
X058535Y047037D01*
X058506Y047099D01*
X058467Y047156D01*
X058418Y047204D01*
X058362Y047243D01*
X058300Y047272D01*
X058364Y047242D02*
X057966Y047242D01*
X057902Y047194D02*
X058428Y047194D01*
X058474Y047145D02*
X057856Y047145D01*
X057823Y047097D02*
X058507Y047097D01*
X058530Y047048D02*
X057800Y047048D01*
X057785Y047000D02*
X058545Y047000D01*
X058554Y046951D02*
X057776Y046951D01*
X057771Y046903D02*
X057777Y046834D01*
X057795Y046768D01*
X057824Y046706D01*
X057863Y046649D01*
X057912Y046601D01*
X057968Y046562D01*
X058030Y046533D01*
X058097Y046515D01*
X058233Y046515D01*
X058300Y046533D01*
X058362Y046562D01*
X058418Y046601D01*
X058467Y046649D01*
X058506Y046706D01*
X058535Y046768D01*
X058553Y046834D01*
X058559Y046903D01*
X058554Y046854D02*
X057776Y046854D01*
X057785Y046806D02*
X058545Y046806D01*
X058530Y046757D02*
X057800Y046757D01*
X057823Y046709D02*
X058507Y046709D01*
X058474Y046660D02*
X057856Y046660D01*
X057901Y046612D02*
X058429Y046612D01*
X058364Y046563D02*
X057966Y046563D01*
X058097Y046515D02*
X058165Y046509D01*
X058233Y046515D01*
X058227Y047291D02*
X058103Y047291D01*
X058165Y014996D02*
X058097Y014990D01*
X058030Y014972D01*
X057968Y014943D01*
X057912Y014904D01*
X057863Y014856D01*
X057824Y014799D01*
X057795Y014737D01*
X057777Y014671D01*
X057771Y014603D01*
X057777Y014534D01*
X057795Y014468D01*
X057824Y014406D01*
X057863Y014349D01*
X057912Y014301D01*
X057968Y014262D01*
X058030Y014233D01*
X058097Y014215D01*
X058165Y014209D01*
X058233Y014215D01*
X058300Y014233D01*
X058362Y014262D01*
X058418Y014301D01*
X058467Y014349D01*
X058506Y014406D01*
X058535Y014468D01*
X058553Y014534D01*
X058559Y014603D01*
X058553Y014671D01*
X058535Y014737D01*
X058506Y014799D01*
X058467Y014856D01*
X058418Y014904D01*
X058362Y014943D01*
X058300Y014972D01*
X058233Y014990D01*
X058165Y014996D01*
X058094Y014990D02*
X058236Y014990D01*
X058365Y014941D02*
X057965Y014941D01*
X057900Y014893D02*
X058430Y014893D01*
X058475Y014844D02*
X057855Y014844D01*
X057822Y014796D02*
X058508Y014796D01*
X058530Y014747D02*
X057800Y014747D01*
X057785Y014699D02*
X058545Y014699D01*
X058555Y014650D02*
X057775Y014650D01*
X057771Y014602D02*
X058559Y014602D01*
X058554Y014553D02*
X057776Y014553D01*
X057785Y014505D02*
X058545Y014505D01*
X058529Y014456D02*
X057801Y014456D01*
X057823Y014408D02*
X058507Y014408D01*
X058473Y014359D02*
X057857Y014359D01*
X057902Y014311D02*
X058428Y014311D01*
X058363Y014262D02*
X057967Y014262D01*
X058110Y014214D02*
X058220Y014214D01*
X076259Y002297D02*
X076230Y002235D01*
X076212Y002168D01*
X076206Y002100D01*
X076212Y002032D01*
X076230Y001965D01*
X076259Y001903D01*
X076298Y001847D01*
X076347Y001798D01*
X076403Y001759D01*
X076465Y001730D01*
X076532Y001712D01*
X076600Y001706D01*
X076668Y001712D01*
X076735Y001730D01*
X076797Y001759D01*
X076853Y001798D01*
X076902Y001847D01*
X076941Y001903D01*
X076970Y001965D01*
X076988Y002032D01*
X076994Y002100D01*
X076988Y002168D01*
X076970Y002235D01*
X076941Y002297D01*
X076902Y002353D01*
X076853Y002402D01*
X076797Y002441D01*
X076735Y002470D01*
X076668Y002488D01*
X076600Y002494D01*
X076532Y002488D01*
X076465Y002470D01*
X076403Y002441D01*
X076347Y002402D01*
X076298Y002353D01*
X076259Y002297D01*
X076252Y002283D02*
X076948Y002283D01*
X076970Y002234D02*
X076230Y002234D01*
X076217Y002186D02*
X076983Y002186D01*
X076990Y002137D02*
X076210Y002137D01*
X076207Y002089D02*
X076993Y002089D01*
X076988Y002040D02*
X076212Y002040D01*
X076223Y001992D02*
X076977Y001992D01*
X076960Y001943D02*
X076240Y001943D01*
X076265Y001895D02*
X076935Y001895D01*
X076901Y001846D02*
X076299Y001846D01*
X076348Y001798D02*
X076852Y001798D01*
X076775Y001749D02*
X076425Y001749D01*
X076283Y002331D02*
X076917Y002331D01*
X076875Y002380D02*
X076325Y002380D01*
X076385Y002428D02*
X076815Y002428D01*
X076710Y002477D02*
X076490Y002477D01*
D26*
X067811Y030228D02*
X067813Y030265D01*
X067819Y030302D01*
X067828Y030337D01*
X067842Y030372D01*
X067858Y030405D01*
X067879Y030436D01*
X067902Y030465D01*
X067928Y030491D01*
X067957Y030514D01*
X067988Y030535D01*
X068021Y030551D01*
X068056Y030565D01*
X068091Y030574D01*
X068128Y030580D01*
X068165Y030582D01*
X068202Y030580D01*
X068239Y030574D01*
X068274Y030565D01*
X068309Y030551D01*
X068342Y030535D01*
X068373Y030514D01*
X068402Y030491D01*
X068428Y030465D01*
X068451Y030436D01*
X068472Y030405D01*
X068488Y030372D01*
X068502Y030337D01*
X068511Y030302D01*
X068517Y030265D01*
X068519Y030228D01*
X068517Y030191D01*
X068511Y030154D01*
X068502Y030119D01*
X068488Y030084D01*
X068472Y030051D01*
X068451Y030020D01*
X068428Y029991D01*
X068402Y029965D01*
X068373Y029942D01*
X068342Y029921D01*
X068309Y029905D01*
X068274Y029891D01*
X068239Y029882D01*
X068202Y029876D01*
X068165Y029874D01*
X068128Y029876D01*
X068091Y029882D01*
X068056Y029891D01*
X068021Y029905D01*
X067988Y029921D01*
X067957Y029942D01*
X067928Y029965D01*
X067902Y029991D01*
X067879Y030020D01*
X067858Y030051D01*
X067842Y030084D01*
X067828Y030119D01*
X067819Y030154D01*
X067813Y030191D01*
X067811Y030228D01*
X067811Y062528D02*
X067813Y062565D01*
X067819Y062602D01*
X067828Y062637D01*
X067842Y062672D01*
X067858Y062705D01*
X067879Y062736D01*
X067902Y062765D01*
X067928Y062791D01*
X067957Y062814D01*
X067988Y062835D01*
X068021Y062851D01*
X068056Y062865D01*
X068091Y062874D01*
X068128Y062880D01*
X068165Y062882D01*
X068202Y062880D01*
X068239Y062874D01*
X068274Y062865D01*
X068309Y062851D01*
X068342Y062835D01*
X068373Y062814D01*
X068402Y062791D01*
X068428Y062765D01*
X068451Y062736D01*
X068472Y062705D01*
X068488Y062672D01*
X068502Y062637D01*
X068511Y062602D01*
X068517Y062565D01*
X068519Y062528D01*
X068517Y062491D01*
X068511Y062454D01*
X068502Y062419D01*
X068488Y062384D01*
X068472Y062351D01*
X068451Y062320D01*
X068428Y062291D01*
X068402Y062265D01*
X068373Y062242D01*
X068342Y062221D01*
X068309Y062205D01*
X068274Y062191D01*
X068239Y062182D01*
X068202Y062176D01*
X068165Y062174D01*
X068128Y062176D01*
X068091Y062182D01*
X068056Y062191D01*
X068021Y062205D01*
X067988Y062221D01*
X067957Y062242D01*
X067928Y062265D01*
X067902Y062291D01*
X067879Y062320D01*
X067858Y062351D01*
X067842Y062384D01*
X067828Y062419D01*
X067819Y062454D01*
X067813Y062491D01*
X067811Y062528D01*
X067811Y094828D02*
X067813Y094865D01*
X067819Y094902D01*
X067828Y094937D01*
X067842Y094972D01*
X067858Y095005D01*
X067879Y095036D01*
X067902Y095065D01*
X067928Y095091D01*
X067957Y095114D01*
X067988Y095135D01*
X068021Y095151D01*
X068056Y095165D01*
X068091Y095174D01*
X068128Y095180D01*
X068165Y095182D01*
X068202Y095180D01*
X068239Y095174D01*
X068274Y095165D01*
X068309Y095151D01*
X068342Y095135D01*
X068373Y095114D01*
X068402Y095091D01*
X068428Y095065D01*
X068451Y095036D01*
X068472Y095005D01*
X068488Y094972D01*
X068502Y094937D01*
X068511Y094902D01*
X068517Y094865D01*
X068519Y094828D01*
X068517Y094791D01*
X068511Y094754D01*
X068502Y094719D01*
X068488Y094684D01*
X068472Y094651D01*
X068451Y094620D01*
X068428Y094591D01*
X068402Y094565D01*
X068373Y094542D01*
X068342Y094521D01*
X068309Y094505D01*
X068274Y094491D01*
X068239Y094482D01*
X068202Y094476D01*
X068165Y094474D01*
X068128Y094476D01*
X068091Y094482D01*
X068056Y094491D01*
X068021Y094505D01*
X067988Y094521D01*
X067957Y094542D01*
X067928Y094565D01*
X067902Y094591D01*
X067879Y094620D01*
X067858Y094651D01*
X067842Y094684D01*
X067828Y094719D01*
X067819Y094754D01*
X067813Y094791D01*
X067811Y094828D01*
D27*
X068070Y094727D02*
X068127Y094670D01*
X068240Y094670D01*
X068297Y094727D01*
X068297Y094954D02*
X068240Y095010D01*
X068127Y095010D01*
X068070Y094954D01*
X068070Y094727D01*
X068115Y095483D02*
X068172Y095539D01*
X068115Y095483D02*
X068002Y095483D01*
X067945Y095539D01*
X067945Y095766D01*
X068002Y095823D01*
X068115Y095823D01*
X068172Y095766D01*
X068313Y095823D02*
X068483Y095823D01*
X068540Y095766D01*
X068540Y095653D01*
X068483Y095596D01*
X068313Y095596D01*
X068313Y095483D02*
X068313Y095823D01*
X068427Y095596D02*
X068540Y095483D01*
X068682Y095483D02*
X068795Y095483D01*
X068738Y095483D02*
X068738Y095823D01*
X068682Y095823D02*
X068795Y095823D01*
X068927Y095823D02*
X069154Y095823D01*
X069041Y095823D02*
X069041Y095483D01*
X069409Y095483D02*
X069409Y095823D01*
X069522Y095823D02*
X069295Y095823D01*
X069664Y095823D02*
X069664Y095483D01*
X069891Y095483D01*
X070032Y095483D02*
X070032Y095823D01*
X070202Y095823D01*
X070259Y095766D01*
X070259Y095653D01*
X070202Y095596D01*
X070032Y095596D01*
X070146Y095596D02*
X070259Y095483D01*
X070158Y095010D02*
X070214Y094954D01*
X070214Y094897D01*
X070158Y094840D01*
X070214Y094783D01*
X070214Y094727D01*
X070158Y094670D01*
X070044Y094670D01*
X069987Y094727D01*
X069846Y094670D02*
X069619Y094670D01*
X069733Y094670D02*
X069733Y095010D01*
X069619Y094897D01*
X069478Y094954D02*
X069251Y094727D01*
X069308Y094670D01*
X069421Y094670D01*
X069478Y094727D01*
X069478Y094954D01*
X069421Y095010D01*
X069308Y095010D01*
X069251Y094954D01*
X069251Y094727D01*
X069109Y094670D02*
X068882Y094670D01*
X069109Y094897D01*
X069109Y094954D01*
X069053Y095010D01*
X068939Y095010D01*
X068882Y094954D01*
X069664Y095653D02*
X069777Y095653D01*
X069891Y095823D02*
X069664Y095823D01*
X070044Y095010D02*
X070158Y095010D01*
X070044Y095010D02*
X069987Y094954D01*
X070101Y094840D02*
X070158Y094840D01*
X070825Y095483D02*
X070769Y095539D01*
X070769Y095596D01*
X070882Y095709D01*
X070882Y095766D01*
X070825Y095823D01*
X070769Y095766D01*
X070769Y095709D01*
X070996Y095483D01*
X070996Y095596D02*
X070882Y095483D01*
X070825Y095483D01*
X071505Y095539D02*
X071562Y095483D01*
X071676Y095483D01*
X071732Y095539D01*
X071732Y095653D01*
X071619Y095653D01*
X071732Y095766D02*
X071676Y095823D01*
X071562Y095823D01*
X071505Y095766D01*
X071505Y095539D01*
X071874Y095539D02*
X071930Y095483D01*
X072044Y095483D01*
X072101Y095539D01*
X072101Y095823D01*
X072242Y095823D02*
X072355Y095823D01*
X072299Y095823D02*
X072299Y095483D01*
X072355Y095483D02*
X072242Y095483D01*
X072601Y095483D02*
X072601Y095823D01*
X072488Y095823D02*
X072714Y095823D01*
X072856Y095709D02*
X072969Y095823D01*
X073083Y095709D01*
X073083Y095483D01*
X073224Y095483D02*
X073224Y095823D01*
X073394Y095823D01*
X073451Y095766D01*
X073451Y095653D01*
X073394Y095596D01*
X073224Y095596D01*
X073338Y095596D02*
X073451Y095483D01*
X073592Y095483D02*
X073706Y095483D01*
X073649Y095483D02*
X073649Y095823D01*
X073592Y095823D02*
X073706Y095823D01*
X073083Y095653D02*
X072856Y095653D01*
X072856Y095709D02*
X072856Y095483D01*
X071874Y095539D02*
X071874Y095823D01*
X071874Y063523D02*
X071874Y063239D01*
X071930Y063183D01*
X072044Y063183D01*
X072101Y063239D01*
X072101Y063523D01*
X072242Y063523D02*
X072355Y063523D01*
X072299Y063523D02*
X072299Y063183D01*
X072355Y063183D02*
X072242Y063183D01*
X072601Y063183D02*
X072601Y063523D01*
X072488Y063523D02*
X072714Y063523D01*
X072856Y063409D02*
X072969Y063523D01*
X073083Y063409D01*
X073083Y063183D01*
X073224Y063183D02*
X073224Y063523D01*
X073394Y063523D01*
X073451Y063466D01*
X073451Y063353D01*
X073394Y063296D01*
X073224Y063296D01*
X073338Y063296D02*
X073451Y063183D01*
X073592Y063183D02*
X073706Y063183D01*
X073649Y063183D02*
X073649Y063523D01*
X073592Y063523D02*
X073706Y063523D01*
X073083Y063353D02*
X072856Y063353D01*
X072856Y063409D02*
X072856Y063183D01*
X071732Y063239D02*
X071732Y063353D01*
X071619Y063353D01*
X071732Y063466D02*
X071676Y063523D01*
X071562Y063523D01*
X071505Y063466D01*
X071505Y063239D01*
X071562Y063183D01*
X071676Y063183D01*
X071732Y063239D01*
X070996Y063183D02*
X070769Y063409D01*
X070769Y063466D01*
X070825Y063523D01*
X070882Y063466D01*
X070882Y063409D01*
X070769Y063296D01*
X070769Y063239D01*
X070825Y063183D01*
X070882Y063183D01*
X070996Y063296D01*
X070259Y063353D02*
X070202Y063296D01*
X070032Y063296D01*
X070032Y063183D02*
X070032Y063523D01*
X070202Y063523D01*
X070259Y063466D01*
X070259Y063353D01*
X070146Y063296D02*
X070259Y063183D01*
X069891Y063183D02*
X069664Y063183D01*
X069664Y063523D01*
X069891Y063523D01*
X069777Y063353D02*
X069664Y063353D01*
X069522Y063523D02*
X069295Y063523D01*
X069409Y063523D02*
X069409Y063183D01*
X069041Y063183D02*
X069041Y063523D01*
X069154Y063523D02*
X068927Y063523D01*
X068795Y063523D02*
X068682Y063523D01*
X068738Y063523D02*
X068738Y063183D01*
X068682Y063183D02*
X068795Y063183D01*
X068540Y063183D02*
X068427Y063296D01*
X068483Y063296D02*
X068313Y063296D01*
X068313Y063183D02*
X068313Y063523D01*
X068483Y063523D01*
X068540Y063466D01*
X068540Y063353D01*
X068483Y063296D01*
X068172Y063239D02*
X068115Y063183D01*
X068002Y063183D01*
X067945Y063239D01*
X067945Y063466D01*
X068002Y063523D01*
X068115Y063523D01*
X068172Y063466D01*
X068127Y062710D02*
X068070Y062654D01*
X068070Y062427D01*
X068127Y062370D01*
X068240Y062370D01*
X068297Y062427D01*
X068297Y062654D02*
X068240Y062710D01*
X068127Y062710D01*
X068882Y062654D02*
X068939Y062710D01*
X069053Y062710D01*
X069109Y062654D01*
X069109Y062597D01*
X068882Y062370D01*
X069109Y062370D01*
X069251Y062427D02*
X069478Y062654D01*
X069478Y062427D01*
X069421Y062370D01*
X069308Y062370D01*
X069251Y062427D01*
X069251Y062654D01*
X069308Y062710D01*
X069421Y062710D01*
X069478Y062654D01*
X069619Y062597D02*
X069733Y062710D01*
X069733Y062370D01*
X069846Y062370D02*
X069619Y062370D01*
X069987Y062427D02*
X070044Y062370D01*
X070158Y062370D01*
X070214Y062427D01*
X070214Y062483D01*
X070158Y062540D01*
X070101Y062540D01*
X070158Y062540D02*
X070214Y062597D01*
X070214Y062654D01*
X070158Y062710D01*
X070044Y062710D01*
X069987Y062654D01*
X070032Y031223D02*
X070202Y031223D01*
X070259Y031166D01*
X070259Y031053D01*
X070202Y030996D01*
X070032Y030996D01*
X070032Y030883D02*
X070032Y031223D01*
X069891Y031223D02*
X069664Y031223D01*
X069664Y030883D01*
X069891Y030883D01*
X069777Y031053D02*
X069664Y031053D01*
X069522Y031223D02*
X069295Y031223D01*
X069409Y031223D02*
X069409Y030883D01*
X069041Y030883D02*
X069041Y031223D01*
X069154Y031223D02*
X068927Y031223D01*
X068795Y031223D02*
X068682Y031223D01*
X068738Y031223D02*
X068738Y030883D01*
X068682Y030883D02*
X068795Y030883D01*
X068540Y030883D02*
X068427Y030996D01*
X068483Y030996D02*
X068313Y030996D01*
X068313Y030883D02*
X068313Y031223D01*
X068483Y031223D01*
X068540Y031166D01*
X068540Y031053D01*
X068483Y030996D01*
X068172Y030939D02*
X068115Y030883D01*
X068002Y030883D01*
X067945Y030939D01*
X067945Y031166D01*
X068002Y031223D01*
X068115Y031223D01*
X068172Y031166D01*
X068127Y030410D02*
X068070Y030354D01*
X068070Y030127D01*
X068127Y030070D01*
X068240Y030070D01*
X068297Y030127D01*
X068297Y030354D02*
X068240Y030410D01*
X068127Y030410D01*
X068882Y030354D02*
X068939Y030410D01*
X069053Y030410D01*
X069109Y030354D01*
X069109Y030297D01*
X068882Y030070D01*
X069109Y030070D01*
X069251Y030127D02*
X069478Y030354D01*
X069478Y030127D01*
X069421Y030070D01*
X069308Y030070D01*
X069251Y030127D01*
X069251Y030354D01*
X069308Y030410D01*
X069421Y030410D01*
X069478Y030354D01*
X069619Y030297D02*
X069733Y030410D01*
X069733Y030070D01*
X069846Y030070D02*
X069619Y030070D01*
X069987Y030127D02*
X070044Y030070D01*
X070158Y030070D01*
X070214Y030127D01*
X070214Y030183D01*
X070158Y030240D01*
X070101Y030240D01*
X070158Y030240D02*
X070214Y030297D01*
X070214Y030354D01*
X070158Y030410D01*
X070044Y030410D01*
X069987Y030354D01*
X070259Y030883D02*
X070146Y030996D01*
X070769Y030996D02*
X070882Y031109D01*
X070882Y031166D01*
X070825Y031223D01*
X070769Y031166D01*
X070769Y031109D01*
X070996Y030883D01*
X070996Y030996D02*
X070882Y030883D01*
X070825Y030883D01*
X070769Y030939D01*
X070769Y030996D01*
X071505Y030939D02*
X071505Y031166D01*
X071562Y031223D01*
X071676Y031223D01*
X071732Y031166D01*
X071732Y031053D02*
X071619Y031053D01*
X071732Y031053D02*
X071732Y030939D01*
X071676Y030883D01*
X071562Y030883D01*
X071505Y030939D01*
X071874Y030939D02*
X071930Y030883D01*
X072044Y030883D01*
X072101Y030939D01*
X072101Y031223D01*
X072242Y031223D02*
X072355Y031223D01*
X072299Y031223D02*
X072299Y030883D01*
X072355Y030883D02*
X072242Y030883D01*
X072601Y030883D02*
X072601Y031223D01*
X072488Y031223D02*
X072714Y031223D01*
X072856Y031109D02*
X072969Y031223D01*
X073083Y031109D01*
X073083Y030883D01*
X073224Y030883D02*
X073224Y031223D01*
X073394Y031223D01*
X073451Y031166D01*
X073451Y031053D01*
X073394Y030996D01*
X073224Y030996D01*
X073338Y030996D02*
X073451Y030883D01*
X073592Y030883D02*
X073706Y030883D01*
X073649Y030883D02*
X073649Y031223D01*
X073592Y031223D02*
X073706Y031223D01*
X073083Y031053D02*
X072856Y031053D01*
X072856Y031109D02*
X072856Y030883D01*
X071874Y030939D02*
X071874Y031223D01*
D28*
X067235Y022843D02*
X067235Y022249D01*
X066251Y022249D02*
X066251Y022843D01*
X065266Y022843D02*
X065266Y022249D01*
X057235Y022249D02*
X057235Y022843D01*
X056251Y022843D02*
X056251Y022249D01*
X055266Y022249D02*
X055266Y022843D01*
X029235Y022843D02*
X029235Y022249D01*
X028251Y022249D02*
X028251Y022843D01*
X027266Y022843D02*
X027266Y022249D01*
X019235Y022186D02*
X019235Y022780D01*
X018251Y022780D02*
X018251Y022186D01*
X017266Y022186D02*
X017266Y022780D01*
X009235Y022843D02*
X009235Y022249D01*
X008251Y022249D02*
X008251Y022843D01*
X007266Y022843D02*
X007266Y022249D01*
X007266Y054549D02*
X007266Y055143D01*
X008251Y055143D02*
X008251Y054549D01*
X009235Y054549D02*
X009235Y055143D01*
X017266Y055080D02*
X017266Y054486D01*
X018251Y054486D02*
X018251Y055080D01*
X019235Y055080D02*
X019235Y054486D01*
X027266Y054549D02*
X027266Y055143D01*
X028251Y055143D02*
X028251Y054549D01*
X029235Y054549D02*
X029235Y055143D01*
X055266Y055143D02*
X055266Y054549D01*
X056251Y054549D02*
X056251Y055143D01*
X057235Y055143D02*
X057235Y054549D01*
X065266Y054549D02*
X065266Y055143D01*
X066251Y055143D02*
X066251Y054549D01*
X067235Y054549D02*
X067235Y055143D01*
X067235Y086849D02*
X067235Y087443D01*
X066251Y087443D02*
X066251Y086849D01*
X065266Y086849D02*
X065266Y087443D01*
X057235Y087443D02*
X057235Y086849D01*
X056251Y086849D02*
X056251Y087443D01*
X055266Y087443D02*
X055266Y086849D01*
X029235Y086849D02*
X029235Y087443D01*
X028251Y087443D02*
X028251Y086849D01*
X027266Y086849D02*
X027266Y087443D01*
X019235Y087380D02*
X019235Y086786D01*
X018251Y086786D02*
X018251Y087380D01*
X017266Y087380D02*
X017266Y086786D01*
X009235Y086849D02*
X009235Y087443D01*
X008251Y087443D02*
X008251Y086849D01*
X007266Y086849D02*
X007266Y087443D01*
D29*
X006322Y090099D03*
X010141Y090099D03*
X016322Y090036D03*
X020141Y090036D03*
X026322Y090099D03*
X030141Y090099D03*
X054322Y090099D03*
X058141Y090099D03*
X064322Y090099D03*
X068141Y090099D03*
X068141Y057799D03*
X064322Y057799D03*
X058141Y057799D03*
X054322Y057799D03*
X030141Y057799D03*
X026322Y057799D03*
X020141Y057736D03*
X016322Y057736D03*
X010141Y057799D03*
X006322Y057799D03*
X006322Y025499D03*
X010141Y025499D03*
X016322Y025436D03*
X020141Y025436D03*
X026322Y025499D03*
X030141Y025499D03*
X054322Y025499D03*
X058141Y025499D03*
X064322Y025499D03*
X068141Y025499D03*
D30*
X037250Y018356D03*
X037250Y017254D03*
X037250Y049554D03*
X037250Y050656D03*
X037250Y081854D03*
X037250Y082956D03*
D31*
X018380Y081790D03*
X017380Y081790D03*
X016380Y081790D03*
X015380Y081790D03*
X014380Y081790D03*
X013380Y081790D03*
X012380Y081790D03*
X011380Y081790D03*
X011380Y084540D03*
X012380Y084540D03*
X013380Y084540D03*
X014380Y084540D03*
X015380Y084540D03*
X016380Y084540D03*
X017380Y084540D03*
X018380Y084540D03*
X018380Y052240D03*
X017380Y052240D03*
X016380Y052240D03*
X015380Y052240D03*
X014380Y052240D03*
X013380Y052240D03*
X012380Y052240D03*
X011380Y052240D03*
X011380Y049490D03*
X012380Y049490D03*
X013380Y049490D03*
X014380Y049490D03*
X015380Y049490D03*
X016380Y049490D03*
X017380Y049490D03*
X018380Y049490D03*
X018380Y019940D03*
X017380Y019940D03*
X016380Y019940D03*
X015380Y019940D03*
X014380Y019940D03*
X013380Y019940D03*
X012380Y019940D03*
X011380Y019940D03*
X011380Y017190D03*
X012380Y017190D03*
X013380Y017190D03*
X014380Y017190D03*
X015380Y017190D03*
X016380Y017190D03*
X017380Y017190D03*
X018380Y017190D03*
D32*
X032263Y026824D03*
X032263Y027336D03*
X033012Y027336D03*
X033012Y027080D03*
X033012Y026824D03*
X035306Y026864D03*
X035306Y027376D03*
X036054Y027376D03*
X036054Y027120D03*
X036054Y026864D03*
X036054Y059164D03*
X036054Y059420D03*
X036054Y059676D03*
X035306Y059676D03*
X035306Y059164D03*
X033012Y059124D03*
X033012Y059380D03*
X033012Y059636D03*
X032263Y059636D03*
X032263Y059124D03*
X032263Y091424D03*
X032263Y091936D03*
X033012Y091936D03*
X033012Y091680D03*
X033012Y091424D03*
X035306Y091464D03*
X035306Y091976D03*
X036054Y091976D03*
X036054Y091720D03*
X036054Y091464D03*
D33*
X034825Y088735D03*
X034825Y056435D03*
X034825Y024135D03*
D34*
X033873Y024686D03*
X033873Y023584D03*
X033873Y055884D03*
X033873Y056986D03*
X033873Y088184D03*
X033873Y089286D03*
D35*
X032728Y083475D03*
X032228Y083475D03*
X031728Y083475D03*
X031228Y083475D03*
X030728Y083475D03*
X030228Y083475D03*
X029728Y083475D03*
X029728Y081055D03*
X030228Y081055D03*
X030728Y081055D03*
X031228Y081055D03*
X031728Y081055D03*
X032228Y081055D03*
X032728Y081055D03*
X032728Y051175D03*
X032228Y051175D03*
X031728Y051175D03*
X031228Y051175D03*
X030728Y051175D03*
X030228Y051175D03*
X029728Y051175D03*
X029728Y048755D03*
X030228Y048755D03*
X030728Y048755D03*
X031228Y048755D03*
X031728Y048755D03*
X032228Y048755D03*
X032728Y048755D03*
X032728Y018875D03*
X032228Y018875D03*
X031728Y018875D03*
X031228Y018875D03*
X030728Y018875D03*
X030228Y018875D03*
X029728Y018875D03*
X029728Y016455D03*
X030228Y016455D03*
X030728Y016455D03*
X031228Y016455D03*
X031728Y016455D03*
X032228Y016455D03*
X032728Y016455D03*
D36*
X043353Y017746D03*
X044102Y017746D03*
X043728Y016919D03*
X043728Y049219D03*
X044102Y050046D03*
X043353Y050046D03*
X043728Y081519D03*
X044102Y082346D03*
X043353Y082346D03*
D37*
X044728Y083250D03*
X044728Y084155D03*
X044728Y051855D03*
X044728Y050950D03*
X044728Y019555D03*
X044728Y018650D03*
D38*
X043665Y030915D03*
X042665Y030915D03*
X041665Y030915D03*
X040665Y030915D03*
X039665Y030915D03*
X038665Y030915D03*
X038665Y063215D03*
X039665Y063215D03*
X040665Y063215D03*
X041665Y063215D03*
X042665Y063215D03*
X043665Y063215D03*
X043665Y095515D03*
X042665Y095515D03*
X041665Y095515D03*
X040665Y095515D03*
X039665Y095515D03*
X038665Y095515D03*
D39*
X041164Y095515D03*
X041164Y063215D03*
X041164Y030915D03*
D40*
X048266Y022156D03*
X049266Y022156D03*
X050266Y022156D03*
X051266Y022156D03*
X051293Y018400D03*
X050293Y018400D03*
X049293Y018400D03*
X048293Y018400D03*
X048293Y050700D03*
X049293Y050700D03*
X050293Y050700D03*
X051293Y050700D03*
X051266Y054456D03*
X050266Y054456D03*
X049266Y054456D03*
X048266Y054456D03*
X048293Y083000D03*
X049293Y083000D03*
X050293Y083000D03*
X051293Y083000D03*
X051266Y086756D03*
X050266Y086756D03*
X049266Y086756D03*
X048266Y086756D03*
D41*
X049400Y081328D03*
X050305Y081328D03*
X050305Y049028D03*
X049400Y049028D03*
X049400Y016728D03*
X050305Y016728D03*
D42*
X044671Y022291D03*
X044415Y022291D03*
X044159Y022291D03*
X044159Y023039D03*
X044671Y023039D03*
X044671Y054591D03*
X044415Y054591D03*
X044159Y054591D03*
X044159Y055339D03*
X044671Y055339D03*
X044671Y086891D03*
X044415Y086891D03*
X044159Y086891D03*
X044159Y087639D03*
X044671Y087639D03*
D43*
X045478Y087265D03*
X044728Y085890D03*
X042165Y083390D03*
X041228Y083328D03*
X040790Y086203D03*
X039728Y085890D03*
X037978Y085640D03*
X038603Y087703D03*
X038728Y088578D03*
X038728Y089203D03*
X038728Y089828D03*
X039978Y091015D03*
X039228Y091453D03*
X038040Y092265D03*
X036915Y092703D03*
X036540Y091140D03*
X036103Y089265D03*
X033603Y091078D03*
X033603Y092765D03*
X030790Y088453D03*
X027478Y085203D03*
X030728Y081953D03*
X032228Y082515D03*
X033415Y082203D03*
X034853Y082515D03*
X036103Y083203D03*
X035665Y079828D03*
X034915Y077078D03*
X037353Y074953D03*
X036478Y073765D03*
X033665Y070390D03*
X034540Y068328D03*
X035165Y068328D03*
X035790Y068328D03*
X036790Y066078D03*
X039853Y069828D03*
X041790Y074953D03*
X042415Y075828D03*
X044290Y079765D03*
X046540Y079390D03*
X050353Y080073D03*
X050290Y085515D03*
X051978Y087953D03*
X045415Y091265D03*
X042665Y092828D03*
X041665Y093140D03*
X041228Y091953D03*
X041103Y088578D03*
X032790Y080140D03*
X030103Y079640D03*
X030103Y078265D03*
X028165Y079953D03*
X025290Y080578D03*
X025040Y077578D03*
X022915Y074703D03*
X025665Y074078D03*
X027353Y070765D03*
X028040Y070578D03*
X030478Y067328D03*
X030040Y066953D03*
X030978Y067703D03*
X031415Y068078D03*
X031853Y068453D03*
X025290Y067515D03*
X019728Y072453D03*
X018978Y072265D03*
X019040Y072890D03*
X018165Y072765D03*
X019415Y071453D03*
X018415Y070078D03*
X017915Y070453D03*
X017415Y070828D03*
X016540Y065453D03*
X015790Y065453D03*
X011290Y065453D03*
X006915Y066953D03*
X006228Y068640D03*
X006790Y073640D03*
X006040Y074453D03*
X008540Y073578D03*
X010353Y073078D03*
X010665Y076765D03*
X008915Y076828D03*
X008915Y077765D03*
X007353Y079390D03*
X008010Y081295D03*
X006103Y085515D03*
X013665Y076953D03*
X015915Y080140D03*
X016540Y080140D03*
X017040Y077390D03*
X016478Y077203D03*
X019478Y077515D03*
X019853Y080078D03*
X015415Y086140D03*
X024103Y089328D03*
X024728Y090015D03*
X033603Y060465D03*
X033603Y058778D03*
X030790Y056153D03*
X027478Y052903D03*
X030728Y049653D03*
X032228Y050215D03*
X033415Y049903D03*
X034853Y050215D03*
X036103Y050903D03*
X037978Y053340D03*
X039728Y053590D03*
X040790Y053903D03*
X041103Y056278D03*
X039978Y058715D03*
X039228Y059153D03*
X038728Y057528D03*
X038728Y056903D03*
X038728Y056278D03*
X038603Y055403D03*
X036103Y056965D03*
X036540Y058840D03*
X036915Y060403D03*
X038040Y059965D03*
X041228Y059653D03*
X041665Y060840D03*
X042665Y060528D03*
X045415Y058965D03*
X045478Y054965D03*
X044728Y053590D03*
X042165Y051090D03*
X041228Y051028D03*
X044290Y047465D03*
X046540Y047090D03*
X050353Y047773D03*
X050290Y053215D03*
X051978Y055653D03*
X059290Y050840D03*
X060165Y051715D03*
X060415Y052840D03*
X042415Y043528D03*
X041790Y042653D03*
X039853Y037528D03*
X036790Y033778D03*
X035790Y036028D03*
X035165Y036028D03*
X034540Y036028D03*
X033665Y038090D03*
X031853Y036153D03*
X031415Y035778D03*
X030978Y035403D03*
X030478Y035028D03*
X030040Y034653D03*
X028040Y038278D03*
X027353Y038465D03*
X025290Y035215D03*
X025665Y041778D03*
X022915Y042403D03*
X025040Y045278D03*
X025290Y048278D03*
X028165Y047653D03*
X030103Y047340D03*
X030103Y045965D03*
X032790Y047840D03*
X034915Y044778D03*
X035665Y047528D03*
X037353Y042653D03*
X036478Y041465D03*
X033603Y028165D03*
X033603Y026478D03*
X030790Y023853D03*
X027478Y020603D03*
X030728Y017353D03*
X032228Y017915D03*
X033415Y017603D03*
X034853Y017915D03*
X036103Y018603D03*
X037978Y021040D03*
X039728Y021290D03*
X040790Y021603D03*
X041103Y023978D03*
X038728Y023978D03*
X038728Y024603D03*
X038728Y025228D03*
X039228Y026853D03*
X039978Y026415D03*
X041228Y027353D03*
X041665Y028540D03*
X042665Y028228D03*
X045415Y026665D03*
X045478Y022665D03*
X044728Y021290D03*
X042165Y018790D03*
X041228Y018728D03*
X044290Y015165D03*
X046540Y014790D03*
X050353Y015473D03*
X050290Y020915D03*
X051978Y023353D03*
X059290Y018540D03*
X060165Y019415D03*
X060415Y020540D03*
X042415Y011228D03*
X041790Y010353D03*
X039853Y005228D03*
X036790Y001478D03*
X035790Y003728D03*
X035165Y003728D03*
X034540Y003728D03*
X033665Y005790D03*
X031853Y003853D03*
X031415Y003478D03*
X030978Y003103D03*
X030478Y002728D03*
X030040Y002353D03*
X028040Y005978D03*
X027353Y006165D03*
X025665Y009478D03*
X022915Y010103D03*
X025040Y012978D03*
X025290Y015978D03*
X028165Y015353D03*
X030103Y015040D03*
X030103Y013665D03*
X032790Y015540D03*
X035665Y015228D03*
X034915Y012478D03*
X037353Y010353D03*
X036478Y009165D03*
X025290Y002915D03*
X019728Y007853D03*
X018978Y007665D03*
X019040Y008290D03*
X018165Y008165D03*
X019415Y006853D03*
X018415Y005478D03*
X017915Y005853D03*
X017415Y006228D03*
X016540Y000853D03*
X015790Y000853D03*
X011290Y000853D03*
X006915Y002353D03*
X006228Y004040D03*
X006790Y009040D03*
X006040Y009853D03*
X008540Y008978D03*
X010353Y008478D03*
X010665Y012165D03*
X008915Y012228D03*
X008915Y013165D03*
X007353Y014790D03*
X008010Y016695D03*
X006103Y020915D03*
X013665Y012353D03*
X016478Y012603D03*
X017040Y012790D03*
X019478Y012915D03*
X019853Y015478D03*
X016540Y015540D03*
X015915Y015540D03*
X015415Y021540D03*
X024103Y024728D03*
X024728Y025415D03*
X016540Y033153D03*
X015790Y033153D03*
X018415Y037778D03*
X017915Y038153D03*
X017415Y038528D03*
X018165Y040465D03*
X019040Y040590D03*
X018978Y039965D03*
X019728Y040153D03*
X019415Y039153D03*
X019478Y045215D03*
X017040Y045090D03*
X016478Y044903D03*
X016540Y047840D03*
X015915Y047840D03*
X013665Y044653D03*
X010665Y044465D03*
X008915Y044528D03*
X008915Y045465D03*
X007353Y047090D03*
X008010Y048995D03*
X006103Y053215D03*
X006040Y042153D03*
X006790Y041340D03*
X008540Y041278D03*
X010353Y040778D03*
X006228Y036340D03*
X006915Y034653D03*
X011290Y033153D03*
X019853Y047778D03*
X015415Y053840D03*
X024103Y057028D03*
X024728Y057715D03*
X036915Y028103D03*
X038040Y027665D03*
X036540Y026540D03*
X036103Y024665D03*
X038603Y023103D03*
X059290Y083140D03*
X060165Y084015D03*
X060415Y085140D03*
M02*
