%
M48
M72
T01C0.0236
T02C0.0394
T03C0.0400
T04C0.0787
T05C0.1000
T06C0.1260
%
T01
X6228Y4040
X6915Y2353
X11290Y853
X15790Y853
X16540Y853
X18415Y5478
X17915Y5853
X17415Y6228
X18165Y8165
X19040Y8290
X18978Y7665
X19728Y7853
X19415Y6853
X22915Y10103
X25665Y9478
X27353Y6165
X28040Y5978
X25290Y2915
X30040Y2353
X30478Y2728
X30978Y3103
X31415Y3478
X31853Y3853
X33665Y5790
X34540Y3728
X35165Y3728
X35790Y3728
X36790Y1478
X39853Y5228
X36478Y9165
X37353Y10353
X34915Y12478
X35665Y15228
X34853Y17915
X36103Y18603
X37978Y21040
X39728Y21290
X40790Y21603
X41103Y23978
X38728Y23978
X38728Y24603
X38728Y25228
X39228Y26853
X39978Y26415
X41228Y27353
X41665Y28540
X42665Y28228
X45415Y26665
X45478Y22665
X44728Y21290
X42165Y18790
X41228Y18728
X44290Y15165
X46540Y14790
X50353Y15473
X50290Y20915
X51978Y23353
X59290Y18540
X60165Y19415
X60415Y20540
X42415Y11228
X41790Y10353
X33415Y17603
X32228Y17915
X30728Y17353
X30103Y15040
X30103Y13665
X28165Y15353
X25290Y15978
X25040Y12978
X19853Y15478
X19478Y12915
X17040Y12790
X16478Y12603
X13665Y12353
X10665Y12165
X8915Y12228
X8915Y13165
X7353Y14790
X8010Y16695
X6103Y20915
X6040Y9853
X6790Y9040
X8540Y8978
X10353Y8478
X15915Y15540
X16540Y15540
X15415Y21540
X24103Y24728
X24728Y25415
X27478Y20603
X30790Y23853
X33603Y26478
X33603Y28165
X36540Y26540
X36915Y28103
X38040Y27665
X36103Y24665
X38603Y23103
X32790Y15540
X36790Y33778
X35790Y36028
X35165Y36028
X34540Y36028
X33665Y38090
X31853Y36153
X31415Y35778
X30978Y35403
X30478Y35028
X30040Y34653
X28040Y38278
X27353Y38465
X25290Y35215
X25665Y41778
X22915Y42403
X25040Y45278
X25290Y48278
X28165Y47653
X30103Y47340
X30103Y45965
X32790Y47840
X33415Y49903
X32228Y50215
X30728Y49653
X27478Y52903
X30790Y56153
X33603Y58778
X33603Y60465
X36540Y58840
X36915Y60403
X38040Y59965
X39228Y59153
X39978Y58715
X38728Y57528
X38728Y56903
X38728Y56278
X38603Y55403
X39728Y53590
X40790Y53903
X41103Y56278
X41228Y59653
X41665Y60840
X42665Y60528
X45415Y58965
X45478Y54965
X44728Y53590
X42165Y51090
X41228Y51028
X37978Y53340
X36103Y50903
X34853Y50215
X35665Y47528
X34915Y44778
X37353Y42653
X36478Y41465
X39853Y37528
X41790Y42653
X42415Y43528
X44290Y47465
X46540Y47090
X50353Y47773
X50290Y53215
X51978Y55653
X59290Y50840
X60165Y51715
X60415Y52840
X41790Y74953
X42415Y75828
X44290Y79765
X46540Y79390
X50353Y80073
X50290Y85515
X51978Y87953
X45478Y87265
X44728Y85890
X42165Y83390
X41228Y83328
X40790Y86203
X39728Y85890
X37978Y85640
X38603Y87703
X38728Y88578
X38728Y89203
X38728Y89828
X39978Y91015
X39228Y91453
X38040Y92265
X36915Y92703
X36540Y91140
X36103Y89265
X33603Y91078
X33603Y92765
X30790Y88453
X27478Y85203
X30728Y81953
X32228Y82515
X33415Y82203
X34853Y82515
X36103Y83203
X35665Y79828
X34915Y77078
X37353Y74953
X36478Y73765
X33665Y70390
X34540Y68328
X35165Y68328
X35790Y68328
X36790Y66078
X39853Y69828
X31853Y68453
X31415Y68078
X30978Y67703
X30478Y67328
X30040Y66953
X28040Y70578
X27353Y70765
X25290Y67515
X25665Y74078
X22915Y74703
X25040Y77578
X25290Y80578
X28165Y79953
X30103Y79640
X30103Y78265
X32790Y80140
X24728Y90015
X24103Y89328
X19853Y80078
X19478Y77515
X17040Y77390
X16478Y77203
X16540Y80140
X15915Y80140
X13665Y76953
X10665Y76765
X8915Y76828
X8915Y77765
X7353Y79390
X8010Y81295
X6103Y85515
X15415Y86140
X6040Y74453
X6790Y73640
X8540Y73578
X10353Y73078
X6228Y68640
X6915Y66953
X11290Y65453
X15790Y65453
X16540Y65453
X18415Y70078
X17915Y70453
X17415Y70828
X18165Y72765
X19040Y72890
X18978Y72265
X19728Y72453
X19415Y71453
X24728Y57715
X24103Y57028
X19853Y47778
X19478Y45215
X17040Y45090
X16478Y44903
X16540Y47840
X15915Y47840
X13665Y44653
X10665Y44465
X8915Y44528
X8915Y45465
X7353Y47090
X8010Y48995
X6103Y53215
X6040Y42153
X6790Y41340
X8540Y41278
X10353Y40778
X6228Y36340
X6915Y34653
X11290Y33153
X15790Y33153
X16540Y33153
X18415Y37778
X17915Y38153
X17415Y38528
X18165Y40465
X19040Y40590
X18978Y39965
X19728Y40153
X19415Y39153
X15415Y53840
X36103Y56965
X59290Y83140
X60165Y84015
X60415Y85140
X45415Y91265
X42665Y92828
X41665Y93140
X41228Y91953
X41103Y88578
T02
X29235Y87146
X28251Y87146
X27266Y87146
X19235Y87083
X18251Y87083
X17266Y87083
X9235Y87146
X8251Y87146
X7266Y87146
X7266Y54846
X8251Y54846
X9235Y54846
X17266Y54783
X18251Y54783
X19235Y54783
X27266Y54846
X28251Y54846
X29235Y54846
X55266Y54846
X56251Y54846
X57235Y54846
X65266Y54846
X66251Y54846
X67235Y54846
X67235Y87146
X66251Y87146
X65266Y87146
X57235Y87146
X56251Y87146
X55266Y87146
X55266Y22546
X56251Y22546
X57235Y22546
X65266Y22546
X66251Y22546
X67235Y22546
X29235Y22546
X28251Y22546
X27266Y22546
X19235Y22483
X18251Y22483
X17266Y22483
X9235Y22546
X8251Y22546
X7266Y22546
T03
X10978Y10415
X10978Y9415
X11978Y9415
X12978Y9415
X12978Y10415
X11978Y10415
X11978Y41715
X12978Y41715
X12978Y42715
X11978Y42715
X10978Y42715
X10978Y41715
X10978Y74015
X10978Y75015
X11978Y75015
X12978Y75015
X12978Y74015
X11978Y74015
T04
X10141Y90099
X6322Y90099
X16322Y90036
X20141Y90036
X26322Y90099
X30141Y90099
X54322Y90099
X58141Y90099
X64322Y90099
X68141Y90099
X68141Y57799
X64322Y57799
X58141Y57799
X54322Y57799
X30141Y57799
X26322Y57799
X20141Y57736
X16322Y57736
X10141Y57799
X6322Y57799
X6322Y25499
X10141Y25499
X16322Y25436
X20141Y25436
X26322Y25499
X30141Y25499
X54322Y25499
X58141Y25499
X64322Y25499
X68141Y25499
T05
X4415Y3603
X9540Y8853
X18853Y14978
X27790Y8853
X33540Y3603
X42603Y14978
X41103Y22665
X46228Y27915
X51603Y35903
X57540Y41153
X63603Y35903
X66603Y47278
X74853Y47278
X74853Y35903
X74853Y14978
X66603Y14978
X57540Y8853
X51603Y3603
X63603Y3603
X74853Y3603
X42603Y47278
X41103Y54965
X46228Y60215
X51603Y68203
X57540Y73453
X63603Y68203
X66603Y79578
X74853Y79578
X74853Y68203
X46228Y92515
X41103Y87265
X42603Y79578
X33540Y68203
X27790Y73453
X18853Y79578
X9540Y73453
X4415Y68203
X18853Y47278
X27790Y41153
X33540Y35903
X9540Y41153
X4415Y35903
T06
X9600Y34405
X9600Y66705
X39600Y66705
X39600Y34405
X39600Y2105
X9600Y2105
X69600Y2105
X69600Y34405
X69600Y66705
M30
